<svg width="46" height="46" viewBox="46 0 46 46" fill="none" xmlns="http://www.w3.org/2000/svg">
  <path fill-rule="evenodd" clip-rule="evenodd"
    d="M0.0139803 0H39.7917V6.43732H6.44496V14.3777H39.6437V46H0V39.5627H33.2128V32.2929H0.0139803V0ZM33.2128 25.8555V20.815H6.44496V25.8555H33.2128ZM48.204 0H54.635V21.7772H83.8424V0H90.2734V28.2145H72.4542V46H66.0232V28.2145H48.204V0ZM99.0877 0H141.157V46H134.726V6.43732H123.642V27.0904H117.211V6.43732H105.519V46H99.0877V0ZM149.703 0H190.433V46H149.703V0ZM156.134 6.43732V19.9935L184.002 19.9935V6.43732H156.134ZM184.002 26.4308L156.134 26.4308V39.5627H184.002V26.4308ZM200.678 46V0H207.109V46H200.678ZM217.355 0H258.085V46H217.355V0ZM223.786 6.43732V39.5627H251.654V6.43732H223.786ZM279.423 6.43732H264.516V0H300.154V6.43732H285.854V46H279.423V6.43732ZM308.224 46V0H314.655V46H308.224ZM322.486 0H360V6.43732H328.917V39.5627H360V46H322.486V0Z"
    fill="#B6FF3E" />
</svg>