<?xml version="1.0" encoding="utf-8"?>
<!-- Generator: Adobe Illustrator 28.2.0, SVG Export Plug-In . SVG Version: 6.00 Build 0)  -->
<svg version="1.1" id="Calque_1" xmlns="http://www.w3.org/2000/svg" xmlns:xlink="http://www.w3.org/1999/xlink" x="0px" y="0px"
	 viewBox="0 0 134.9 47.7" style="enable-background:new 0 0 134.9 47.7;" xml:space="preserve">
<style type="text/css">
	.st0{fill:none;stroke:#FFFFFF;stroke-width:1.4031;}
	.st1{fill:#F9B913;}
	.st2{fill-rule:evenodd;clip-rule:evenodd;fill:#F9B913;}
	.st3{fill:#FFFFFF;}
	.st4{fill:#58566C;}
</style>
<g>
	<g>
		<path class="st0" d="M26.7,23.3H33"/>
		<path class="st0" d="M16.8,17.6L14,12.9"/>
		<path class="st1" d="M13.8,21.4L2.3,41.2h11.2l5.9-10L13.8,21.4z"/>
		<path class="st1" d="M20.8,31.5l-5.6,9.6H38l-5.6-9.6H20.8z"/>
		<path class="st1" d="M31.7,30.1H20.4l-5.8-10l5.5-9.8L31.7,30.1z"/>
		<path class="st0" d="M32.7,34.3h6.6L20.3,1.4l-19,32.9h18.9"/>
		<path class="st0" d="M18.7,26.4l-4.6,7.7"/>
		<path class="st1" d="M31.7,30.1H20.4l-5.8-10l5.5-9.8L31.7,30.1z"/>
		<path class="st1" d="M20.8,31.5l-5.6,9.6H38l-5.6-9.6H20.8z"/>
		<path class="st2" d="M61.3,29.9h-2.8l7.2-14.7l4.9,9.9H68l-2.2-4.3L61.3,29.9z M70.4,29.9l-1.1-2.4h2.6l1.3,2.4H70.4z M75.5,29.9
			l2.5-2.4V15.2h-2.5V29.9z M82.8,24.1l-2.4,2.5V15.2h2.4V24.1z M82.8,27.5l-2.4,2.4h14.7v-2.4H82.8z M42.9,15.3l2.5,2.5h7.8
			c1,0,1.8,0.8,1.8,1.8c0,1-0.8,1.8-1.8,1.8H42.9v2.5h10.2c1,0,1.8,0.8,1.8,1.8c0,1-0.8,1.8-1.8,1.8h-7.8v2.5h7.4
			c2.6,0,4.7-2.1,4.7-4.7v-0.7c0-0.8-0.5-1.6-1.2-1.9c0.8-0.4,1.2-1.1,1.2-2V20c0-2.6-2.1-4.7-4.7-4.7H42.9z"/>
		<path class="st3" d="M68.4,36.6c0,0.2,0,0.4-0.1,0.5c-0.1,0.2-0.2,0.3-0.3,0.4c-0.1,0.1-0.3,0.2-0.5,0.3c-0.2,0.1-0.4,0.1-0.6,0.1
			c-0.3,0-0.6-0.1-0.9-0.2c-0.3-0.1-0.6-0.3-0.8-0.5l0.3-0.5c0.2,0.2,0.5,0.3,0.7,0.4c0.3,0.1,0.5,0.1,0.8,0.1
			c0.3,0,0.5-0.1,0.6-0.2c0.2-0.1,0.2-0.3,0.2-0.5v0c0-0.1,0-0.2-0.1-0.3c-0.1-0.1-0.1-0.1-0.2-0.2c-0.1-0.1-0.2-0.1-0.3-0.2
			c-0.1,0-0.3-0.1-0.4-0.1c-0.2,0-0.3-0.1-0.5-0.2c-0.2-0.1-0.3-0.1-0.5-0.2c-0.1-0.1-0.2-0.2-0.3-0.3c-0.1-0.1-0.1-0.3-0.1-0.5v0
			c0-0.2,0-0.3,0.1-0.5c0.1-0.2,0.2-0.3,0.3-0.4c0.1-0.1,0.3-0.2,0.5-0.2c0.2-0.1,0.4-0.1,0.6-0.1c0.3,0,0.5,0,0.8,0.1
			c0.3,0.1,0.5,0.2,0.7,0.3L68,34.4c-0.2-0.1-0.4-0.2-0.6-0.3C67.2,34,67,34,66.8,34c-0.3,0-0.5,0.1-0.6,0.2
			c-0.1,0.1-0.2,0.3-0.2,0.4v0c0,0.1,0,0.2,0.1,0.3c0.1,0.1,0.1,0.1,0.2,0.2c0.1,0.1,0.2,0.1,0.4,0.1c0.1,0,0.3,0.1,0.4,0.1
			c0.2,0,0.3,0.1,0.5,0.2c0.2,0.1,0.3,0.1,0.4,0.2c0.1,0.1,0.2,0.2,0.3,0.3C68.3,36.2,68.4,36.3,68.4,36.6L68.4,36.6z"/>
		<path class="st3" d="M69.7,35.9c0,0.2,0.1,0.4,0.2,0.6c0.1,0.2,0.2,0.3,0.3,0.5c0.1,0.1,0.3,0.2,0.5,0.3c0.2,0.1,0.3,0.1,0.5,0.1
			c0.3,0,0.5-0.1,0.8-0.2c0.2-0.1,0.4-0.3,0.6-0.4l0.4,0.4c-0.2,0.2-0.5,0.4-0.7,0.6c-0.3,0.1-0.6,0.2-1,0.2c-0.3,0-0.6-0.1-0.8-0.2
			c-0.3-0.1-0.5-0.3-0.7-0.5c-0.2-0.2-0.3-0.4-0.5-0.7C69.1,36.3,69,36,69,35.6c0-0.3,0-0.6,0.1-0.9c0.1-0.3,0.2-0.5,0.4-0.7
			c0.2-0.2,0.4-0.4,0.6-0.5c0.3-0.1,0.5-0.2,0.8-0.2c0.3,0,0.6,0.1,0.8,0.2c0.2,0.1,0.5,0.3,0.6,0.5c0.2,0.2,0.3,0.4,0.4,0.7
			c0.1,0.3,0.1,0.6,0.1,0.9c0,0,0,0.1,0,0.1c0,0,0,0.1,0,0.1H69.7z M69.7,35.4h2.7c0-0.2-0.1-0.4-0.1-0.5c-0.1-0.2-0.1-0.3-0.3-0.5
			c-0.1-0.1-0.2-0.2-0.4-0.3c-0.2-0.1-0.3-0.1-0.6-0.1c-0.2,0-0.4,0-0.5,0.1c-0.2,0.1-0.3,0.2-0.4,0.3c-0.1,0.1-0.2,0.3-0.3,0.5
			C69.8,35,69.7,35.2,69.7,35.4z"/>
		<path class="st3" d="M77.5,37c-0.2,0.2-0.5,0.4-0.7,0.6c-0.3,0.2-0.6,0.2-1,0.2c-0.3,0-0.6-0.1-0.9-0.2c-0.3-0.1-0.5-0.3-0.7-0.5
			c-0.2-0.2-0.3-0.4-0.5-0.7s-0.2-0.6-0.2-0.9c0-0.3,0.1-0.6,0.2-0.9c0.1-0.3,0.3-0.5,0.5-0.7c0.2-0.2,0.4-0.4,0.7-0.5
			c0.3-0.1,0.6-0.2,0.9-0.2c0.2,0,0.4,0,0.5,0.1c0.2,0,0.3,0.1,0.5,0.2c0.1,0.1,0.3,0.1,0.4,0.2s0.2,0.2,0.3,0.3l-0.4,0.4
			c-0.2-0.2-0.4-0.3-0.6-0.5C76.3,34,76.1,34,75.8,34c-0.2,0-0.4,0-0.6,0.1c-0.2,0.1-0.3,0.2-0.5,0.4c-0.1,0.1-0.2,0.3-0.3,0.5
			c-0.1,0.2-0.1,0.4-0.1,0.6c0,0.2,0,0.4,0.1,0.6c0.1,0.2,0.2,0.4,0.3,0.5c0.1,0.1,0.3,0.3,0.5,0.4c0.2,0.1,0.4,0.1,0.6,0.1
			c0.3,0,0.5-0.1,0.7-0.2c0.2-0.1,0.4-0.3,0.6-0.5L77.5,37z"/>
		<path class="st3" d="M81.3,35.9v-2.4H82v4.2h-0.6V37c-0.1,0.2-0.3,0.4-0.6,0.6c-0.2,0.2-0.5,0.2-0.9,0.2c-0.3,0-0.5,0-0.7-0.1
			c-0.2-0.1-0.4-0.2-0.5-0.3c-0.1-0.2-0.2-0.3-0.3-0.5c-0.1-0.2-0.1-0.4-0.1-0.7v-2.6h0.6V36c0,0.4,0.1,0.7,0.3,0.9
			c0.2,0.2,0.5,0.3,0.9,0.3c0.2,0,0.3,0,0.5-0.1c0.2-0.1,0.3-0.2,0.4-0.3c0.1-0.1,0.2-0.3,0.3-0.4C81.3,36.3,81.3,36.1,81.3,35.9z"
			/>
		<path class="st3" d="M83.8,36.1v1.7h-0.6v-4.2h0.6v1.1c0.1-0.2,0.2-0.3,0.3-0.5c0.1-0.1,0.2-0.3,0.4-0.4c0.1-0.1,0.3-0.2,0.5-0.2
			c0.2-0.1,0.4-0.1,0.6-0.1v0.7h0c-0.2,0-0.4,0-0.7,0.1c-0.2,0.1-0.4,0.2-0.5,0.4c-0.2,0.2-0.3,0.4-0.4,0.6
			C83.8,35.5,83.8,35.7,83.8,36.1z"/>
		<path class="st3" d="M86.9,32.6h-0.7v-0.7h0.7V32.6z M86.9,37.7h-0.6v-4.2h0.6V37.7z"/>
		<path class="st3" d="M89,34.1v2.5c0,0.3,0.1,0.4,0.2,0.5c0.1,0.1,0.3,0.2,0.5,0.2c0.1,0,0.2,0,0.3,0c0.1,0,0.2-0.1,0.3-0.1v0.5
			c-0.1,0.1-0.2,0.1-0.4,0.1c-0.1,0-0.3,0-0.4,0c-0.2,0-0.3,0-0.5-0.1c-0.1,0-0.3-0.1-0.4-0.2c-0.1-0.1-0.2-0.2-0.2-0.4
			c-0.1-0.2-0.1-0.3-0.1-0.5v-2.6h-0.6v-0.6h0.6v-1.3H89v1.3h1.3v0.6H89z"/>
		<path class="st3" d="M95,33.5l-1.8,4.4c-0.2,0.4-0.4,0.7-0.6,0.9c-0.2,0.2-0.5,0.3-0.8,0.3c-0.2,0-0.3,0-0.5-0.1
			c-0.1,0-0.3-0.1-0.4-0.2l0.2-0.5c0.1,0.1,0.2,0.1,0.3,0.1c0.1,0,0.2,0,0.4,0c0.2,0,0.4-0.1,0.5-0.2c0.1-0.1,0.3-0.3,0.4-0.6
			l-1.9-4.2h0.7L93,37l1.4-3.5H95z"/>
		<path class="st4" d="M106.3,31.3h26.4c1.2,0,2.2,1,2.2,2.2v12c0,1.2-1,2.2-2.2,2.2h-26.4c-1.2,0-2.2-1-2.2-2.2v-12
			C104.1,32.3,105.1,31.3,106.3,31.3z"/>
		<path d="M111.4,42.5l-1.1-8.6h2l0.6,5.9l3.8-5.9h2.1l-5.7,8.6H111.4z M117.6,42.5l0.5-1.9h2l-0.5,1.9H117.6z M125.5,42.6
			c-0.5,0-1-0.1-1.4-0.2c-0.4-0.2-0.8-0.4-1-0.7c-0.3-0.3-0.5-0.7-0.7-1.1c-0.2-0.4-0.2-0.9-0.2-1.5c0-0.6,0.1-1.2,0.3-1.9
			c0.2-0.6,0.5-1.2,0.9-1.7c0.4-0.5,0.9-0.9,1.4-1.2c0.6-0.3,1.2-0.5,1.9-0.5c0.5,0,0.9,0.1,1.3,0.3c0.4,0.2,0.8,0.4,1.1,0.7
			c0.3,0.3,0.5,0.7,0.7,1.1c0.2,0.4,0.2,0.9,0.2,1.4c0,0.6-0.1,1.2-0.3,1.9c-0.2,0.6-0.5,1.2-0.9,1.7c-0.4,0.5-0.9,0.9-1.4,1.2
			C126.8,42.5,126.2,42.6,125.5,42.6z M125.6,40.9c0.4,0,0.7-0.1,1-0.3c0.3-0.2,0.6-0.5,0.8-0.9c0.2-0.3,0.4-0.7,0.5-1.2
			c0.1-0.4,0.2-0.8,0.2-1.2c0-0.6-0.1-1.1-0.4-1.4c-0.3-0.3-0.6-0.5-1.1-0.5c-0.4,0-0.7,0.1-1,0.3s-0.6,0.5-0.8,0.9
			c-0.2,0.3-0.4,0.7-0.5,1.2c-0.1,0.4-0.2,0.8-0.2,1.2c0,0.6,0.1,1.1,0.4,1.4C124.8,40.8,125.1,40.9,125.6,40.9z"/>
	</g>
</g>
</svg>
