<?xml version="1.0" encoding="utf-8"?>
<!-- Generator: Adobe Illustrator 28.2.0, SVG Export Plug-In . SVG Version: 6.00 Build 0)  -->
<svg version="1.1" id="Calque_1" xmlns="http://www.w3.org/2000/svg" xmlns:xlink="http://www.w3.org/1999/xlink" x="0px" y="0px"
	 viewBox="0 0 91 24" style="enable-background:new 0 0 91 24;" xml:space="preserve">
<style type="text/css">
	.st0{fill-rule:evenodd;clip-rule:evenodd;fill:#9592AD;}
</style>
<path id="base_1" class="st0" d="M24.1,12c0,6.6-5.4,12-12.1,12C5.7,24,0.5,19.2,0,13h15.9v-2H0C0.5,4.8,5.7,0,12,0
	C18.7,0,24.1,5.4,24.1,12z M68.8,21.8c4.2,0,6.9-2.2,6.9-5.6c0-3.1-2.1-4.6-5.2-5.1l-2.8-0.5c-2.1-0.4-3.5-1.3-3.5-3.3
	c0-2.1,1.6-3.6,4.6-3.6c2.9,0,4.4,1.5,4.6,3.5h2.1C75.2,4.5,73.1,2,68.8,2c-4.3,0-6.6,2.4-6.6,5.4c0,3.2,2.1,4.6,5.1,5.1l2.8,0.4
	c2.3,0.4,3.6,1.4,3.6,3.4c0,2.4-1.9,3.9-4.9,3.9c-3,0-4.9-1.5-5.1-3.9h-2.1C61.8,19.4,64.3,21.8,68.8,21.8z M38,21.4h-7.6v-19h7.3
	c3.2,0,5.5,1.9,5.5,4.9c0,2.2-1.2,3.7-3.3,4.1v0.1c2.4,0.5,3.9,2.1,3.9,4.6C43.8,19.4,41.4,21.4,38,21.4z M37.4,10.8
	c2.3,0,3.7-1.2,3.7-3.2V7.3c0-1.9-1.4-3.2-3.7-3.2h-5v6.6H37.4z M37.7,19.7c2.5,0,4.1-1.4,4.1-3.5V16c0-2.2-1.6-3.5-4.1-3.5h-5.2
	v7.3H37.7z M60.2,21.4H58l-1.6-5.2h-7.6l-1.6,5.2h-2.1l6.3-19h2.5L60.2,21.4z M52.7,4.5h-0.2l-3.2,10.1h6.5L52.7,4.5z M78.7,21.4
	v-19H91v1.8H80.8v6.5h9.4v1.7h-9.4v7.2H91v1.8H78.7z"/>
</svg>
