<svg width="91" height="24" viewBox="0 0 91 24" fill="none" xmlns="http://www.w3.org/2000/svg">
<path id="base 1" fill-rule="evenodd" clip-rule="evenodd" d="M24.0699 12C24.0699 18.6274 18.6723 24 12.014 24C5.69695 24 0.514677 19.1641 0 13.0087H15.9352V10.9913H0C0.514677 4.83591 5.69695 0 12.014 0C18.6723 0 24.0699 5.37257 24.0699 12ZM68.7658 21.826C72.9433 21.826 75.6831 19.581 75.6831 16.2C75.6831 13.0625 73.6214 11.5749 70.502 11.061L67.7351 10.6012C65.6193 10.2496 64.2086 9.32994 64.2086 7.30137C64.2086 5.24575 65.7821 3.677 68.7658 3.677C71.6684 3.677 73.1603 5.13757 73.323 7.22023H75.4119C75.2491 4.46138 73.1332 2.00004 68.7929 2.00004C64.507 2.00004 62.1471 4.40727 62.1471 7.38251C62.1471 10.5471 64.29 12.0077 67.2197 12.4945L70.0138 12.9273C72.3465 13.333 73.6485 14.2797 73.6485 16.2812C73.6485 18.6343 71.7227 20.149 68.7929 20.149C65.7549 20.149 63.856 18.6884 63.6932 16.2H61.6317C61.7945 19.4458 64.29 21.826 68.7658 21.826ZM37.9693 21.4473H30.3739V2.40576H37.6981C40.9262 2.40576 43.1775 4.2991 43.1775 7.32842C43.1775 9.51927 41.9298 10.9798 39.9225 11.4667V11.5478C42.3095 12.0077 43.7743 13.6305 43.7743 16.173C43.7743 19.4458 41.3602 21.4473 37.9693 21.4473ZM37.4268 10.7635C39.7327 10.7635 41.1432 9.51927 41.1432 7.57185V7.30137C41.1432 5.35394 39.7327 4.13679 37.4268 4.13679H32.4085V10.7635H37.4268ZM37.6709 19.7162C40.1938 19.7162 41.7399 18.3368 41.7399 16.2271V15.9566C41.7399 13.7657 40.1667 12.4404 37.6438 12.4404H32.4085V19.7162H37.6709ZM60.2035 21.4473H58.0333L56.4058 16.2812H48.8103L47.1828 21.4473H45.1211L51.3874 2.40576H53.8558L60.2035 21.4473ZM52.7166 4.48841H52.5538L49.3528 14.5772H55.8904L52.7166 4.48841ZM78.7388 21.4473V2.40576H91V4.16385H80.7734V10.7094H90.1862V12.4404H80.7734V19.6892H91V21.4473H78.7388Z" fill="white"/>
</svg>
