<?xml version="1.0" encoding="UTF-8"?><svg id="Calque_1" xmlns="http://www.w3.org/2000/svg" xmlns:xlink="http://www.w3.org/1999/xlink" viewBox="0 0 154 30"><defs><style>.cls-1{fill:url(#Dégradé_sans_nom);}.cls-1,.cls-2,.cls-3,.cls-4{stroke-width:0px;}.cls-2{fill:url(#Dégradé_sans_nom_2);}.cls-3{fill:url(#Dégradé_sans_nom_3);}.cls-4{fill:#fff;}</style><linearGradient id="Dégradé_sans_nom" x1="25.66" y1="-4.15" x2="2.68" y2="33.19" gradientTransform="translate(0 34) scale(1 -1)" gradientUnits="userSpaceOnUse"><stop offset=".33" stop-color="#3fb0ff"/><stop offset=".72" stop-color="#9236ea"/><stop offset="1" stop-color="#f29a6b"/></linearGradient><linearGradient id="Dégradé_sans_nom_2" x1="27.87" y1="-2.8" x2="4.89" y2="34.55" gradientTransform="translate(0 34) scale(1 -1)" gradientUnits="userSpaceOnUse"><stop offset=".33" stop-color="#3fb0ff"/><stop offset=".72" stop-color="#9236ea"/><stop offset="1" stop-color="#f29a6b"/></linearGradient><linearGradient id="Dégradé_sans_nom_3" x1="30.07" y1="-1.44" x2="7.1" y2="35.91" gradientTransform="translate(0 34) scale(1 -1)" gradientUnits="userSpaceOnUse"><stop offset=".33" stop-color="#3fb0ff"/><stop offset=".72" stop-color="#9236ea"/><stop offset="1" stop-color="#f29a6b"/></linearGradient></defs><path class="cls-4" d="M53.89,17.76c0,.5-.1.97-.29,1.4-.19.43-.45.81-.78,1.13-.33.32-.71.57-1.16.76-.45.19-.93.28-1.42.28h-8.65v-1.79h8.65c.25,0,.48-.05.7-.14.23-.09.42-.22.59-.38.17-.16.3-.35.39-.57.19-.44.19-.94,0-1.39-.19-.43-.54-.77-.98-.95-.22-.09-.46-.14-.7-.14h-8.65v-1.79h6.82c.25,0,.48-.05.7-.14.23-.09.42-.22.59-.38.17-.16.3-.35.39-.57.19-.44.19-.94,0-1.39-.19-.44-.54-.78-.98-.96-.22-.09-.46-.14-.7-.14h-7.73v10.72h-1.83v-12.5h9.56c.5,0,.97.1,1.42.29.43.18.83.44,1.16.77.33.32.59.7.78,1.13.2.44.29.9.29,1.39,0,.38-.06.74-.17,1.07-.11.33-.26.64-.45.92.36.12.68.29.98.51.3.22.56.48.78.77.22.29.39.61.51.97.12.35.19.72.19,1.11M69.24,21.33h-13.21v-12.5h13.21v1.79h-11.38v8.93h11.38v1.79ZM67.69,15.98h-8.92v-1.79h8.92v1.79ZM86.56,15.08c0,.87-.14,1.68-.43,2.44-.26.74-.67,1.41-1.19,1.99-.52.57-1.16,1.02-1.86,1.33-.72.33-1.52.49-2.4.49h-6.44v-1.79h6.44c.63,0,1.19-.12,1.69-.35.5-.23.93-.55,1.27-.95.35-.41.62-.88.8-1.42.19-.55.28-1.13.29-1.74,0-.62-.09-1.19-.29-1.74-.17-.52-.45-1-.8-1.41-.35-.41-.78-.74-1.27-.96-.5-.24-1.06-.36-1.69-.36h-7.35v10.72h-1.83v-12.5h9.18c.88,0,1.68.17,2.4.5.71.31,1.34.77,1.86,1.34.53.58.93,1.25,1.19,1.99.29.78.43,1.6.43,2.42M103.64,21.33h-2.47l-3.83-3.58h-5.59v-1.76h7.33c.38,0,.74-.07,1.07-.21.33-.15.62-.34.86-.58.52-.5.81-1.19.8-1.91,0-.37-.07-.72-.21-1.05-.14-.32-.34-.61-.59-.84-.25-.25-.54-.44-.86-.58-.34-.14-.7-.21-1.07-.21h-8.36v10.72h-1.83v-12.5h10.18c.63,0,1.22.12,1.77.36.54.22,1.03.55,1.44.96.42.4.74.87.98,1.41.24.54.36,1.12.36,1.74,0,.56-.1,1.09-.29,1.59-.19.49-.47.94-.81,1.33-.34.39-.75.72-1.22.98-.47.26-.98.43-1.5.51l3.83,3.63ZM121.23,15.08c0,.83-.13,1.66-.42,2.44-.26.74-.67,1.41-1.19,1.99-.51.57-1.14,1.02-1.84,1.33-.72.33-1.52.49-2.4.49h-4.25c-.88,0-1.69-.16-2.41-.49-.71-.31-1.34-.77-1.86-1.33-.52-.58-.92-1.25-1.18-1.99-.28-.78-.43-1.61-.42-2.44,0-.86.14-1.67.42-2.42.26-.73.66-1.41,1.18-1.99.52-.57,1.16-1.03,1.86-1.34.72-.33,1.53-.5,2.41-.5h4.25c.88,0,1.68.17,2.4.5.7.31,1.33.77,1.84,1.34.53.58.93,1.25,1.19,1.99.28.78.42,1.6.42,2.42M119.4,15.08c0-.62-.09-1.19-.28-1.74-.17-.52-.44-1-.8-1.41-.35-.41-.78-.74-1.26-.96-.49-.24-1.05-.36-1.68-.36h-4.25c-.63,0-1.2.12-1.7.36-.49.22-.92.55-1.27.96-.35.42-.62.9-.8,1.41-.19.56-.28,1.15-.28,1.74,0,.62.09,1.2.28,1.74.19.54.46,1.01.8,1.42.35.4.77.72,1.27.95.5.23,1.07.35,1.7.35h4.25c.63,0,1.19-.12,1.68-.35.48-.22.92-.55,1.26-.95.35-.41.62-.88.8-1.42.19-.56.28-1.15.28-1.74M136.93,21.33h-8.22c-.89,0-1.69-.16-2.41-.49-.71-.31-1.34-.77-1.86-1.33-.52-.58-.92-1.25-1.18-1.99-.28-.78-.42-1.61-.42-2.44,0-.86.14-1.67.42-2.42.26-.73.66-1.41,1.18-1.99.52-.57,1.16-1.03,1.86-1.34.72-.33,1.53-.5,2.41-.5h8.22v1.79h-8.22c-.63,0-1.2.12-1.7.36-.49.22-.92.55-1.27.96-.35.42-.62.9-.8,1.41-.19.56-.28,1.15-.28,1.74,0,.62.09,1.2.28,1.74.19.54.46,1.01.8,1.42.35.4.78.72,1.27.95.5.23,1.07.35,1.7.35h8.22v1.79ZM154,21.33h-2.46l-6.52-6.42-4.04,2.85v3.58h-1.83v-12.5h1.83v6.97l10.01-6.97h2.66l-7.24,5.09,7.59,7.41Z"/><path class="cls-1" d="M2.78,18.26l-2.78,4.08.18,1.51,3.62,2.8s3.92,3.05,6.04,3.35c.7.1,7.34-4.99,11.75-7.26,3.58-1.84,5.66-2.55,5.66-2.55l4.58.88-8.73-8.19s-6.29,3.82-7.8,5.37c-1.51,1.55-5.47,4.34-5.47,4.34l-4.28-1.28-2.77-3.07h0Z"/><path class="cls-2" d="M5.86,10.85l-2.63,3.85,2.55,2.95,3.92,1.19,6.42-5.35,3.77-2.14,2.64-1.16-4.03-3.24s-5.03.31-6.86,2.54c0,0-3.52,3.35-4.09,2.91l-1.7-1.55h0Z"/><path class="cls-3" d="M12.19,0l-5.94,7.88s1.09,1.61,1.7,1.27c.68-.38,3.2-2.95,4.32-3.47,2.25-1.05,1.25-.73,3.84-1.4l1.84.32L12.19,0Z"/></svg>