<?xml version="1.0" encoding="UTF-8"?><svg id="Calque_1" xmlns="http://www.w3.org/2000/svg" viewBox="0 0 89.44 46.58"><defs><style>.cls-1{fill:#54516c;}.cls-1,.cls-2,.cls-3{stroke-width:0px;}.cls-2{fill:#9a57fe;}.cls-3{fill:#fff;}</style></defs><g id="Property_1_Variant2"><g id="EigenDA"><path class="cls-3" d="M10.03,23.83v2.11H2.21v5.45h7.06v2.06H2.21v5.45h7.82v2.11H0v-17.18h10.03Z"/><path class="cls-3" d="M15.48,25.2c0,.43-.15.8-.46,1.1-.3.3-.67.46-1.1.46s-.8-.15-1.1-.46c-.3-.3-.46-.67-.46-1.1s.15-.8.46-1.1c.3-.3.67-.46,1.1-.46s.8.15,1.1.46c.3.3.46.67.46,1.1ZM15.02,29.26v11.76h-2.21v-11.76h2.21Z"/><path class="cls-3" d="M23.06,39.38c1.09,0,1.98-.39,2.66-1.18.72-.78,1.08-1.81,1.08-3.07s-.36-2.25-1.08-3.05c-.7-.8-1.59-1.2-2.66-1.2s-1.94.4-2.66,1.2c-.72.8-1.08,1.82-1.08,3.05s.36,2.26,1.08,3.05c.72.8,1.61,1.2,2.66,1.2ZM22.99,46.58c-.66,0-1.27-.09-1.85-.26-.58-.16-1.1-.39-1.58-.7-.46-.3-.86-.66-1.2-1.08-.34-.42-.59-.88-.77-1.39l2.09-.86c.24.69.66,1.24,1.25,1.66.59.42,1.28.62,2.06.62,1.2,0,2.14-.36,2.81-1.08.67-.72,1.01-1.71,1.01-2.98v-1.13h-.1c-.42.62-.98,1.12-1.7,1.49-.7.35-1.47.53-2.3.53-1.54,0-2.86-.6-3.96-1.8-1.09-1.23-1.63-2.72-1.63-4.46s.54-3.22,1.63-4.44c1.1-1.22,2.42-1.82,3.96-1.82.83,0,1.6.18,2.3.55.72.35,1.29.84,1.7,1.46h.1v-1.63h2.11v11.26c0,1.89-.54,3.37-1.61,4.44s-2.53,1.63-4.32,1.63Z"/><path class="cls-3" d="M36.77,41.4c-1.73,0-3.15-.59-4.27-1.78-1.12-1.18-1.68-2.68-1.68-4.49s.54-3.28,1.63-4.46c1.09-1.2,2.48-1.8,4.18-1.8s3.13.57,4.15,1.7c1.04,1.12,1.56,2.7,1.56,4.73l-.02.24h-9.24c.03,1.15.42,2.08,1.15,2.78s1.62,1.06,2.64,1.06c1.41,0,2.51-.7,3.31-2.11l1.97.96c-.53.99-1.26,1.77-2.21,2.33-.93.56-1.98.84-3.17.84ZM33.24,33.72h6.74c-.06-.82-.4-1.49-1.01-2.02-.59-.54-1.39-.82-2.4-.82-.83,0-1.55.26-2.16.77-.59.51-.98,1.2-1.18,2.06Z"/><path class="cls-3" d="M44.36,29.26h2.11v1.63h.1c.34-.58.85-1.06,1.54-1.44.7-.38,1.43-.58,2.18-.58,1.44,0,2.54.42,3.31,1.25.78.82,1.18,1.98,1.18,3.5v7.39h-2.21v-7.25c-.05-1.92-1.02-2.88-2.9-2.88-.88,0-1.62.36-2.21,1.08-.59.7-.89,1.55-.89,2.54v6.5h-2.21v-11.76Z"/></g><g id="EigenDA_2"><path class="cls-2" d="M57.75,23.83h5.81c1.36,0,2.58.21,3.67.62s2.02,1.01,2.78,1.78c.77.75,1.35,1.66,1.75,2.71.42,1.06.62,2.22.62,3.48s-.21,2.45-.62,3.5c-.4,1.06-.98,1.96-1.75,2.71-.77.75-1.7,1.34-2.78,1.75s-2.31.62-3.67.62h-5.81v-17.18ZM63.41,37.94c.94,0,1.78-.13,2.5-.38.72-.27,1.32-.65,1.8-1.13.48-.48.84-1.06,1.08-1.73.24-.69.36-1.45.36-2.28s-.12-1.58-.36-2.26c-.24-.69-.6-1.27-1.08-1.75-.48-.48-1.08-.85-1.8-1.1-.72-.27-1.55-.41-2.5-.41h-2.42v11.04h2.42Z"/><path class="cls-2" d="M79.29,23.83h3.7l6.46,17.18h-3.58l-1.42-4.1h-6.62l-1.42,4.1h-3.58l6.46-17.18ZM83.39,33.94l-1.54-4.3-.62-2.09h-.19l-.62,2.09-1.54,4.3h4.51Z"/></g></g><path class="cls-1" d="M47.18,12.88c-1.14.94-2.48,1.56-4.1,1.56-2.66,0-4.7-1.56-4.7-4.04v-.04c0-1.78.96-3.04,2.72-3.84-.7-.96-.98-1.84-.98-2.8v-.04c0-1.9,1.52-3.68,4.24-3.68,2.38,0,3.94,1.54,3.94,3.52v.04c0,1.88-1.18,2.96-2.94,3.66l1.86,1.86c.46-.72.9-1.54,1.36-2.4l2.26,1.24c-.54.98-1.14,2.02-1.84,2.96l2.06,2.06-2.26,1.58-1.62-1.64ZM45.46,11.12l-2.68-2.72c-.94.48-1.3,1.14-1.3,1.84v.04c0,.98.82,1.64,1.96,1.64.7,0,1.38-.3,2.02-.8ZM45.62,3.74v-.04c0-.8-.54-1.3-1.32-1.3-.82,0-1.36.56-1.36,1.42v.04c0,.62.24,1.08.82,1.74,1.22-.46,1.86-.98,1.86-1.86Z"/></svg>