<svg width="347" height="130" viewBox="0 0 347 130" fill="none" xmlns="http://www.w3.org/2000/svg">
<g clip-path="url(#clip0_390_13373)">
<path d="M324.372 33.3829C319.567 33.3829 315.587 38.999 315.587 48.7985V53.5993C315.587 56.7615 315.587 60.3353 315.794 63.5057C316.097 67.689 317.021 69.5336 321.512 70.8594L321.208 73.2064C317.631 72.9017 314.36 72.9017 312.01 72.9017C309.66 72.9017 307.409 72.9017 303.834 73.2064L303.528 70.8594C307.312 69.3277 307.822 67.6972 308.129 63.5057C308.432 60.3437 308.432 56.7697 308.432 53.5993V51.0464C308.432 47.8845 308.432 44.6151 308.129 41.4447C307.822 37.2616 306.799 36.3392 303.117 35.6227V33.4817C307.815 31.2337 310.369 29.6032 313.946 26.3339L316.09 27.1491C315.783 30.4185 315.579 34.5028 315.48 37.0557L315.579 37.1545C318.34 30.4185 323.038 26.5316 327.842 26.5316C332.029 26.5316 334.387 28.8786 334.387 31.6371C334.387 34.3959 332.854 35.2112 330.71 35.2112C328.057 35.2112 326.829 33.3748 324.372 33.3748V33.3829Z" fill="#9592AD"/>
<path d="M282.896 26.5398C292.704 26.5398 300.165 33.7864 300.165 43.594C300.165 44.4092 300.165 45.1257 299.959 45.9409H268.482C268.275 47.168 268.275 48.2879 268.275 49.8196C268.275 60.3353 274.613 67.4831 282.789 67.4831C289.334 67.4831 293.314 65.2352 297.501 59.2154L299.959 60.7471C296.892 68.4055 290.86 74.7381 281.768 74.7381C268.992 74.7381 260.511 63.9175 260.511 51.4583C260.511 37.2614 270.22 26.548 282.888 26.548L282.896 26.5398ZM291.171 41.8566C291.074 34.9147 286.366 31.1347 280.645 31.1347C274.414 31.1347 270.426 35.8287 269.199 41.8566H291.171Z" fill="#9592AD"/>
<path d="M240.575 63.1933L247.316 47.3662C250.077 40.9346 250.483 38.5879 250.483 36.6443C250.483 34.5033 249.97 32.8647 246.905 31.2342L247.316 28.8872C250.284 29.1919 252.014 29.1919 254.264 29.1919C256.515 29.1919 257.941 29.1919 260.909 28.8872L261.212 31.2342C259.375 32.8647 258.245 34.7092 256.308 38.5879C254.777 41.6511 253.547 44.7146 252.32 47.4731L234.229 88.3177C232.282 92.707 230.345 95.8773 228.302 98.0184C226.561 99.7558 223.801 101.288 220.537 101.288C217.776 101.288 215.732 99.4511 215.732 96.9972C215.732 94.749 217.266 92.8139 219.613 92.8139C221.56 92.8139 222.267 93.3245 224.114 93.3245C226.258 93.3245 227.791 91.694 229.325 88.4249L236.684 72.4988L226.561 47.4813C225.441 44.624 224.107 40.844 222.474 37.1715C220.94 33.8034 220.223 32.881 217.776 31.2505L218.187 28.9038C221.155 29.1095 224.222 29.2085 226.464 29.2085C228.705 29.2085 230.552 29.1095 233.52 28.9038L233.823 31.2505C231.573 32.2717 230.759 33.7046 230.759 35.3351C230.759 37.6821 231.17 39.6254 234.237 47.2838L240.575 63.2099V63.1933Z" fill="#9592AD"/>
<path d="M188.238 34.0903C190.184 30.5165 195.294 26.7366 201.319 26.7366C206.33 26.7366 210.214 28.4742 212.661 32.0482C214.294 34.395 215.728 38.4796 215.728 43.0745V52.874C215.728 56.0362 215.728 59.0006 215.932 62.1628C216.138 65.5307 217.771 68.0836 221.043 69.6153L219.716 73.6996C212.661 73.395 210.007 70.3318 209.083 65.7366H208.877C206.116 71.9623 201.625 74.5149 197.025 74.5149C190.48 74.5149 186.392 70.2246 186.392 64.8144C186.392 60.0133 188.848 57.1561 192.83 54.6032C196.613 52.1493 203.355 49.7036 208.563 48.3778V43.371C208.563 40.2088 207.749 37.7549 206.422 36.0173C204.888 33.975 202.235 33.1597 199.984 33.1597C196.505 33.1597 193.645 34.5927 190.175 37.3431L188.23 34.074L188.238 34.0903ZM208.573 51.96C206.43 52.6762 204.582 53.4914 202.646 54.3067C195.698 57.2714 193.654 60.3346 193.654 63.085C193.654 65.8356 195.187 68.2895 198.764 68.2895C202.952 68.2895 208.573 64.6167 208.573 57.5676V51.9516V51.96Z" fill="#9592AD"/>
<path d="M149.309 51.8617C149.309 55.4355 149.408 60.9528 149.614 62.9951C150.125 68.0019 151.559 68.9159 156.158 68.9159C160.758 68.9159 163.618 68.9159 166.585 68.4053C170.261 67.6888 172.206 66.0583 173.739 63.7113C175.066 61.768 176.195 59.4211 177.522 55.4436L180.49 55.9542C179.979 62.4927 179.055 67.6972 177.935 73.4121C169.857 73.0002 160.865 72.9015 147.784 72.9015C142.773 72.9015 140.02 72.9015 136.031 73.2061L135.726 70.6535C139.814 69.023 140.531 66.7748 140.836 62.2786C141.141 58.9105 141.141 54.4143 141.141 50.8405V23.6823C141.141 20.1082 141.141 15.612 140.836 12.2439C140.531 7.74773 139.814 5.50793 135.726 3.86929L136.031 1.31641C140.02 1.62107 142.773 1.62107 145.13 1.62107C147.685 1.62107 150.447 1.62107 154.428 1.31641L154.733 3.86929C150.644 5.49977 149.927 7.74773 149.622 12.2439C149.317 15.612 149.317 20.1082 149.317 23.6823V51.8617H149.309Z" fill="#9592AD"/>
<path d="M210.686 108.53C210.686 111.693 210.686 115.266 210.892 118.437C211.196 122.62 211.816 124.259 215.59 125.79L215.284 128.137C211.709 127.833 209.458 127.833 207.108 127.833C204.758 127.833 202.51 127.833 198.932 128.137L198.627 125.79C202.411 124.259 202.921 122.628 203.227 118.437C203.531 115.274 203.531 111.701 203.531 108.53V97.7097C203.531 91.9949 200.053 88.108 194.638 88.108C187.582 88.108 183.189 92.9089 183.189 99.4392V108.53C183.189 111.693 183.189 115.266 183.395 118.437C183.7 122.62 184.319 124.259 188.093 125.79L187.788 128.137C184.211 127.833 181.961 127.833 179.612 127.833C177.263 127.833 175.013 127.833 171.436 128.137L171.131 125.79C174.914 124.259 175.425 122.628 175.73 118.437C176.035 115.274 176.035 111.701 176.035 108.53V105.977C176.035 102.815 176.035 99.5461 175.73 96.3758C175.425 92.1924 174.403 91.2703 170.719 90.5538V88.4127C175.417 86.1647 177.972 84.534 181.549 81.2649L183.692 82.0801C183.387 85.3493 183.181 88.108 183.082 90.6609L183.181 90.7597C185.942 85.5552 190.747 81.4708 196.88 81.4708C201.89 81.4708 206.077 83.8178 208.535 87.8034C209.861 90.1504 210.678 92.703 210.678 96.7876V108.53H210.686Z" fill="#9592AD"/>
<path d="M150.813 81.4701C160.622 81.4701 168.089 88.7169 168.089 98.5245C168.089 99.3398 168.089 100.056 167.883 100.871H136.406C136.2 102.098 136.2 103.218 136.2 104.75C136.2 115.266 142.538 122.413 150.715 122.413C157.259 122.413 161.24 120.165 165.427 114.146L167.883 115.677C164.817 123.336 158.784 129.668 149.692 129.668C136.917 129.668 128.436 118.848 128.436 106.389C128.436 92.1919 138.145 81.4785 150.813 81.4785V81.4701ZM159.089 96.7869C158.99 89.845 154.284 86.0653 148.563 86.0653C142.332 86.0653 138.343 90.759 137.115 96.7869H159.089Z" fill="#9592AD"/>
<path d="M117.574 61.9701C120.03 64.7289 120.945 68.1957 120.945 71.9754C120.945 81.9808 113.585 89.1286 104.592 89.1286C99.9931 89.1286 96.6222 87.8028 93.6549 85.3487C90.4899 87.8028 89.7726 90.1495 89.7726 92.4965C89.7726 95.4612 92.1219 97.3963 96.7209 97.602L109.084 98.0138C119 98.3185 123.797 104.239 123.797 111.898C123.797 121.088 114.697 129.15 100.496 129.15C88.9485 129.15 83.1211 124.044 83.1211 117.102C83.1211 112.301 85.4701 108.521 91.2975 104.544C86.9044 103.012 83.9371 99.6443 83.9371 94.8435C83.9371 90.8578 85.7753 86.7735 90.9925 82.796C88.6435 79.6338 87.5145 76.3647 87.5145 71.9754C87.5145 62.3737 95.1797 54.8223 104.172 54.8223C110.098 54.8223 111.631 56.8646 117.459 56.8646C120.014 56.8646 123.591 56.7658 127.168 56.453L127.984 58.1904L127.168 61.9701H117.558H117.574ZM107.255 105.771C102.655 105.771 98.9793 105.771 94.784 105.466C91.2069 108.834 89.7726 112.202 89.7726 115.373C89.7726 119.762 93.5559 123.443 102.136 123.443C113.89 123.443 118.184 118.436 118.184 113.643C118.184 108.851 114.912 105.779 107.247 105.779L107.255 105.771ZM95.4022 71.3579C95.4022 80.3419 98.8806 85.044 104.601 85.044C109.917 85.044 113.189 81.4702 113.189 72.486C113.189 64.0124 109.612 58.9069 103.991 58.9069C98.9793 58.9069 95.4022 62.7853 95.4022 71.3661V71.3579Z" fill="#9592AD"/>
<path d="M71.224 69.2175C72.6583 65.3388 72.9632 63.3955 72.9632 62.3743C72.9632 61.7647 72.6583 61.4519 72.1472 61.4519C71.125 61.4519 69.081 63.0824 64.3829 68.5997L62.4378 66.8621C68.2649 58.3887 72.4521 54.51 75.8233 54.51C77.9662 54.51 79.9115 56.4533 79.9115 59.5168C79.9115 62.7859 78.2795 67.2739 76.7465 71.4654L70.1031 90.2491C68.9822 93.3123 68.776 94.1275 68.776 94.5394C68.776 95.0499 69.1881 95.5605 69.7982 95.5605C70.9191 95.5605 72.9632 94.4406 77.9746 87.2928L80.0187 88.7255C74.6034 99.2415 69.897 102.099 66.3199 102.099C63.9709 102.099 61.9268 100.057 61.9268 97.4051C61.9268 95.0581 62.6438 92.8102 65.0918 86.1729L71.224 69.2256V69.2175ZM79.0955 26.4375C82.1615 26.4375 84.5108 28.7845 84.5108 31.8479C84.5108 34.9111 82.1615 37.2581 79.0955 37.2581C76.0292 37.2581 73.6802 34.9111 73.6802 31.8479C73.6802 28.7845 76.0292 26.4375 79.0955 26.4375Z" fill="#9592AD"/>
<path d="M13.5317 101.175L13.2266 98.622C17.3147 96.9916 18.032 94.7433 18.3369 90.2471C18.6418 86.8793 18.6418 82.3831 18.6418 78.8091V51.6589C18.6418 48.0852 18.6418 43.589 18.3369 40.2209C18.032 35.7247 17.3147 33.4849 13.2266 31.8462L13.5317 29.2933C17.5209 29.598 20.2738 29.598 22.829 29.598H41.6298C45.8167 29.598 48.9901 29.598 52.9712 29.2933C53.6882 34.4976 54.0921 38.2775 54.4054 43.8936L51.4381 44.4042C50.1111 40.6243 48.982 38.4835 47.4487 36.8446C45.9157 35.2059 43.5667 34.3907 41.6213 34.086C39.0664 33.6742 36.8162 33.5754 32.8351 33.5754C28.03 33.5754 27.4199 34.3907 27.115 38.475C26.81 41.6372 26.81 45.3182 26.81 48.991V62.0595C30.2884 62.0595 37.4426 61.8536 40.7066 61.549C45.3059 61.0384 46.7399 59.4079 48.2731 54.7058L50.7293 55.2164C50.4241 59.202 50.4241 61.4421 50.4241 63.9947C50.4241 66.5476 50.4241 68.8945 50.7293 72.8801L48.2731 73.3907C46.7399 68.6968 45.3059 67.1651 40.7066 66.5476C37.4344 66.1357 30.1812 66.037 26.81 66.037V79.822C26.81 83.3958 27.016 88.9132 27.115 90.9555C27.3211 95.9622 29.06 96.8762 33.6593 96.8762C38.2586 96.8762 41.7369 96.7775 44.4899 96.3656C48.067 95.8551 49.699 94.4223 51.232 92.2813C52.4601 90.3377 53.4822 88.1967 54.8091 84.417L57.5704 84.9276C57.0593 91.0542 56.2433 96.061 55.1142 101.364C47.6549 100.952 38.3576 100.854 25.2686 100.854C20.2573 100.854 17.5043 100.854 13.5151 101.158L13.5317 101.175Z" fill="#9592AD"/>
</g>
<defs>
<clipPath id="clip0_390_13373">
<rect width="346" height="130" fill="white" transform="translate(0.807129 -0.00756836)"/>
</clipPath>
</defs>
</svg>
