<?xml version="1.0" encoding="utf-8"?>
<!-- Generator: Adobe Illustrator 28.2.0, SVG Export Plug-In . SVG Version: 6.00 Build 0)  -->
<svg version="1.1" id="Calque_1" xmlns="http://www.w3.org/2000/svg" xmlns:xlink="http://www.w3.org/1999/xlink" x="0px" y="0px"
	 viewBox="0 0 89.4 46.6" style="enable-background:new 0 0 89.4 46.6;" xml:space="preserve">
<style type="text/css">
	.st0{fill:#9592AD;}
	.st1{fill:#54516C;}
</style>
<g id="Property_1_Variant2">
	<g id="EigenDA">
		<path class="st0" d="M10,23.8v2.1H2.2v5.4h7.1v2.1H2.2v5.5H10V41H0V23.8C0,23.8,10,23.8,10,23.8z"/>
		<path class="st0" d="M15.5,25.2c0,0.4-0.1,0.8-0.5,1.1c-0.3,0.3-0.7,0.5-1.1,0.5s-0.8-0.1-1.1-0.5c-0.3-0.3-0.5-0.7-0.5-1.1
			s0.1-0.8,0.5-1.1c0.3-0.3,0.7-0.5,1.1-0.5s0.8,0.1,1.1,0.5C15.3,24.4,15.5,24.8,15.5,25.2z M15,29.3V41h-2.2V29.3H15z"/>
		<path class="st0" d="M23.1,39.4c1.1,0,2-0.4,2.7-1.2c0.7-0.8,1.1-1.8,1.1-3.1s-0.4-2.2-1.1-3c-0.7-0.8-1.6-1.2-2.7-1.2
			s-1.9,0.4-2.7,1.2c-0.7,0.8-1.1,1.8-1.1,3s0.4,2.3,1.1,3C21.1,39,22,39.4,23.1,39.4z M23,46.6c-0.7,0-1.3-0.1-1.9-0.3
			c-0.6-0.2-1.1-0.4-1.6-0.7c-0.5-0.3-0.9-0.7-1.2-1.1c-0.3-0.4-0.6-0.9-0.8-1.4l2.1-0.9c0.2,0.7,0.7,1.2,1.2,1.7s1.3,0.6,2.1,0.6
			c1.2,0,2.1-0.4,2.8-1.1s1-1.7,1-3v-1.1h-0.1c-0.4,0.6-1,1.1-1.7,1.5c-0.7,0.3-1.5,0.5-2.3,0.5c-1.5,0-2.9-0.6-4-1.8
			c-1.1-1.2-1.6-2.7-1.6-4.5s0.5-3.2,1.6-4.4c1.1-1.2,2.4-1.8,4-1.8c0.8,0,1.6,0.2,2.3,0.5c0.7,0.4,1.3,0.8,1.7,1.5h0.1v-1.6h2.1
			v11.3c0,1.9-0.5,3.4-1.6,4.4S24.8,46.6,23,46.6L23,46.6z"/>
		<path class="st0" d="M36.8,41.4c-1.7,0-3.2-0.6-4.3-1.8c-1.1-1.2-1.7-2.7-1.7-4.5s0.5-3.3,1.6-4.5c1.1-1.2,2.5-1.8,4.2-1.8
			s3.1,0.6,4.2,1.7c1,1.1,1.6,2.7,1.6,4.7l0,0.2h-9.2c0,1.2,0.4,2.1,1.2,2.8s1.6,1.1,2.6,1.1c1.4,0,2.5-0.7,3.3-2.1l2,1
			c-0.5,1-1.3,1.8-2.2,2.3C39,41.1,38,41.4,36.8,41.4z M33.2,33.7H40c-0.1-0.8-0.4-1.5-1-2c-0.6-0.5-1.4-0.8-2.4-0.8
			c-0.8,0-1.5,0.3-2.2,0.8C33.8,32.2,33.4,32.9,33.2,33.7L33.2,33.7z"/>
		<path class="st0" d="M44.4,29.3h2.1v1.6h0.1c0.3-0.6,0.8-1.1,1.5-1.4c0.7-0.4,1.4-0.6,2.2-0.6c1.4,0,2.5,0.4,3.3,1.2
			c0.8,0.8,1.2,2,1.2,3.5V41h-2.2v-7.2c0-1.9-1-2.9-2.9-2.9c-0.9,0-1.6,0.4-2.2,1.1c-0.6,0.7-0.9,1.6-0.9,2.5V41h-2.2L44.4,29.3
			L44.4,29.3z"/>
	</g>
	<g id="EigenDA_2">
		<path class="st0" d="M57.8,23.8h5.8c1.4,0,2.6,0.2,3.7,0.6s2,1,2.8,1.8c0.8,0.8,1.3,1.7,1.8,2.7c0.4,1.1,0.6,2.2,0.6,3.5
			c0,1.3-0.2,2.5-0.6,3.5c-0.4,1.1-1,2-1.8,2.7s-1.7,1.3-2.8,1.8S64.9,41,63.6,41h-5.8L57.8,23.8L57.8,23.8z M63.4,37.9
			c0.9,0,1.8-0.1,2.5-0.4c0.7-0.3,1.3-0.7,1.8-1.1s0.8-1.1,1.1-1.7c0.2-0.7,0.4-1.5,0.4-2.3s-0.1-1.6-0.4-2.3
			c-0.2-0.7-0.6-1.3-1.1-1.8s-1.1-0.9-1.8-1.1c-0.7-0.3-1.6-0.4-2.5-0.4H61v11C61,37.9,63.4,37.9,63.4,37.9z"/>
		<path class="st0" d="M79.3,23.8H83L89.4,41h-3.6l-1.4-4.1h-6.6L76.4,41h-3.6C72.8,41,79.3,23.8,79.3,23.8z M83.4,33.9l-1.5-4.3
			l-0.6-2.1H81l-0.6,2.1l-1.5,4.3C78.9,33.9,83.4,33.9,83.4,33.9z"/>
	</g>
</g>
<path class="st1" d="M47.2,12.9c-1.1,0.9-2.5,1.6-4.1,1.6c-2.7,0-4.7-1.6-4.7-4v0c0-1.8,1-3,2.7-3.8c-0.7-1-1-1.8-1-2.8v0
	c0-1.9,1.5-3.7,4.2-3.7c2.4,0,3.9,1.5,3.9,3.5v0c0,1.9-1.2,3-2.9,3.7l1.9,1.9c0.5-0.7,0.9-1.5,1.4-2.4l2.3,1.2c-0.5,1-1.1,2-1.8,3
	l2.1,2.1l-2.3,1.6C48.8,14.5,47.2,12.9,47.2,12.9z M45.5,11.1l-2.7-2.7c-0.9,0.5-1.3,1.1-1.3,1.8v0c0,1,0.8,1.6,2,1.6
	C44.1,11.9,44.8,11.6,45.5,11.1z M45.6,3.7L45.6,3.7c0-0.8-0.5-1.3-1.3-1.3c-0.8,0-1.4,0.6-1.4,1.4v0c0,0.6,0.2,1.1,0.8,1.7
	C45,5.1,45.6,4.6,45.6,3.7z"/>
</svg>
