<svg width="170" height="52" viewBox="0 0 170 52" fill="none" xmlns="http://www.w3.org/2000/svg">
<g id="dark-bg-etherfi-logo-colour-landscape 3" clip-path="url(#clip0_390_13459)">
<path id="Vector" d="M52.1582 28.7604L50.2236 21.2192C50.1681 20.9974 49.9894 20.8248 49.7676 20.7695L42.2942 18.9273C42.2386 18.9148 42.1771 18.9087 42.1217 18.9087C41.9429 18.8902 41.7582 18.9457 41.6226 19.0813L29.0106 31.6932L27.341 25.1746C27.2855 24.9529 27.107 24.7804 26.885 24.7248L20.4651 23.1415L33.0709 10.5357C33.1448 10.4618 33.1879 10.3693 33.2188 10.277C33.2742 10.1537 33.2927 10.012 33.2557 9.87646L31.3211 2.3352C31.2656 2.11339 31.087 1.94088 30.8653 1.88544L23.3917 0.0432473C23.2438 0.00628108 23.096 0.0309255 22.9666 0.0925358H22.9604C22.9234 0.111025 22.8926 0.135669 22.8557 0.160313C22.8248 0.184957 22.7817 0.197279 22.7571 0.228078L1.24232 21.7305C1.24232 21.7305 1.20534 21.7922 1.18069 21.823C1.04516 21.9832 0.995863 22.1927 1.05747 22.396L3.14612 29.6846C3.20767 29.8941 3.36794 30.0543 3.57123 30.1097L10.5703 32.1183L12.5789 39.1112C12.6404 39.3207 12.8006 39.481 13.004 39.5363L20.0277 41.5511L22.0425 48.5748C22.104 48.7842 22.2642 48.9444 22.4675 48.9999L29.787 51.1007C29.8424 51.1193 29.904 51.1255 29.9595 51.1255C29.9718 51.1255 29.9842 51.1193 30.0026 51.1193C30.0026 51.1193 30.0088 51.1193 30.0149 51.1193C30.1751 51.1193 30.3353 51.0577 30.4586 50.9345L51.9795 29.4136C52.0534 29.3396 52.0965 29.2472 52.1273 29.1547C52.1828 29.0316 52.2013 28.8898 52.1643 28.7543L52.1582 28.7604ZM42.5097 37.1211L40.9386 30.9908L44.4197 27.5159L50.4023 29.2349L42.5159 37.1273L42.5097 37.1211ZM30.3046 49.3264L28.7333 43.1961L35.0301 36.8993L41.0126 38.6183L30.3046 49.3264ZM35.1596 35.0078L33.6562 29.7709L39.0596 31.1017L35.1596 35.0018V35.0078ZM39.9159 32.0135L41.296 37.3922L36.0405 35.8827L39.9159 32.0074V32.0135ZM40.0946 30.0728L33.9704 28.5633L41.8382 20.6955L43.5387 26.6287L40.0946 30.0728ZM32.4486 30.0789L34.1491 36.0121L27.8831 42.278L21.759 40.7685L32.4486 30.0789ZM49.1084 21.8785L50.6794 28.0088L44.7401 26.3021L43.0396 20.3813L49.1084 21.8785ZM20.8348 39.8567L19.2638 33.7263L21.531 31.4591L27.5136 33.1781L20.8348 39.8567ZM21.6604 29.5676L20.157 24.3306L25.5603 25.6614L21.6604 29.5614V29.5676ZM27.7969 31.9582L22.5414 30.4486L26.4168 26.5733L27.7969 31.952V31.9582ZM20.6561 30.578L18.4197 32.8145L12.2955 31.305L18.9556 24.6448L20.6561 30.578ZM13.6077 11.1272L15.3083 17.0604L8.98697 23.3817L2.86271 21.8722L13.6077 11.1272ZM22.942 1.79303L24.6424 7.72613L21.2538 11.1149L15.1296 9.60539L22.942 1.79303ZM23.6689 18.1633L22.0978 12.0391L25.5235 8.61342L31.5059 10.3262L23.6689 18.1633ZM16.3187 16.0561L14.8154 10.8191L20.2187 12.15L16.3187 16.05V16.0561ZM21.0751 13.0618L22.4552 18.4405L17.2059 16.931L21.0812 13.0557L21.0751 13.0618ZM16.1954 17.9415L22.178 19.6542L11.4144 30.4177L9.8433 24.2935L16.1954 17.9415ZM30.2121 2.98829L31.7833 9.11861L25.8438 7.41193L24.1433 1.49112L30.2121 2.98829ZM2.55468 23.086L7.95794 24.4168L4.05802 28.3169L2.55468 23.0798V23.086ZM4.93897 29.204L8.81439 25.3286L10.1944 30.7073L4.94519 29.1978L4.93897 29.204ZM13.6817 38.4396L11.9813 32.5188L18.05 34.0159L19.621 40.1463L13.6817 38.4396ZM21.4509 41.9823L26.8543 43.3131L22.9543 47.2131L21.4509 41.9762V41.9823ZM23.8354 48.1004L27.7106 44.225L29.0907 49.6037L23.8354 48.0942V48.1004Z" fill="url(#paint0_linear_390_13459)"/>
<path id="Vector_2" d="M70.5374 37.8916C68.5597 37.8916 66.8407 37.4973 65.362 36.7087C63.8895 35.92 62.7434 34.848 61.9363 33.4802C61.123 32.1186 60.7227 30.5476 60.7227 28.7731C60.7227 26.9987 61.1169 25.4275 61.9056 24.066C62.6943 22.7043 63.7786 21.6261 65.1648 20.8375C66.5511 20.0488 68.1283 19.6545 69.9089 19.6545C71.6895 19.6545 73.1805 20.0366 74.536 20.8006C75.8913 21.5645 76.9511 22.6366 77.7275 24.0105C78.5037 25.3845 78.8919 27.0172 78.8919 28.9024C78.8919 29.0565 78.8919 29.2537 78.8735 29.4878C78.8611 29.7218 78.8488 29.9252 78.8241 30.1039H64.0189V27.3437H76.6308L74.9672 28.2062C74.9919 27.2082 74.7825 26.3148 74.3511 25.5261C73.9198 24.7375 73.3222 24.1275 72.5706 23.6963C71.8189 23.265 70.9256 23.0494 69.9089 23.0494C68.8923 23.0494 68.0174 23.265 67.2289 23.6963C66.4402 24.1275 65.8364 24.7438 65.4175 25.5446C64.9984 26.3455 64.7828 27.2636 64.7828 28.3048V28.9703C64.7828 30.0361 65.0231 30.9788 65.4975 31.7982C65.9719 32.6177 66.6559 33.2584 67.5431 33.7081C68.4303 34.1641 69.4591 34.392 70.636 34.392C71.6341 34.392 72.5336 34.2257 73.3283 33.893C74.1293 33.5603 74.8378 33.0736 75.4601 32.4266L77.7213 35.0205C76.9019 35.9509 75.8854 36.6656 74.6777 37.1522C73.4701 37.639 72.0899 37.8855 70.5374 37.8855V37.8916Z" fill="white"/>
<path id="Vector_3" d="M78.853 23.351V20.024H90.6948V23.351H78.853ZM87.9038 37.8914C85.9506 37.8914 84.4411 37.3862 83.3815 36.3757C82.3155 35.3652 81.7857 33.8866 81.7857 31.9335V15.9637H85.9137V31.798C85.9137 32.642 86.1355 33.2951 86.5791 33.7634C87.0228 34.2317 87.645 34.4596 88.4397 34.4596C89.3515 34.4596 90.1033 34.2132 90.7009 33.7264L91.8961 36.6899C91.385 37.0904 90.7748 37.3862 90.0663 37.5895C89.3577 37.7867 88.6369 37.8914 87.9038 37.8914Z" fill="white"/>
<path id="Vector_4" d="M103.407 19.6606C104.849 19.6606 106.118 19.9377 107.215 20.4923C108.311 21.0468 109.186 21.9032 109.846 23.0554C110.498 24.2075 110.825 25.6862 110.825 27.479V37.6574H106.667V28.009C106.667 26.4317 106.303 25.2611 105.57 24.4847C104.836 23.7084 103.796 23.3203 102.439 23.3203C101.467 23.3203 100.598 23.5173 99.8464 23.918C99.0941 24.3184 98.509 24.9098 98.1024 25.6985C97.6899 26.4871 97.4866 27.479 97.4866 28.6743V37.6574H93.3579V12.9695H97.4866V24.7126L96.6236 23.2156C97.2215 22.0818 98.1144 21.207 99.3043 20.5848C100.493 19.9625 101.86 19.6544 103.413 19.6544L103.407 19.6606Z" fill="white"/>
<path id="Vector_5" d="M122.141 37.8916C120.165 37.8916 118.446 37.4973 116.966 36.7087C115.494 35.92 114.347 34.848 113.541 33.4802C112.727 32.1186 112.327 30.5476 112.327 28.7731C112.327 26.9987 112.721 25.4275 113.51 24.066C114.299 22.7043 115.384 21.6261 116.769 20.8375C118.155 20.0488 119.733 19.6545 121.514 19.6545C123.294 19.6545 124.785 20.0366 126.141 20.8006C127.496 21.5645 128.556 22.6366 129.332 24.0105C130.108 25.3845 130.497 27.0172 130.497 28.9024C130.497 29.0565 130.497 29.2537 130.477 29.4878C130.466 29.7218 130.453 29.9252 130.429 30.1039H115.623V27.3437H128.236L126.571 28.2062C126.597 27.2082 126.387 26.3148 125.955 25.5261C125.524 24.7375 124.927 24.1275 124.174 23.6963C123.423 23.265 122.531 23.0494 121.514 23.0494C120.497 23.0494 119.622 23.265 118.833 23.6963C118.045 24.1275 117.441 24.7438 117.023 25.5446C116.603 26.3455 116.387 27.2636 116.387 28.3048V28.9703C116.387 30.0361 116.628 30.9788 117.102 31.7982C117.576 32.6177 118.26 33.2584 119.148 33.7081C120.035 34.1641 121.064 34.392 122.24 34.392C123.239 34.392 124.138 34.2257 124.933 33.893C125.734 33.5603 126.443 33.0736 127.064 32.4266L129.326 35.0205C128.506 35.9509 127.49 36.6656 126.282 37.1522C125.075 37.639 123.695 37.8855 122.141 37.8855V37.8916Z" fill="white"/>
<path id="Vector_6" d="M132.352 37.6572V19.8884H136.313V24.7803L135.845 23.351C136.357 22.1558 137.188 21.2378 138.341 20.6094C139.493 19.9747 140.903 19.6605 142.567 19.6605V23.6221C142.413 23.5975 142.26 23.5851 142.099 23.5728C141.944 23.5606 141.797 23.5543 141.668 23.5543C140.072 23.5543 138.808 24.0103 137.872 24.9159C136.942 25.8278 136.474 27.214 136.474 29.0748V37.6572H132.346H132.352Z" fill="white"/>
<path id="Vector_7" d="M150.385 23.3507V20.0237H162.226V23.3507H150.385ZM153.311 37.657V18.927C153.311 17.0417 153.859 15.5385 154.956 14.4171C156.052 13.2958 157.624 12.7351 159.663 12.7351C160.396 12.7351 161.087 12.8152 161.745 12.9693C162.398 13.1232 162.947 13.3696 163.392 13.7024L162.226 16.7953C161.938 16.5981 161.592 16.4317 161.198 16.2962C160.797 16.1607 160.39 16.0991 159.965 16.0991C159.103 16.0991 158.443 16.3394 158 16.8138C157.556 17.2882 157.334 17.9967 157.334 18.927V20.991L157.433 22.8209V37.657H153.305H153.311ZM167.253 16.9616C166.477 16.9616 165.843 16.7151 165.345 16.2284C164.845 15.7418 164.598 15.1441 164.598 14.4294C164.598 13.7639 164.845 13.1849 165.345 12.6982C165.843 12.2113 166.477 11.9648 167.253 11.9648C168.03 11.9648 168.665 12.1929 169.17 12.6488C169.67 13.1048 169.916 13.684 169.916 14.3924C169.916 15.1009 169.67 15.7047 169.182 16.2038C168.696 16.7029 168.05 16.9556 167.253 16.9556V16.9616ZM165.19 37.657V19.8881H169.318V37.657H165.19Z" fill="white"/>
<path id="Vector_8" d="M147.507 36.9736L145.856 34.2442C145.733 34.047 145.517 33.9238 145.289 33.9238H145.277C145.042 33.9238 144.822 34.0594 144.704 34.2689L143.17 37.0414C142.96 37.4234 142.96 37.8854 143.17 38.2674L144.709 41.0461C144.828 41.2556 145.042 41.3851 145.283 41.3912H145.289C145.523 41.3912 145.746 41.2679 145.862 41.0647L147.507 38.2798C147.747 37.8793 147.741 37.3802 147.507 36.9797V36.9736Z" fill="white"/>
</g>
<defs>
<linearGradient id="paint0_linear_390_13459" x1="4.57552" y1="33.597" x2="48.8681" y2="17.4732" gradientUnits="userSpaceOnUse">
<stop stop-color="#29BCFA"/>
<stop offset="0.43" stop-color="#6464E4"/>
<stop offset="1" stop-color="#B45AFA"/>
</linearGradient>
<clipPath id="clip0_390_13459">
<rect width="168.945" height="51" fill="white" transform="translate(0.979004 0.0749512)"/>
</clipPath>
</defs>
</svg>
