<?xml version="1.0" encoding="utf-8"?>
<!-- Generator: Adobe Illustrator 28.2.0, SVG Export Plug-In . SVG Version: 6.00 Build 0)  -->
<svg version="1.1" id="Calque_1" xmlns="http://www.w3.org/2000/svg" xmlns:xlink="http://www.w3.org/1999/xlink" x="0px" y="0px"
	 viewBox="0 0 240.1 61" style="enable-background:new 0 0 240.1 61;" xml:space="preserve">
<style type="text/css">
	.st0{fill:#FFFFFF;}
	.st1{fill-rule:evenodd;clip-rule:evenodd;fill:#5A9DED;}
	.st2{fill-rule:evenodd;clip-rule:evenodd;fill:#D895D3;}
	.st3{fill-rule:evenodd;clip-rule:evenodd;fill:#FF9C92;}
	.st4{fill-rule:evenodd;clip-rule:evenodd;fill:#53D3E0;}
	.st5{fill-rule:evenodd;clip-rule:evenodd;fill:#A6E275;}
	.st6{fill-rule:evenodd;clip-rule:evenodd;fill:#FFE94D;}
</style>
<g>
	<g id="ethereum-eth-logo-full-horizontal_2">
		<g id="Layer_2">
			<g id="Layer_1">
				<path id="Vector" class="st0" d="M67.7,34.2c0,0.2-0.1,0.4-0.2,0.6c-0.2,0.1-0.4,0.2-0.6,0.2H52.2c0.4,3.6,3.1,7,7,7
					c2.7,0,4.6-1,6.1-3.1c0.1-0.1,0.2-0.2,0.3-0.3c0.1-0.1,0.2-0.1,0.4-0.1c0.1,0,0.2,0,0.3,0.1c0.1,0,0.2,0.1,0.2,0.2
					c0.1,0.1,0.1,0.2,0.2,0.2c0,0.1,0.1,0.2,0.1,0.3c0,0.1,0,0.3-0.1,0.4c-1.5,2.6-4.5,3.8-7.4,3.8c-5,0-8.5-4.4-8.5-9.2
					c0-4.7,3.5-9.2,8.5-9.2C64.2,25.1,67.7,29.5,67.7,34.2z M66.2,33.5c-0.3-3.6-3.1-7-7-7c-3.9,0-6.6,3.3-7,7H66.2z"/>
				<path id="Vector_2" class="st0" d="M85.7,25.5c0.2,0,0.4,0.1,0.5,0.2c0.1,0.1,0.2,0.3,0.2,0.5c0,0.1,0,0.2-0.1,0.3
					c0,0.1-0.1,0.2-0.2,0.2c-0.1,0.1-0.2,0.1-0.2,0.2c-0.1,0-0.2,0.1-0.3,0.1h-4v15.5c0,0.2-0.1,0.4-0.2,0.5
					c-0.1,0.1-0.3,0.2-0.5,0.2c-0.2,0-0.4-0.1-0.5-0.2c-0.1-0.1-0.2-0.3-0.2-0.5V26.9h-3.8c-0.1,0-0.2,0-0.3-0.1
					c-0.1,0-0.2-0.1-0.2-0.2c-0.1-0.1-0.1-0.2-0.2-0.2c0-0.1-0.1-0.2-0.1-0.3c0-0.2,0.1-0.4,0.2-0.5c0.1-0.1,0.3-0.2,0.5-0.2h3.8
					v-5.7c0-0.2,0.1-0.4,0.2-0.5c0.1-0.1,0.3-0.2,0.5-0.3c0.1,0,0.2,0,0.3,0c0.1,0,0.2,0.1,0.3,0.2c0.1,0.1,0.1,0.2,0.2,0.3
					c0,0.1,0.1,0.2,0.1,0.3v5.7H85.7z"/>
				<path id="Vector_3" class="st0" d="M109.9,33v9.4c0,0.2-0.1,0.4-0.2,0.5c-0.1,0.1-0.3,0.2-0.5,0.2c-0.1,0-0.2,0-0.3-0.1
					c-0.1,0-0.2-0.1-0.2-0.2c-0.1-0.1-0.1-0.2-0.2-0.2c0-0.1-0.1-0.2,0-0.3V33c0-3.2-1.8-6.3-5.3-6.3c-4.5,0-6.5,4-6.2,8
					c0,0.1,0,0.6,0,0.6v7c0,0.2-0.1,0.4-0.2,0.5c-0.1,0.1-0.3,0.2-0.5,0.3c-0.1,0-0.2,0-0.3,0c-0.1,0-0.2-0.1-0.3-0.2
					c-0.1-0.1-0.1-0.2-0.2-0.3c0-0.1-0.1-0.2-0.1-0.3V11.5c0-0.2,0.1-0.4,0.2-0.5c0.1-0.1,0.3-0.2,0.5-0.2c0.2,0,0.4,0.1,0.5,0.2
					c0.1,0.1,0.2,0.3,0.2,0.5v17.5c1.3-2.3,3.5-3.8,6.2-3.8C107.4,25.1,109.9,28.9,109.9,33z"/>
				<path id="Vector_4" class="st0" d="M136.4,34.2c0,0.2-0.1,0.4-0.2,0.6c-0.1,0.1-0.4,0.2-0.6,0.2h-14.8c0.4,3.6,3.1,7,7,7
					c2.7,0,4.6-1,6.1-3.1c0.1-0.1,0.2-0.2,0.3-0.3c0.1-0.1,0.2-0.1,0.4-0.1c0.1,0,0.2,0,0.3,0.1c0.1,0,0.2,0.1,0.2,0.2
					s0.1,0.2,0.2,0.2c0,0.1,0.1,0.2,0.1,0.3c0,0.1,0,0.3-0.1,0.4c-1.5,2.6-4.5,3.8-7.4,3.8c-5,0-8.5-4.4-8.5-9.2
					c0-4.7,3.5-9.2,8.5-9.2C132.8,25.1,136.4,29.5,136.4,34.2z M134.8,33.5c-0.3-3.6-3.1-7-7-7c-3.9,0-6.6,3.3-7,7H134.8z"/>
				<path id="Vector_5" class="st0" d="M154.6,26.1c0,0.2-0.1,0.4-0.2,0.5c-0.1,0.1-0.3,0.2-0.5,0.3c-4.3,0.6-6.3,4.2-6.3,8.3v7
					c0,0.2-0.1,0.4-0.2,0.5c-0.1,0.1-0.3,0.2-0.5,0.3c-0.1,0-0.2,0-0.3,0c-0.1,0-0.2-0.1-0.3-0.2c-0.1-0.1-0.1-0.2-0.2-0.3
					c0-0.1-0.1-0.2-0.1-0.3V26.3c0-0.2,0.1-0.4,0.2-0.5c0.1-0.1,0.3-0.2,0.5-0.3c0.1,0,0.2,0,0.3,0c0.1,0,0.2,0.1,0.3,0.2
					c0.1,0.1,0.1,0.2,0.2,0.3c0,0.1,0.1,0.2,0.1,0.3v3.3c1.2-2.1,3.7-4,6.2-4C154.1,25.5,154.6,25.7,154.6,26.1z"/>
				<path id="Vector_6" class="st0" d="M178.8,34.2c0,0.2-0.1,0.4-0.2,0.6c-0.1,0.1-0.4,0.2-0.6,0.2h-14.8c0.4,3.6,3.1,7,7,7
					c2.7,0,4.6-1,6.1-3.1c0.1-0.1,0.2-0.2,0.3-0.3c0.1-0.1,0.2-0.1,0.4-0.1c0.1,0,0.2,0,0.3,0.1c0.1,0,0.2,0.1,0.2,0.2
					c0.1,0.1,0.1,0.2,0.2,0.2c0,0.1,0.1,0.2,0.1,0.3c0,0.1,0,0.3-0.1,0.4c-1.5,2.6-4.5,3.8-7.4,3.8c-5,0-8.5-4.4-8.5-9.2
					c0-4.7,3.5-9.2,8.5-9.2C175.3,25.1,178.8,29.5,178.8,34.2z M177.3,33.5c-0.3-3.6-3.1-7-7-7c-3.9,0-6.6,3.3-7,7H177.3z"/>
				<path id="Vector_7" class="st0" d="M202.7,26.3v16.1c0,0.2-0.1,0.4-0.2,0.5c-0.1,0.1-0.3,0.2-0.5,0.2c-0.1,0-0.2,0-0.3-0.1
					c-0.1,0-0.2-0.1-0.2-0.2s-0.1-0.2-0.2-0.2c0-0.1-0.1-0.2-0.1-0.3v-3.1c-1.2,2.4-3.4,4.2-6.1,4.2c-4.4,0-6.8-3.8-6.8-7.8v-9.4
					c0-0.2,0.1-0.4,0.2-0.5c0.1-0.1,0.3-0.2,0.5-0.2c0.2,0,0.4,0.1,0.5,0.2c0.1,0.1,0.2,0.3,0.2,0.5v9.4c0,3.2,1.8,6.3,5.3,6.3
					c5,0,6.1-4.6,6.1-9.8v-6c0-0.1,0-0.2,0.1-0.3c0.1-0.1,0.1-0.2,0.2-0.3c0.1-0.1,0.2-0.1,0.3-0.1c0.1,0,0.2,0,0.4,0
					c0.1,0.1,0.3,0.2,0.3,0.3C202.7,26,202.7,26.2,202.7,26.3z"/>
				<path id="Vector_8" class="st0" d="M240.1,32.9v9.4c0,0.2-0.1,0.4-0.2,0.5c-0.1,0.1-0.3,0.2-0.5,0.2c-0.1,0-0.2,0-0.3-0.1
					c-0.1,0-0.2-0.1-0.2-0.2c-0.1-0.1-0.1-0.2-0.2-0.2c0-0.1-0.1-0.2-0.1-0.3v-9.4c0-3.2-1.8-6.3-5.3-6.3c-4.5,0-6.1,4.8-6.1,8.4
					v7.3c0,0.2-0.1,0.4-0.2,0.5c-0.1,0.1-0.3,0.2-0.5,0.2c-0.1,0-0.2,0-0.3-0.1c-0.1,0-0.2-0.1-0.2-0.2c-0.1-0.1-0.1-0.2-0.2-0.2
					c0-0.1-0.1-0.2-0.1-0.3v-9.4c0-3.2-1.8-6.3-5.3-6.3c-4.5,0-6.3,3.5-6.2,8.2c0,0.1,0,0.3,0,0.4v7.1c0,0.2-0.1,0.4-0.2,0.5
					c-0.1,0.1-0.3,0.2-0.5,0.3c-0.1,0-0.2,0-0.3,0c-0.1,0-0.2-0.1-0.3-0.2c-0.1-0.1-0.1-0.2-0.2-0.3c0-0.1-0.1-0.2-0.1-0.3V26.3
					c0-0.2,0.1-0.4,0.2-0.5c0.1-0.1,0.3-0.2,0.5-0.3c0.1,0,0.2,0,0.3,0c0.1,0,0.2,0.1,0.3,0.2c0.1,0.1,0.1,0.2,0.2,0.3
					c0,0.1,0.1,0.2,0.1,0.3v2.7c1.3-2.3,3.5-3.8,6.2-3.8c3,0,5.3,1.9,6.3,4.7c1.2-2.8,3.6-4.7,6.7-4.7
					C237.7,25.1,240.1,28.9,240.1,32.9z"/>
				<g id="Group">
					<path id="Vector_9" class="st1" d="M18.3,46.1l18.3-11.5L18.3,61V46.1z M21,47.5v4.8l5.9-8.5L21,47.5z"/>
					<path id="Vector_10" class="st2" d="M20.1,22.2l13.5,7.7l-1.3,2.4l-13.5-7.7L20.1,22.2z"/>
					<path id="Vector_11" class="st3" d="M18.3,0l18.3,31.4L18.3,42.9V0z M20.9,10.1v28l11.9-7.5L20.9,10.1z"/>
					<path id="Vector_12" class="st4" d="M18.3,46.1L0,34.6L18.3,61V46.1z M15.6,47.5v4.8l-5.9-8.5L15.6,47.5z"/>
					<path id="Vector_13" class="st5" d="M15.9,22.4L2.4,30.1l1.3,2.4l13.5-7.7L15.9,22.4z"/>
					<path id="Vector_14" class="st6" d="M18.3,0L0,31.4l18.3,11.5V0z M15.6,10.1v28L3.6,30.5L15.6,10.1z"/>
				</g>
			</g>
		</g>
	</g>
</g>
</svg>
