<?xml version="1.0" encoding="utf-8"?>
<!-- Generator: Adobe Illustrator 28.2.0, SVG Export Plug-In . SVG Version: 6.00 Build 0)  -->
<svg version="1.1" id="Calque_1" xmlns="http://www.w3.org/2000/svg" xmlns:xlink="http://www.w3.org/1999/xlink" x="0px" y="0px"
	 viewBox="0 0 170 52" style="enable-background:new 0 0 170 52;" xml:space="preserve">
<style type="text/css">
	.st0{fill:#9592AD;}
</style>
<g>
	<g id="dark-bg-etherfi-logo-colour-landscape_3">
		<path id="Vector" class="st0" d="M52.2,28.8l-1.9-7.5c-0.1-0.2-0.2-0.4-0.5-0.4l-7.5-1.8c-0.1,0-0.1,0-0.2,0c-0.2,0-0.4,0-0.5,0.2
			L29,31.7l-1.7-6.5c-0.1-0.2-0.2-0.4-0.5-0.4l-6.4-1.6l12.6-12.6c0.1-0.1,0.1-0.2,0.1-0.3c0.1-0.1,0.1-0.3,0-0.4l-1.9-7.5
			c-0.1-0.2-0.2-0.4-0.5-0.4L23.4,0c-0.1,0-0.3,0-0.4,0h0c0,0-0.1,0-0.1,0.1c0,0-0.1,0-0.1,0.1L1.2,21.7c0,0,0,0.1-0.1,0.1
			C1,22,1,22.2,1.1,22.4l2.1,7.3c0.1,0.2,0.2,0.4,0.4,0.4l7,2l2,7c0.1,0.2,0.2,0.4,0.4,0.4l7,2l2,7c0.1,0.2,0.2,0.4,0.4,0.4l7.3,2.1
			c0.1,0,0.1,0,0.2,0c0,0,0,0,0,0c0,0,0,0,0,0c0.2,0,0.3-0.1,0.4-0.2L52,29.4c0.1-0.1,0.1-0.2,0.1-0.3C52.2,29,52.2,28.9,52.2,28.8
			L52.2,28.8z M42.5,37.1L40.9,31l3.5-3.5l6,1.7L42.5,37.1L42.5,37.1z M30.3,49.3l-1.6-6.1l6.3-6.3l6,1.7L30.3,49.3z M35.2,35
			l-1.5-5.2l5.4,1.3L35.2,35L35.2,35z M39.9,32l1.4,5.4L36,35.9L39.9,32L39.9,32z M40.1,30.1L34,28.6l7.9-7.9l1.7,5.9L40.1,30.1z
			 M32.4,30.1l1.7,5.9l-6.3,6.3l-6.1-1.5L32.4,30.1z M49.1,21.9l1.6,6.1l-5.9-1.7L43,20.4L49.1,21.9z M20.8,39.9l-1.6-6.1l2.3-2.3
			l6,1.7L20.8,39.9z M21.7,29.6l-1.5-5.2l5.4,1.3L21.7,29.6L21.7,29.6z M27.8,32l-5.3-1.5l3.9-3.9L27.8,32L27.8,32z M20.7,30.6
			l-2.2,2.2l-6.1-1.5l6.7-6.7L20.7,30.6z M13.6,11.1l1.7,5.9L9,23.4l-6.1-1.5L13.6,11.1z M22.9,1.8l1.7,5.9l-3.4,3.4l-6.1-1.5
			L22.9,1.8z M23.7,18.2L22.1,12l3.4-3.4l6,1.7L23.7,18.2z M16.3,16.1l-1.5-5.2l5.4,1.3L16.3,16.1L16.3,16.1z M21.1,13.1l1.4,5.4
			l-5.2-1.5L21.1,13.1L21.1,13.1z M16.2,17.9l6,1.7L11.4,30.4l-1.6-6.1L16.2,17.9z M30.2,3l1.6,6.1l-5.9-1.7l-1.7-5.9L30.2,3z
			 M2.6,23.1L8,24.4l-3.9,3.9L2.6,23.1L2.6,23.1z M4.9,29.2l3.9-3.9l1.4,5.4L4.9,29.2L4.9,29.2z M13.7,38.4L12,32.5L18,34l1.6,6.1
			L13.7,38.4z M21.5,42l5.4,1.3L23,47.2L21.5,42L21.5,42z M23.8,48.1l3.9-3.9l1.4,5.4L23.8,48.1L23.8,48.1z"/>
		<path id="Vector_2" class="st0" d="M70.5,37.9c-2,0-3.7-0.4-5.2-1.2c-1.5-0.8-2.6-1.9-3.4-3.2c-0.8-1.4-1.2-2.9-1.2-4.7
			c0-1.8,0.4-3.3,1.2-4.7c0.8-1.4,1.9-2.4,3.3-3.2c1.4-0.8,3-1.2,4.7-1.2c1.8,0,3.3,0.4,4.6,1.1c1.4,0.8,2.4,1.8,3.2,3.2
			c0.8,1.4,1.2,3,1.2,4.9c0,0.2,0,0.4,0,0.6c0,0.2,0,0.4,0,0.6H64v-2.8h12.6L75,28.2c0-1-0.2-1.9-0.6-2.7c-0.4-0.8-1-1.4-1.8-1.8
			c-0.8-0.4-1.6-0.6-2.7-0.6c-1,0-1.9,0.2-2.7,0.6c-0.8,0.4-1.4,1-1.8,1.8c-0.4,0.8-0.6,1.7-0.6,2.8V29c0,1.1,0.2,2,0.7,2.8
			c0.5,0.8,1.2,1.5,2,1.9c0.9,0.5,1.9,0.7,3.1,0.7c1,0,1.9-0.2,2.7-0.5c0.8-0.3,1.5-0.8,2.1-1.5l2.3,2.6c-0.8,0.9-1.8,1.6-3,2.1
			C73.5,37.6,72.1,37.9,70.5,37.9L70.5,37.9z"/>
		<path id="Vector_3" class="st0" d="M78.9,23.4V20h11.8v3.3H78.9z M87.9,37.9c-2,0-3.5-0.5-4.5-1.5c-1.1-1-1.6-2.5-1.6-4.4V16h4.1
			v15.8c0,0.8,0.2,1.5,0.7,2c0.4,0.5,1.1,0.7,1.9,0.7c0.9,0,1.7-0.2,2.3-0.7l1.2,3c-0.5,0.4-1.1,0.7-1.8,0.9
			C89.4,37.8,88.6,37.9,87.9,37.9z"/>
		<path id="Vector_4" class="st0" d="M103.4,19.7c1.4,0,2.7,0.3,3.8,0.8c1.1,0.6,2,1.4,2.6,2.6c0.7,1.2,1,2.6,1,4.4v10.2h-4.2V28
			c0-1.6-0.4-2.7-1.1-3.5c-0.7-0.8-1.8-1.2-3.1-1.2c-1,0-1.8,0.2-2.6,0.6c-0.8,0.4-1.3,1-1.7,1.8c-0.4,0.8-0.6,1.8-0.6,3v9h-4.1V13
			h4.1v11.7l-0.9-1.5c0.6-1.1,1.5-2,2.7-2.6C100.5,20,101.9,19.7,103.4,19.7L103.4,19.7z"/>
		<path id="Vector_5" class="st0" d="M122.1,37.9c-2,0-3.7-0.4-5.2-1.2c-1.5-0.8-2.6-1.9-3.4-3.2c-0.8-1.4-1.2-2.9-1.2-4.7
			c0-1.8,0.4-3.3,1.2-4.7c0.8-1.4,1.9-2.4,3.3-3.2c1.4-0.8,3-1.2,4.7-1.2c1.8,0,3.3,0.4,4.6,1.1c1.4,0.8,2.4,1.8,3.2,3.2
			c0.8,1.4,1.2,3,1.2,4.9c0,0.2,0,0.4,0,0.6c0,0.2,0,0.4,0,0.6h-14.8v-2.8h12.6l-1.7,0.9c0-1-0.2-1.9-0.6-2.7
			c-0.4-0.8-1-1.4-1.8-1.8c-0.8-0.4-1.6-0.6-2.7-0.6s-1.9,0.2-2.7,0.6c-0.8,0.4-1.4,1-1.8,1.8c-0.4,0.8-0.6,1.7-0.6,2.8V29
			c0,1.1,0.2,2,0.7,2.8c0.5,0.8,1.2,1.5,2,1.9c0.9,0.5,1.9,0.7,3.1,0.7c1,0,1.9-0.2,2.7-0.5c0.8-0.3,1.5-0.8,2.1-1.5l2.3,2.6
			c-0.8,0.9-1.8,1.6-3,2.1C125.1,37.6,123.7,37.9,122.1,37.9L122.1,37.9z"/>
		<path id="Vector_6" class="st0" d="M132.4,37.7V19.9h4v4.9l-0.5-1.4c0.5-1.2,1.3-2.1,2.5-2.7c1.2-0.6,2.6-0.9,4.2-0.9v4
			c-0.2,0-0.3,0-0.5,0c-0.2,0-0.3,0-0.4,0c-1.6,0-2.9,0.5-3.8,1.4c-0.9,0.9-1.4,2.3-1.4,4.2v8.6H132.4L132.4,37.7z"/>
		<path id="Vector_7" class="st0" d="M150.4,23.4V20h11.8v3.3H150.4z M153.3,37.7V18.9c0-1.9,0.5-3.4,1.6-4.5
			c1.1-1.1,2.7-1.7,4.7-1.7c0.7,0,1.4,0.1,2.1,0.2c0.7,0.2,1.2,0.4,1.6,0.7l-1.2,3.1c-0.3-0.2-0.6-0.4-1-0.5
			c-0.4-0.1-0.8-0.2-1.2-0.2c-0.9,0-1.5,0.2-2,0.7c-0.4,0.5-0.7,1.2-0.7,2.1V21l0.1,1.8v14.8H153.3L153.3,37.7z M167.3,17
			c-0.8,0-1.4-0.2-1.9-0.7c-0.5-0.5-0.7-1.1-0.7-1.8c0-0.7,0.2-1.2,0.7-1.7c0.5-0.5,1.1-0.7,1.9-0.7c0.8,0,1.4,0.2,1.9,0.7
			c0.5,0.5,0.7,1,0.7,1.7c0,0.7-0.2,1.3-0.7,1.8C168.7,16.7,168.1,17,167.3,17L167.3,17z M165.2,37.7V19.9h4.1v17.8H165.2z"/>
		<path id="Vector_8" class="st0" d="M147.5,37l-1.7-2.7c-0.1-0.2-0.3-0.3-0.6-0.3h0c-0.2,0-0.5,0.1-0.6,0.3l-1.5,2.8
			c-0.2,0.4-0.2,0.8,0,1.2l1.5,2.8c0.1,0.2,0.3,0.3,0.6,0.3h0c0.2,0,0.5-0.1,0.6-0.3l1.6-2.8C147.7,37.9,147.7,37.4,147.5,37
			L147.5,37z"/>
	</g>
</g>
</svg>
