<svg width="24" height="24" viewBox="0 0 24 24" fill="none" xmlns="http://www.w3.org/2000/svg">
<path d="M10.8017 17.7691C10.8941 17.7692 10.9854 17.7875 11.0707 17.823C11.1559 17.8584 11.2334 17.9103 11.2985 17.9757C11.3637 18.0411 11.4154 18.1186 11.4506 18.204C11.4858 18.2893 11.5039 18.3808 11.5037 18.4731C11.5036 18.5654 11.4853 18.6568 11.4498 18.742C11.4144 18.8273 11.3625 18.9047 11.2971 18.9699C11.2318 19.0351 11.1542 19.0868 11.0688 19.122C10.9835 19.1572 10.8921 19.1752 10.7997 19.1751C10.6133 19.1748 10.4346 19.1005 10.3029 18.9685C10.1713 18.8365 10.0975 18.6575 10.0977 18.4711C10.098 18.2846 10.1723 18.1059 10.3043 17.9743C10.4364 17.8426 10.6153 17.7688 10.8017 17.7691ZM21.8257 13.4221C21.7334 13.422 21.642 13.4038 21.5567 13.3684C21.4715 13.333 21.394 13.2812 21.3288 13.2158C21.2636 13.1505 21.2118 13.073 21.1766 12.9877C21.1413 12.9023 21.1232 12.8109 21.1232 12.7186C21.1233 12.6263 21.1416 12.5349 21.1769 12.4496C21.2123 12.3643 21.2642 12.2869 21.3295 12.2216C21.3948 12.1564 21.4724 12.1047 21.5577 12.0694C21.643 12.0341 21.7344 12.016 21.8267 12.0161C22.0132 12.0162 22.1919 12.0904 22.3237 12.2223C22.4554 12.3543 22.5294 12.5331 22.5292 12.7196C22.5291 12.906 22.4549 13.0848 22.323 13.2165C22.191 13.3483 22.0122 13.4222 21.8257 13.4221ZM21.8257 10.5461C21.2493 10.5466 20.6967 10.7758 20.2891 11.1834C19.8815 11.591 19.6523 12.1437 19.6517 12.7201C19.6517 12.9531 19.6907 13.1851 19.7667 13.4111L12.5857 17.2341C12.3866 16.945 12.1202 16.7086 11.8094 16.5454C11.4986 16.3821 11.1528 16.2969 10.8017 16.2971C9.97274 16.2971 9.21774 16.7721 8.85174 17.5131L2.40074 14.1111C1.71874 13.7531 1.20874 12.6311 1.26274 11.6091C1.29074 11.0761 1.47474 10.6621 1.75574 10.5021C1.93374 10.4021 2.14774 10.4101 2.37574 10.5291L2.41774 10.5521C4.12774 11.4521 9.72174 14.3991 9.95774 14.5081C10.3207 14.6771 10.5227 14.7451 11.1427 14.4511L22.7067 8.43709C22.8767 8.37309 23.0747 8.21009 23.0747 7.96309C23.0747 7.62109 22.7207 7.48609 22.7197 7.48609C22.0617 7.17109 21.0507 6.69809 20.0647 6.23609C17.9567 5.24909 15.5677 4.13109 14.5187 3.58109C13.6127 3.10709 12.8837 3.50709 12.7537 3.58709L12.5017 3.71209C7.77974 6.04709 1.45974 9.17709 1.09974 9.39609C0.456738 9.78809 0.0577375 10.5691 0.00573748 11.5381C-0.0742625 13.0751 0.708737 14.6781 1.82974 15.2651L8.65174 18.7831C8.72689 19.2999 8.98546 19.7723 9.38021 20.1142C9.77496 20.4561 10.2795 20.6445 10.8017 20.6451C11.3721 20.6441 11.9192 20.4194 12.3256 20.0192C12.732 19.619 12.965 19.0753 12.9747 18.5051L20.4887 14.4321C20.8687 14.7301 21.3417 14.8931 21.8257 14.8931C22.4022 14.8926 22.9548 14.6633 23.3624 14.2558C23.77 13.8482 23.9992 13.2955 23.9997 12.7191C23.9992 12.1427 23.77 11.59 23.3624 11.1824C22.9548 10.7748 22.4022 10.5456 21.8257 10.5451" fill="white"/>
</svg>
