<svg width="64" height="64" viewBox="0 0 64 64" fill="none" xmlns="http://www.w3.org/2000/svg">
<rect width="64.0001" height="64" fill="black"/>
<path fill-rule="evenodd" clip-rule="evenodd" d="M35.0673 9.06927L31.5002 7L27.933 9.06927L24.3574 11.1239L24.3658 15.2478L24.3574 19.3717L27.933 21.4263L31.5002 23.4955L35.0673 21.4263L38.6429 19.3717L38.6345 15.2478L38.6429 11.1239L35.0673 9.06927ZM27.9328 54.4175L31.5 56.4867L35.0672 54.4175L38.6428 52.3628L38.6343 48.239L38.6428 44.1151L35.0672 42.0605L31.5 39.9912L27.9328 42.0605L24.3572 44.1151L24.3657 48.239L24.3572 52.3628L27.9328 54.4175ZM17.1429 15.2479L20.7101 17.3171L24.2857 19.3717L24.2772 23.4956L24.2857 27.6195L20.7101 29.6741L17.1429 31.7434L20.7099 33.8126L24.2856 35.8672L24.2771 39.9911L24.2856 44.115L20.7099 46.1696L17.1428 48.2389L13.5756 46.1696L10 44.115L10.0085 39.9911L10 35.8672L13.5756 33.8126L17.1428 31.7433L13.5758 29.6741L10.0001 27.6195L10.0086 23.4956L10.0001 19.3717L13.5758 17.3171L17.1429 15.2479ZM42.2901 46.1696L45.8572 48.2389L49.4244 46.1696L53 44.115L52.9915 39.9911L53 35.8672L49.4244 33.8126L45.8574 31.7434L49.4245 29.6741L53.0002 27.6195L52.9917 23.4956L53.0002 19.3717L49.4245 17.3171L45.8574 15.2479L42.2902 17.3171L38.7146 19.3717L38.7231 23.4956L38.7146 27.6195L42.2902 29.6741L45.8572 31.7433L42.2901 33.8126L38.7145 35.8672L38.7229 39.9911L38.7145 44.115L42.2901 46.1696Z" fill="white"/>
</svg>
