<svg width="48" height="57" viewBox="0 0 48 57" fill="none" xmlns="http://www.w3.org/2000/svg">
<g id="water_drop" filter="url(#filter0_d_446_1623)">
<mask id="mask0_446_1623" style="mask-type:alpha" maskUnits="userSpaceOnUse" x="3" y="0" width="41" height="41">
<rect id="Bounding box" x="3.83325" y="0.0402832" width="40" height="40" fill="#D9D9D9"/>
</mask>
<g mask="url(#mask0_446_1623)">
<path id="water_drop_2" d="M24.1956 31.1938C24.4434 31.166 24.6374 31.0805 24.7773 30.9374C24.9173 30.7942 24.9872 30.6215 24.9872 30.4194C24.9872 30.1835 24.9073 30.0009 24.7475 29.8717C24.5876 29.7424 24.3834 29.6917 24.1347 29.7194C22.9958 29.8028 21.7234 29.4475 20.3174 28.6537C18.9114 27.8599 18.0417 26.5325 17.7084 24.6714C17.6529 24.4085 17.5604 24.2119 17.4312 24.0816C17.3019 23.9513 17.1379 23.8861 16.9392 23.8861C16.7212 23.8861 16.5353 23.9678 16.3815 24.1313C16.2276 24.2947 16.1817 24.5389 16.2437 24.8637C16.6732 27.1778 17.7415 28.8337 19.4488 29.8316C21.1561 30.8295 22.7383 31.2835 24.1956 31.1938ZM23.8275 35.0399C20.496 35.0399 17.7196 33.8936 15.4985 31.6009C13.2773 29.3082 12.1667 26.4546 12.1667 23.0399C12.1667 20.6468 13.132 17.9999 15.0626 15.0992C16.9931 12.1986 19.9167 9.01643 23.8334 5.55273C27.7501 9.01643 30.6737 12.1986 32.6042 15.0992C34.5348 17.9999 35.5001 20.6468 35.5001 23.0399C35.5001 26.4546 34.3875 29.3082 32.1625 31.6009C29.9374 33.8936 27.1591 35.0399 23.8275 35.0399ZM23.8334 33.3733C26.7223 33.3733 29.1112 32.3941 31.0001 30.4358C32.889 28.4774 33.8334 26.0122 33.8334 23.0399C33.8334 21.0122 32.9931 18.7205 31.3126 16.1649C29.632 13.6094 27.139 10.8177 23.8334 7.78994C20.5279 10.8177 18.0348 13.6094 16.3542 16.1649C14.6737 18.7205 13.8334 21.0122 13.8334 23.0399C13.8334 26.0122 14.7779 28.4774 16.6667 30.4358C18.5556 32.3941 20.9445 33.3733 23.8334 33.3733Z" fill="#D37E02"/>
</g>
</g>
<defs>
<filter id="filter0_d_446_1623" x="0.238175" y="2.90988" width="47.1905" height="53.3444" filterUnits="userSpaceOnUse" color-interpolation-filters="sRGB">
<feFlood flood-opacity="0" result="BackgroundImageFix"/>
<feColorMatrix in="SourceAlpha" type="matrix" values="0 0 0 0 0 0 0 0 0 0 0 0 0 0 0 0 0 0 127 0" result="hardAlpha"/>
<feOffset dy="9.28571"/>
<feGaussianBlur stdDeviation="5.96429"/>
<feComposite in2="hardAlpha" operator="out"/>
<feColorMatrix type="matrix" values="0 0 0 0 0.827451 0 0 0 0 0.494118 0 0 0 0 0.00784314 0 0 0 1 0"/>
<feBlend mode="normal" in2="BackgroundImageFix" result="effect1_dropShadow_446_1623"/>
<feBlend mode="normal" in="SourceGraphic" in2="effect1_dropShadow_446_1623" result="shape"/>
</filter>
</defs>
</svg>
