<svg width="52" height="60" viewBox="0 0 52 60" fill="none" xmlns="http://www.w3.org/2000/svg">
<g id="beenhere" filter="url(#filter0_d_446_1428)">
<mask id="mask0_446_1428" style="mask-type:alpha" maskUnits="userSpaceOnUse" x="6" y="0" width="40" height="41">
<rect id="Bounding box" x="6" y="0.0402832" width="40" height="40" fill="#D9D9D9"/>
</mask>
<g mask="url(#mask0_446_1428)">
<path id="beenhere_2" d="M14.3601 28.8935L14.3601 28.8935L14.3549 28.8897C14.0168 28.6418 13.752 28.3274 13.5576 27.9385C13.3631 27.5496 13.2667 27.1415 13.2667 26.7069V6.70687C13.2667 5.9506 13.529 5.31812 14.0702 4.77697C14.6113 4.23581 15.2438 3.97354 16.0001 3.97354H36.0001C36.7564 3.97354 37.3888 4.23581 37.93 4.77697C38.4711 5.31812 38.7334 5.9506 38.7334 6.70687V26.7069C38.7334 27.1415 38.6371 27.5496 38.4426 27.9385C38.2481 28.3274 37.9833 28.6418 37.6453 28.8897L37.6452 28.8897L37.6401 28.8935L26.0001 37.6235L14.3601 28.8935ZM23.8258 25.4645L24.2501 25.8887L24.6743 25.4645L34.091 16.0478L34.5079 15.6309L34.0984 15.2068L31.7651 12.7901L31.3409 12.3508L30.9091 12.7826L24.2501 19.4417L21.1743 16.3659L20.7575 15.9491L20.3333 16.3586L17.9167 18.6919L17.4774 19.116L17.9092 19.5478L23.8258 25.4645Z" stroke="#BE7100" stroke-width="1.2"/>
</g>
</g>
<defs>
<filter id="filter0_d_446_1428" x="0.738175" y="0.730677" width="50.5238" height="58.8571" filterUnits="userSpaceOnUse" color-interpolation-filters="sRGB">
<feFlood flood-opacity="0" result="BackgroundImageFix"/>
<feColorMatrix in="SourceAlpha" type="matrix" values="0 0 0 0 0 0 0 0 0 0 0 0 0 0 0 0 0 0 127 0" result="hardAlpha"/>
<feOffset dy="9.28571"/>
<feGaussianBlur stdDeviation="5.96429"/>
<feComposite in2="hardAlpha" operator="out"/>
<feColorMatrix type="matrix" values="0 0 0 0 0.827451 0 0 0 0 0.494118 0 0 0 0 0.00784314 0 0 0 1 0"/>
<feBlend mode="normal" in2="BackgroundImageFix" result="effect1_dropShadow_446_1428"/>
<feBlend mode="normal" in="SourceGraphic" in2="effect1_dropShadow_446_1428" result="shape"/>
</filter>
</defs>
</svg>
