<?xml version="1.0" encoding="utf-8"?>
<!-- Generator: Adobe Illustrator 28.2.0, SVG Export Plug-In . SVG Version: 6.00 Build 0)  -->
<svg version="1.1" id="Calque_1" xmlns="http://www.w3.org/2000/svg" xmlns:xlink="http://www.w3.org/1999/xlink" x="0px" y="0px"
	 viewBox="0 0 136 50.9" style="enable-background:new 0 0 136 50.9;" xml:space="preserve">
<style type="text/css">
	.st0{fill:#075A5A;}
	.st1{fill:#D8F0F0;}
</style>
<g>
	<g id="Logo__x5F__Light_3">
		<path id="Vector" class="st0" d="M27.4,0.1l-7.9,4.4c-2.8,1.6-3.1,5.6-0.5,7.6l8,6c1.6,1.2,1.5,3.7-0.3,4.7L19.5,27
			c-2.8,1.6-3.1,5.6-0.5,7.6l7.6,5.7c0.8,0.6,1.3,1.5,1.3,2.5v0.2c0,0.7,0.8,1.2,1.4,0.8l7.9-4.5c2.8-1.6,3.1-5.6,0.4-7.6l-8-5.9
			c-1.6-1.2-1.5-3.7,0.3-4.7l7.3-4.2c2.8-1.6,3.1-5.6,0.4-7.6l-7.7-5.6c-0.8-0.6-1.3-1.5-1.3-2.5V0.9C28.8,0.2,28-0.2,27.4,0.1z"/>
		<path id="Vector_2" class="st0" d="M10.2,7.2l-7.9,4.4c-2.8,1.6-3.1,5.6-0.5,7.6l8,6c1.6,1.2,1.5,3.7-0.3,4.7L2.3,34
			c-2.8,1.6-3.1,5.6-0.5,7.6l7.6,5.7c0.8,0.6,1.3,1.5,1.3,2.5V50c0,0.7,0.8,1.2,1.4,0.8l7.9-4.5c2.8-1.6,3.1-5.6,0.4-7.6l-8-5.9
			c-1.6-1.2-1.5-3.7,0.3-4.7l7.3-4.2c2.8-1.6,3.1-5.6,0.4-7.6l-7.7-5.6c-0.8-0.6-1.3-1.5-1.3-2.5V8C11.6,7.3,10.8,6.8,10.2,7.2z"/>
		<path id="Vector_3" class="st1" d="M68.9,39.4c-0.1,0-0.2-0.1-0.3-0.1L58.2,27c-0.2-0.3-0.7-0.1-0.7,0.3V39c0,0.2-0.2,0.4-0.4,0.4
			h-3.9c-0.2,0-0.4-0.2-0.4-0.4V10.9c0-0.2,0.2-0.4,0.4-0.4h3.9c0.2,0,0.4,0.2,0.4,0.4v12c0,0.4,0.5,0.5,0.7,0.3l10.4-12.5
			c0.1-0.1,0.2-0.1,0.3-0.1h4.9c0.3,0,0.5,0.4,0.3,0.7l-12,13.6c-0.1,0.2-0.1,0.4,0,0.5l12.2,13.5c0.2,0.3,0.1,0.7-0.3,0.7H68.9z"/>
		<path id="Vector_4" class="st1" d="M96.8,27.4c0,0.7,0,1.4-0.1,2c0,0.2-0.2,0.3-0.4,0.3H79.5c-0.2,0-0.4,0.2-0.4,0.4
			c0.2,1.6,0.9,3,2,4c1.2,1.1,2.7,1.7,4.5,1.7c2.5,0,4.2-1,5.3-3c0.1-0.1,0.2-0.2,0.4-0.2h4.3c0.3,0,0.5,0.3,0.4,0.5
			c-0.7,1.9-1.9,3.4-3.6,4.7c-1.8,1.3-4.1,2-6.7,2c-2.2,0-4.2-0.5-5.9-1.5c-1.7-1-3.1-2.4-4.1-4.2c-1-1.8-1.5-3.9-1.5-6.2
			s0.5-4.4,1.4-6.2c1-1.8,2.3-3.2,4-4.2c1.7-1,3.7-1.5,6-1.5c2.2,0,4.1,0.5,5.8,1.4c1.7,0.9,3,2.3,4,4
			C96.3,23.2,96.8,25.1,96.8,27.4z M91.4,26.5c0.2,0,0.4-0.2,0.4-0.4c-0.1-1.7-0.7-3.5-1.9-4.5c-1.2-1.1-2.7-1.6-4.5-1.6
			c-1.6,0-3,0.5-4.2,1.6c-1.2,1.1-1.8,3.2-2,4.9c0,0.2,0.2,0.5,0.4,0.5L91.4,26.5z"/>
		<path id="Vector_5" class="st1" d="M117.2,20.8c0.9-1.6,1.9-2.9,3.3-3.6c1.4-0.7,3-1.1,4.7-1.1c2,0,3.8,0.5,5.5,1.5
			c1.7,1,3,2.3,3.9,4.1c0.9,1.8,1.4,3.8,1.4,6.1c0,2.3-0.5,4.4-1.4,6.2c-0.9,1.8-2.2,3.2-3.9,4.2c-1.6,1-3.5,1.5-5.5,1.5
			c-1.7,0-3.3-0.3-4.7-1c-1.4-0.7-2.7-2.1-3.3-3.6v14.8c0,0.2-0.2,0.4-0.4,0.4h-3.9c-0.2,0-0.4-0.2-0.4-0.4v-33
			c0-0.2,0.2-0.4,0.4-0.4h3.9c0.2,0,0.4,0.2,0.4,0.4V20.8z M131.2,27.8c0-1.6-0.3-2.9-1-4.1c-0.6-1.2-1.5-2-2.6-2.6
			c-1.1-0.6-2.2-0.9-3.4-0.9c-1.2,0-2.3,0.3-3.4,0.9c-1.1,0.6-1.9,1.5-2.6,2.7c-0.6,1.2-1,2.5-1,4.1c0,1.6,0.3,3,1,4.2
			c0.7,1.2,1.5,2.1,2.6,2.7c1.1,0.6,2.2,0.9,3.4,0.9c1.2,0,2.4-0.3,3.4-0.9c1.1-0.6,1.9-1.6,2.6-2.7
			C130.8,30.8,131.2,29.4,131.2,27.8z"/>
		<path id="Vector_6" class="st1" d="M105.3,39.7c-2.2,0-2.8-0.5-3.4-1.1c-0.8-0.8-1.3-2.2-1.3-4V10.3c0-0.2,0.2-0.4,0.4-0.4h3.7
			c0.2,0,0.4,0.2,0.4,0.4c0,3,0,22.7,0,23.4c0,0.5,0.3,0.8,0.4,1c0.2,0.2,0.4,0.4,1.3,0.4c0.5,0,1,0,1.5,0c0.2,0,0.4,0.2,0.4,0.4
			v3.9c0,0.2-0.2,0.4-0.4,0.4c-0.5,0-0.9,0-1.4,0C106.5,39.7,106,39.7,105.3,39.7z"/>
	</g>
</g>
</svg>
