<?xml version="1.0" encoding="utf-8"?>
<!-- Generator: Adobe Illustrator 28.2.0, SVG Export Plug-In . SVG Version: 6.00 Build 0)  -->
<svg version="1.1" id="Calque_1" xmlns="http://www.w3.org/2000/svg" xmlns:xlink="http://www.w3.org/1999/xlink" x="0px" y="0px"
	 viewBox="0 0 134 32" style="enable-background:new 0 0 134 32;" xml:space="preserve">
<style type="text/css">
	.st0{fill:#FFFFFF;filter:url(#Adobe_OpacityMaskFilter);}
	.st1{mask:url(#mask0_628_489_00000140721603187335195590000016775693694150471595_);}
	.st2{fill:#3C3A50;}
</style>
<defs>
	<filter id="Adobe_OpacityMaskFilter" filterUnits="userSpaceOnUse" x="0" y="0" width="133.8" height="32">
		<feColorMatrix  type="matrix" values="1 0 0 0 0  0 1 0 0 0  0 0 1 0 0  0 0 0 1 0"/>
	</filter>
</defs>
<mask maskUnits="userSpaceOnUse" x="0" y="0" width="133.8" height="32" id="mask0_628_489_00000140721603187335195590000016775693694150471595_">
	<path class="st0" d="M133.8,0H0v32h133.8V0z"/>
</mask>
<g class="st1">
	<path class="st2" d="M110.1,8.1c-2.7,0-4.9,0.9-6.7,2.7c-0.9,0.9-1.5,1.9-2,3c-0.5,1.1-0.7,2.4-0.6,3.6c0,2.4,0.8,4.4,2.3,5.8
		c1.5,1.5,3.5,2.2,5.9,2.2c2.7,0,4.9-0.9,6.6-2.6c0.9-0.9,1.5-1.9,2-3c0.4-1.1,0.7-2.3,0.6-3.5c0-1.1-0.2-2.2-0.6-3.2
		c-0.4-1-1-1.9-1.7-2.7c-0.7-0.8-1.6-1.4-2.6-1.8C112.2,8.3,111.1,8.1,110.1,8.1z M113.1,22c-0.3,0.5-0.8,0.8-1.3,1.1
		c-0.5,0.2-1.1,0.4-1.7,0.3c-1.6,0-2.9-0.8-4-2.4c-1.1-1.7-1.6-3.6-1.6-5.6c-0.1-1.3,0.3-2.7,1-3.8c0.3-0.5,0.8-0.9,1.3-1.2
		c0.5-0.3,1.1-0.4,1.7-0.4c1.6,0,2.9,0.8,4,2.5c1.1,1.7,1.6,3.7,1.6,5.7C114.3,19.7,113.9,21,113.1,22"/>
	<path class="st2" d="M56.4,24.7l-1.1-2.3l-0.1-0.3c-0.2-0.6-0.3-1.2-0.2-1.8l0-5.2c0-2.3-0.5-4-1.6-5.3c-1.1-1.2-2.6-1.9-4.6-1.9
		c-1.2,0-2.4,0.3-3.5,0.9c-1.1,0.6-2,1.6-2.6,2.7c-0.9-2.4-2.7-3.6-5.4-3.6c-2.6,0-4.6,1.2-6,3.6l0-2.3v-1c0-0.1,0-0.1,0-0.2
		c0-0.1-0.1-0.1-0.1-0.1c0,0-0.1-0.1-0.2-0.1c-0.1,0-0.1,0-0.2,0l-5.2,1.8l0.5,0.6l1,1.2c0,0,0.1,0.1,0.1,0.1
		c0.4,0.5,0.6,1.2,0.6,1.9v6.8c0,0.6-0.1,1.2-0.3,1.8l-0.3,0.5l-1,2L26,25.1h7.3l-0.2-0.4L32,22.6c0,0,0-0.1-0.1-0.1
		c0-0.1-0.1-0.2-0.1-0.3c-0.2-0.6-0.3-1.2-0.2-1.8v-4.3c0-1.7,0.4-3.1,1.2-4c0.4-0.5,0.8-0.8,1.3-1.1s1.1-0.4,1.7-0.4
		c1.3,0,2.1,0.4,2.6,1.3c0.5,0.9,0.8,2.2,0.8,3.8v4.7c0,0.6-0.1,1.2-0.3,1.8l-0.2,0.4l-1.2,2.1l-0.2,0.4h7.4l-0.2-0.4l-1.1-2.2
		c0,0,0,0,0,0c0-0.1-0.1-0.2-0.1-0.3c-0.2-0.6-0.3-1.2-0.2-1.8l0-4.5c0-1.7,0.5-3,1.3-3.9c0.4-0.4,0.8-0.8,1.3-1
		c0.5-0.2,1.1-0.4,1.6-0.4c1.3,0,2.2,0.4,2.8,1.4c0.6,0.9,0.9,2.2,0.9,3.8v4.7c0,0.6-0.1,1.2-0.3,1.8c-0.1,0.2-0.2,0.4-0.3,0.5l0,0
		l-1.1,1.8L49,25.1h7.5L56.4,24.7z"/>
	<path class="st2" d="M75.2,10.4c-0.6-0.7-1.4-1.3-2.3-1.7C72,8.3,71,8.1,70.1,8.1c-2.6,0-4.6,1.1-6.1,3.4l0-1.6l0-1.6
		c0-0.1,0-0.1,0-0.1c0,0-0.1-0.1-0.1-0.1c0,0-0.1,0-0.1-0.1s-0.1,0-0.2,0l-2.1,0.8l-3.2,1.2l1.5,1.6l0,0c0.4,0.6,0.7,1.3,0.6,2
		l0.1,13.8c0,0.6-0.1,1.2-0.3,1.8l-0.4,0.8l-0.9,1.6L58.6,32h7.6L66,31.5l-1.1-1.9l-0.3-0.5c-0.2-0.6-0.3-1.2-0.2-1.8l0-3.5
		c1.5,1.1,3.3,1.6,5.1,1.6c1,0,2.1-0.2,3-0.6c0.9-0.4,1.8-1.1,2.4-1.8c1.5-1.7,2.3-3.9,2.3-6.6C77.2,13.9,76.5,11.9,75.2,10.4
		 M72.4,22c-0.3,0.5-0.8,0.9-1.3,1.2c-0.5,0.3-1.1,0.4-1.7,0.4c-0.6,0-1.3-0.1-1.8-0.4c-0.6-0.3-1.1-0.6-1.5-1.1
		c-0.5-0.5-0.9-1.1-1.2-1.8c-0.3-0.7-0.4-1.4-0.4-2.1v-2.4c0-1.3,0.4-2.5,1.1-3.5c0.3-0.5,0.8-0.9,1.3-1.2c0.5-0.3,1.1-0.4,1.7-0.4
		c1.3,0,2.5,0.7,3.4,2c0.9,1.3,1.4,3.1,1.4,5.3C73.5,19.4,73.1,20.8,72.4,22"/>
	<path class="st2" d="M133,8.9c-0.3-0.3-0.6-0.5-1-0.6c-0.4-0.1-0.8-0.2-1.2-0.2c-1,0-1.9,0.3-2.7,0.9c-0.9,0.6-1.7,1.5-2.2,2.5
		l0-1.6V8.2c0-0.1,0-0.1,0-0.2c0-0.1-0.1-0.1-0.1-0.1c0,0-0.1-0.1-0.2-0.1s-0.1,0-0.2,0l-1.4,0.5l-1.3,0.5l-1.2,0.5l-1.3,0.5
		l0.5,0.5l1.1,1.2l0,0c0.4,0.6,0.6,1.2,0.6,1.9v6.2c0,0.6,0,1.2-0.1,1.8c0,0.2-0.1,0.4-0.1,0.5l-0.2,0.4l-1.2,2.1l0,0l-0.2,0.4h7.4
		l-0.2-0.4l0,0l-1-2l-0.1-0.2l0,0c0-0.1-0.1-0.2-0.1-0.3c-0.2-0.8-0.3-1.6-0.3-2.5v-4c0-1.1,0.2-2.3,0.8-3.3
		c0.5-0.9,1.2-1.3,1.9-1.3c0.3,0,0.6,0.1,0.9,0.2c0.3,0.1,0.5,0.3,0.7,0.6c0.5,0.6,1,0.8,1.5,0.8c0.2,0,0.4-0.1,0.6-0.2
		c0.2-0.1,0.4-0.2,0.5-0.4c0.3-0.4,0.5-0.9,0.5-1.5c0-0.4,0-0.7-0.2-1C133.5,9.4,133.3,9.1,133,8.9"/>
	<path class="st2" d="M98.7,24.7L98.7,24.7l-1.1-2.1l0-0.1l0,0c0-0.1-0.1-0.2-0.1-0.3c-0.2-0.7-0.3-1.5-0.3-2.3l0-4.7
		c0-2.3-0.5-4-1.6-5.3c-1.1-1.2-2.6-1.9-4.6-1.9c-1.1,0-2.1,0.2-3.1,0.7c-1,0.5-1.8,1.2-2.4,2V6.2l0-3.3V0l-1.8,0.7l-1.4,0.6
		l-1.5,0.6l-1.6,0.6l0.7,0.7L80.8,4c0.2,0.2,0.3,0.4,0.4,0.7c0.2,0.5,0.3,1,0.3,1.5v14c0,0.6-0.1,1.2-0.2,1.8l0,0
		c0,0.1,0,0.1-0.1,0.2l-0.1,0.2l-0.1,0.2l-1.2,2.1l-0.3,0.4h7.4L87,24.7v0l-1-2l-0.1-0.2c0,0,0,0,0,0c0-0.1-0.1-0.1-0.1-0.2
		c0,0,0-0.1,0-0.1c0-0.1-0.1-0.2-0.1-0.4l0,0c0-0.1,0-0.2-0.1-0.3c0-0.3-0.1-0.6-0.1-0.8c0-0.1,0-0.1,0-0.2c0-0.1,0-0.1,0-0.2V15
		c0.2-1.4,0.7-2.5,1.4-3.3c0.4-0.4,0.8-0.7,1.2-0.9c0.5-0.2,1-0.3,1.5-0.3c1.3,0,2.2,0.4,2.8,1.4c0.6,0.9,0.9,2.2,0.9,3.8v4.1
		c0,0.7-0.1,1.4-0.2,2.1c0,0.1,0,0.2-0.1,0.3l-0.2,0.4l-1.1,2l0,0l-0.2,0.4h7.4L98.7,24.7z"/>
	<path class="st2" d="M24,24.6l-1.9-2.7l-0.6-1.2L13.9,1.6c-0.1-0.2-0.2-0.4-0.4-0.6c-0.2-0.1-0.4-0.2-0.7-0.2H7.9l0.4,0.6l1.2,1.9
		c0.2,0.2,0.2,0.7,0,1.5L3.1,20.8c-0.2,0.6-0.5,1.1-0.9,1.6l-1.8,2.3L0,25.1h6.3l-0.3-0.5L5,22.7c-0.1-0.3,0-0.9,0.3-1.9L6,19
		c0.1-0.3,0.3-0.6,0.6-0.8C7,18.1,8.5,18,11.3,18c2.6,0,4.1,0.1,4.5,0.2c0.2,0.1,0.3,0.2,0.4,0.3c0.1,0.1,0.2,0.3,0.2,0.5l0.7,1.7
		c0.3,0.9,0.4,1.6,0.2,1.8l-1.2,2.1l-0.3,0.4h8.5L24,24.6z M15,15.9c-0.2,0.1-1.4,0.2-3.7,0.2c-2.3,0-3.6-0.1-3.8-0.2
		c-0.2-0.1-0.2-0.3,0-0.7l3.7-9.5l3.7,9.5C15.1,15.6,15.1,15.8,15,15.9"/>
</g>
</svg>
