<?xml version="1.0" encoding="UTF-8"?><svg id="Calque_1" xmlns="http://www.w3.org/2000/svg" viewBox="0 0 50 50"><defs><style>.cls-1{opacity:0;}.cls-1,.cls-2{fill:#fff;stroke-width:0px;}</style></defs><rect class="cls-1" width="50" height="50"/><path class="cls-2" d="M16.3,20.67c0-.71,0-1.42,0-2.14.05-.33.1-.65.14-.98.19-1.26.55-2.46,1.41-3.44.39-.44.55-.91.54-1.49-.02-1.54-.01-3.08,0-4.63,0-1.07.64-1.7,1.71-1.7.24,0,.48,0,.71,0,.56,0,.64-.1.39-.6-.35-.71-.74-1.4-1.12-2.1-.16-.28-.09-.49.2-.6.31-.11.63-.23.95-.28,2.28-.31,4.57-.27,6.86-.11.53.04,1.05.17,1.56.32.42.12.47.3.26.69-.38.72-.78,1.44-1.14,2.17-.18.36-.08.48.31.48.27,0,.55,0,.82,0,1.14,0,1.73.59,1.74,1.73,0,1.59,0,3.18,0,4.77,0,.41.06.81.35,1.13.83.92,1.27,2.02,1.49,3.21.41,2.15.23,4.27-.25,6.38-.7,3.07-1.85,5.99-3.13,8.86-.92,2.08-1.85,4.15-2.83,6.21-.51,1.07-.49,2.08.01,3.14.72,1.51,1.65,2.87,2.77,4.11.3.33.54.72.75,1.11.08.15.02.38.03.57h-11.69c.02-.22-.02-.46.07-.65.17-.33.37-.66.63-.94,1.12-1.21,2.03-2.56,2.77-4.03.58-1.14.64-2.24.08-3.43-1.21-2.57-2.37-5.16-3.5-7.77-1.11-2.57-2.05-5.2-2.58-7.96-.13-.68-.22-1.37-.32-2.06ZM30.42,9.86c0-.65,0-1.3,0-1.95,0-.3-.14-.44-.43-.44-.42,0-.83,0-1.25,0-.31,0-.49.12-.5.46-.03.83-.11,1.66-.09,2.48,0,.32.19.7.41.94.31.33.72.57,1.11.81.48.3.73.15.74-.42,0-.63,0-1.26,0-1.88ZM19.55,9.82h0c0,.67-.01,1.35,0,2.02.01.44.27.6.63.4.35-.19.69-.41,1.01-.65.46-.34.67-.82.64-1.39-.04-.76-.09-1.51-.12-2.27-.01-.34-.19-.46-.49-.47-.4,0-.81,0-1.21,0-.33,0-.48.14-.47.47,0,.63,0,1.25,0,1.88Z"/></svg>