<svg width="134" height="32" viewBox="0 0 134 32" fill="none" xmlns="http://www.w3.org/2000/svg">
<mask id="mask0_628_489" style="mask-type:luminance" maskUnits="userSpaceOnUse" x="0" y="0" width="134" height="32">
<path d="M133.77 0H0V32H133.77V0Z" fill="white"/>
</mask>
<g mask="url(#mask0_628_489)">
<path d="M110.054 8.11937C107.351 8.11937 105.11 9.00762 103.331 10.7841C102.467 11.6508 101.788 12.6836 101.336 13.8198C100.883 14.956 100.666 16.1721 100.698 17.3944C100.698 19.818 101.461 21.7677 102.986 23.2434C104.534 24.6976 106.486 25.4247 108.843 25.4247C111.523 25.4247 113.73 24.5594 115.463 22.829C116.318 21.9789 116.989 20.963 117.437 19.8439C117.884 18.7247 118.096 17.526 118.062 16.3216C118.092 15.2435 117.904 14.1704 117.511 13.1657C117.119 12.1611 116.528 11.2453 115.775 10.4726C115.041 9.70035 114.152 9.09157 113.166 8.68605C112.18 8.28054 111.12 8.08743 110.054 8.11937ZM113.139 22.0321C112.79 22.496 112.333 22.8678 111.808 23.1149C111.282 23.362 110.704 23.477 110.124 23.4499C108.53 23.4499 107.201 22.6655 106.138 21.0967C105.066 19.4139 104.523 17.4491 104.578 15.4553C104.528 14.1101 104.891 12.7819 105.618 11.6483C105.955 11.1565 106.412 10.7587 106.946 10.4922C107.479 10.2258 108.072 10.0995 108.668 10.1254C110.239 10.1254 111.556 10.9676 112.619 12.652C113.695 14.3602 114.249 16.3447 114.213 18.3625C114.271 19.67 113.894 20.9599 113.139 22.0303" fill="white"/>
<path d="M56.3732 24.7399L55.2388 22.463L55.1212 22.206C54.9418 21.6235 54.8597 21.0155 54.8783 20.4065L54.8419 15.2496C54.8419 12.9654 54.2991 11.2119 53.2135 9.98917C52.1505 8.74319 50.6253 8.12021 48.6381 8.12021C47.4246 8.11738 46.231 8.42729 45.1726 9.01997C44.0721 9.65753 43.1626 10.5778 42.5387 11.6851C41.6839 9.30826 39.8701 8.11996 37.0975 8.12021C34.4862 8.12021 32.4876 9.33201 31.1015 11.7556L31.1317 9.42895V8.3925C31.1317 8.33356 31.1175 8.27549 31.0903 8.22317C31.0631 8.17085 31.0238 8.12581 30.9755 8.09186C30.9273 8.0579 30.8716 8.03601 30.8131 8.02804C30.7546 8.02007 30.6951 8.02624 30.6395 8.04604L25.459 9.89465L25.9523 10.456L26.9716 11.6175C27.0051 11.6538 27.0383 11.6902 27.0692 11.7287C27.4723 12.2755 27.6723 12.9452 27.6349 13.6231V20.4065C27.6556 21.0183 27.5615 21.6286 27.3575 22.206L27.0994 22.7328L26.1165 24.7384L25.9501 25.0787H33.2858L33.0721 24.6722L31.9701 22.5739C31.9508 22.5375 31.9312 22.5012 31.9119 22.463C31.8722 22.383 31.8329 22.2998 31.7936 22.206C31.6142 21.6235 31.5321 21.0155 31.5507 20.4065V16.1494C31.5507 14.4189 31.9666 13.0692 32.7984 12.1003C33.1565 11.6416 33.6136 11.2696 34.1357 11.0119C34.6578 10.7542 35.2315 10.6175 35.8138 10.6119C37.0846 10.5891 37.9625 11.0391 38.4474 11.9617C38.9571 12.8614 39.2119 14.1189 39.2119 15.7342V20.4065C39.2324 21.0183 39.1383 21.6286 38.9345 22.206L38.7711 22.5739L37.6101 24.6352L37.3603 25.0787H44.8064L44.6196 24.7079L43.5151 22.5164C43.5111 22.5088 43.5063 22.5004 43.5027 22.4925C43.4586 22.4052 43.4149 22.3107 43.3705 22.206C43.1917 21.6234 43.1097 21.0155 43.1281 20.4065L43.0917 15.8727C43.1378 14.2113 43.5652 12.9192 44.3739 11.9963C44.7272 11.563 45.1707 11.2118 45.6737 10.967C46.1766 10.7221 46.7269 10.5896 47.2863 10.5785C48.5569 10.5557 49.481 11.0171 50.0586 11.9628C50.66 12.908 50.9605 14.1655 50.96 15.7353V20.4065C50.9806 21.0183 50.8866 21.6286 50.683 22.206C50.6172 22.3932 50.5317 22.5729 50.4281 22.7422L50.4208 22.7542L49.3502 24.5396L49.0254 25.0798H56.5421L56.3732 24.7399Z" fill="white"/>
<path d="M75.1905 10.4038C74.5598 9.66571 73.7719 9.07758 72.8845 8.6824C71.997 8.28723 71.0323 8.09498 70.061 8.11971C67.45 8.11971 65.4167 9.23869 63.9612 11.4766L63.9841 9.83744L64.0104 8.27203C64.0113 8.22032 63.9995 8.16916 63.976 8.12307C63.9525 8.07697 63.918 8.03734 63.8756 8.00765C63.8332 7.97796 63.7841 7.95913 63.7327 7.95281C63.6813 7.94649 63.6291 7.95286 63.5808 7.97138L61.4947 8.76827L58.3369 9.92469L59.8295 11.5566L59.8277 11.5584C60.2774 12.1105 60.5027 12.8113 60.459 13.5216L60.5282 27.3307C60.5512 27.9314 60.4571 28.5308 60.2511 29.0957L59.8084 29.8777L58.8885 31.5016L58.6049 32.0029H66.25L65.9952 31.5434L64.9365 29.6239L64.6842 29.0957C64.5031 28.5255 64.4211 27.9285 64.4418 27.3307L64.4054 23.8352C65.8917 24.8917 67.6757 25.4491 69.5 25.4272C70.5342 25.4345 71.5575 25.2152 72.4976 24.7847C73.4377 24.3541 74.2719 23.7229 74.9411 22.9355C76.4432 21.2508 77.1942 19.0358 77.1939 16.2903C77.1939 13.8667 76.5239 11.9055 75.184 10.4067M72.3767 21.9674C72.0645 22.4795 71.6194 22.8979 71.0886 23.1782C70.5578 23.4584 69.9609 23.5901 69.3613 23.5593C68.7242 23.5512 68.0953 23.4153 67.5118 23.1596C66.9284 22.904 66.4024 22.5339 65.965 22.0713C65.4521 21.5455 65.0499 20.9224 64.782 20.2388C64.5142 19.5553 64.3861 18.8251 64.4054 18.0913V15.7337C64.3834 14.4629 64.7857 13.221 65.5489 12.2037C65.8875 11.7114 66.3438 11.3112 66.8763 11.0392C67.4089 10.7673 68.0009 10.6323 68.5989 10.6463C69.9389 10.6463 71.071 11.3154 71.9952 12.6534C72.9417 13.9915 73.415 15.7566 73.415 17.9488C73.4634 19.3591 73.1023 20.7533 72.3753 21.9634" fill="white"/>
<path d="M133.044 8.88187C132.758 8.61347 132.419 8.40722 132.05 8.27619C131.68 8.14515 131.287 8.09218 130.896 8.12061C129.923 8.13605 128.979 8.45022 128.192 9.02037C127.277 9.66168 126.518 10.5018 125.974 11.4776L125.998 9.86597V8.23003C125.998 8.16986 125.983 8.11061 125.955 8.05743C125.927 8.00425 125.886 7.95875 125.836 7.92488C125.786 7.89102 125.729 7.86982 125.669 7.86313C125.609 7.85644 125.548 7.86446 125.492 7.88649L124.109 8.42962L122.838 8.92913L121.613 9.41082L120.349 9.90741L120.822 10.4465L121.901 11.6757L121.904 11.6797C122.334 12.2333 122.549 12.9245 122.507 13.6243V19.8503C122.509 20.463 122.461 21.0749 122.364 21.68C122.34 21.8591 122.299 22.0356 122.242 22.2071L122.079 22.575L120.917 24.6363L120.912 24.6465L120.668 25.0798H128.114L127.927 24.7086L127.922 24.6999L126.919 22.7095L126.822 22.5176L126.81 22.4936C126.766 22.406 126.722 22.3118 126.678 22.2071C126.499 21.4006 126.413 20.5761 126.423 19.7499V15.7692C126.375 14.6203 126.652 13.4811 127.221 12.4813C127.752 11.6272 128.375 11.2003 129.092 11.2005C129.407 11.2148 129.715 11.2963 129.997 11.4396C130.278 11.5829 130.525 11.7846 130.721 12.0312C131.229 12.585 131.726 12.8619 132.211 12.8619C132.429 12.8559 132.642 12.7997 132.835 12.6976C133.027 12.5956 133.193 12.4505 133.32 12.2737C133.63 11.8532 133.788 11.341 133.771 10.8195C133.783 10.4645 133.726 10.1105 133.601 9.77786C133.476 9.44523 133.286 9.1406 133.043 8.8815" fill="white"/>
<path d="M98.6959 24.7247L98.6868 24.7069L97.6289 22.6081L97.5823 22.5158L97.5703 22.4915C97.5262 22.4042 97.4822 22.3097 97.4381 22.2053C97.2577 21.4565 97.1721 20.6881 97.1833 19.9179L97.152 15.2486C97.152 12.9644 96.609 11.2109 95.5232 9.98817C94.4589 8.7422 92.9329 8.11921 90.9452 8.11921C89.8819 8.09344 88.8282 8.32561 87.8744 8.79581C86.9207 9.26601 86.0955 9.96021 85.4694 10.8189V6.17971L85.4934 2.87912V-0.000488281L83.7245 0.702237L82.3072 1.26536L80.8084 1.86084L79.2102 2.49559L79.9147 3.14996L80.8401 4.01046C81.0274 4.20754 81.1751 4.43869 81.2751 4.69138C81.4755 5.16128 81.5703 5.6693 81.5529 6.17971V20.2233C81.5622 20.8265 81.4899 21.4281 81.3381 22.0119L81.3327 22.029C81.3134 22.0908 81.2933 22.1501 81.2719 22.2039L81.203 22.3588L81.1088 22.5718L79.9471 24.6331L79.6969 25.0766H87.143L86.9577 24.7087V24.7058L85.958 22.723L85.8531 22.5147C85.8491 22.5067 85.8451 22.4984 85.8408 22.4904C85.8102 22.4296 85.7796 22.3598 85.749 22.2911C85.737 22.261 85.7243 22.2359 85.7126 22.2043C85.6718 22.0857 85.6374 21.9651 85.6096 21.8429L85.6052 21.8244C85.5863 21.7349 85.5688 21.6404 85.555 21.5426C85.5139 21.2636 85.4884 20.9825 85.4785 20.7006C85.476 20.6305 85.4738 20.5596 85.4727 20.488C85.4727 20.4276 85.4701 20.3673 85.4701 20.3062V15.0065C85.6548 13.5993 86.1281 12.5149 86.89 11.7532C87.2401 11.3881 87.6593 11.096 88.1233 10.894C88.5873 10.692 89.0869 10.584 89.5931 10.5764C90.8639 10.5536 91.7881 11.0151 92.3657 11.9607C92.9664 12.906 93.2669 14.1634 93.2671 15.7332V19.818C93.2713 20.5251 93.2088 21.2311 93.0804 21.9265C93.0606 22.0212 93.0338 22.1143 93.0003 22.205L92.8372 22.5729L91.6875 24.6134L91.6762 24.6338L91.4265 25.0773H98.8725L98.6959 24.7247Z" fill="white"/>
<path d="M23.9596 24.6215L22.1051 21.9378L21.4964 20.7505L13.9412 1.61152C13.8644 1.38135 13.7146 1.18246 13.5144 1.04507C13.3142 0.907675 13.0746 0.839278 12.8319 0.850265H7.9386L8.29283 1.41884L9.47018 3.30926C9.65513 3.54023 9.64299 4.02495 9.43378 4.76342L3.05807 20.8196C2.85751 21.3903 2.55192 21.9185 2.15703 22.377L0.322189 24.6735L0 25.0767H6.33676L6.08483 24.6146L5.0338 22.6878C4.91852 22.4108 5.01099 21.7878 5.31121 20.8189L6.03932 18.9848C6.12193 18.67 6.31978 18.3976 6.59378 18.2214C6.96366 18.0599 8.53492 17.9792 11.3076 17.9792C13.9181 17.9792 15.4083 18.0484 15.7782 18.1868C15.9389 18.2731 16.0802 18.3913 16.1935 18.5342C16.3068 18.677 16.3895 18.8415 16.4368 19.0175L17.0953 20.748C17.3958 21.6932 17.4536 22.3045 17.2686 22.582L16.0549 24.6371L15.7946 25.0767H24.2771L23.9596 24.6215ZM15.0155 15.9398C14.8305 16.0784 13.606 16.1476 11.3418 16.1474C9.05455 16.1474 7.78376 16.0897 7.5294 15.9743C7.34446 15.882 7.33293 15.6396 7.49482 15.2472L11.2031 5.72972L14.9463 15.2472C15.0847 15.6166 15.1077 15.8468 15.0155 15.938" fill="white"/>
</g>
</svg>
