<?xml version="1.0" encoding="UTF-8"?><svg id="Calque_1" xmlns="http://www.w3.org/2000/svg" xmlns:xlink="http://www.w3.org/1999/xlink" viewBox="0 0 200 82"><defs><style>.cls-1{fill:url(#Dégradé_sans_nom);}.cls-1,.cls-2,.cls-3,.cls-4,.cls-5{stroke-width:0px;}.cls-2{fill:#f3f3f3;}.cls-3{fill:url(#Dégradé_sans_nom_4);}.cls-4{fill:url(#Dégradé_sans_nom_2);}.cls-5{fill:url(#Dégradé_sans_nom_3);}</style><radialGradient id="Dégradé_sans_nom" cx="-846.85" cy="602.95" fx="-846.85" fy="602.95" r="1" gradientTransform="translate(-24680 34762) rotate(90) scale(41 -41)" gradientUnits="userSpaceOnUse"><stop offset="0" stop-color="#0e122b"/><stop offset=".25" stop-color="#131d52"/><stop offset=".61" stop-color="#2750aa"/><stop offset=".93" stop-color="#a3eaff"/><stop offset="1" stop-color="#fff"/></radialGradient><radialGradient id="Dégradé_sans_nom_2" cx="-844.49" cy="607.08" fx="-844.49" fy="607.08" r="1" gradientTransform="translate(-20747.08 29019.82) rotate(90) scale(34.32 -34.25)" gradientUnits="userSpaceOnUse"><stop offset="0" stop-color="#f85f97"/><stop offset=".55" stop-color="#330e18"/><stop offset="1" stop-color="#f00a38"/></radialGradient><radialGradient id="Dégradé_sans_nom_3" cx="-839.54" cy="615.48" fx="-839.54" fy="615.48" r="1" gradientTransform="translate(-15750.96 21527.56) rotate(90) scale(25.59 -25.66)" gradientUnits="userSpaceOnUse"><stop offset="0" stop-color="#23164b"/><stop offset=".49" stop-color="#15105d"/><stop offset=".94" stop-color="#2d68c6"/><stop offset="1" stop-color="#fff"/></radialGradient><radialGradient id="Dégradé_sans_nom_4" cx="-821.93" cy="645.95" fx="-821.93" fy="645.95" r="1" gradientTransform="translate(-8646.12 11082.18) rotate(90) scale(13.43 -13.43)" gradientUnits="userSpaceOnUse"><stop offset="0" stop-color="#bb2354"/><stop offset=".56" stop-color="#ce2c65"/><stop offset="1" stop-color="#ff94ce"/></radialGradient></defs><circle class="cls-1" cx="41" cy="41" r="41"/><ellipse class="cls-4" cx="46.35" cy="41.06" rx="34.25" ry="34.32"/><ellipse class="cls-5" cx="40.3" cy="41" rx="25.66" ry="25.59"/><circle class="cls-3" cx="31" cy="41.06" r="13.43"/><path class="cls-2" d="M177,53.86l-5.77-19.89h3.58l4.38,16.71,4.58-16.71h3.58l4.57,16.71,4.38-16.71h3.58l-5.77,19.89h-4.18l-4.38-15.79-4.38,15.79h-4.18Z"/><path class="cls-2" d="M161.9,54.45c-6.56,0-9.75-4.77-9.75-10.54s3.18-10.54,9.75-10.54,9.75,4.77,9.75,10.54-3.18,10.54-9.75,10.54ZM155.73,43.91c0,5.77,2.78,8.16,6.17,8.16s6.17-2.39,6.17-8.16-2.79-8.16-6.17-8.16-6.17,2.39-6.17,8.16Z"/><path class="cls-2" d="M150.55,53.86h-3.38v-25.86h3.38v25.86Z"/><path class="cls-2" d="M145.17,53.86h-3.38v-25.86h3.38v25.86Z"/><path class="cls-2" d="M131.26,54.45c-6.56,0-9.75-4.77-9.75-10.54s3.18-10.54,9.55-10.54,9.15,4.97,9.15,9.75v1.59h-15.12c.24,5.21,2.94,7.36,6.17,7.36,2.59,0,4.77-1.39,5.37-4.18h3.38c-.8,3.78-3.78,6.56-8.75,6.56ZM131.07,35.76c-3.06,0-5.45,1.95-5.89,6.56h11.46c0-4.57-2.55-6.56-5.57-6.56Z"/><path class="cls-2" d="M92.88,53.86v-25.86h5.17l8.35,21.88,8.35-21.88h5.17v25.86h-3.38v-22.28l-8.55,22.28h-3.18l-8.55-22.28v22.28h-3.38Z"/></svg>