<?xml version="1.0" encoding="UTF-8"?><svg id="Calque_1" xmlns="http://www.w3.org/2000/svg" viewBox="0 0 200 82"><defs><style>.cls-1{fill-rule:evenodd;}.cls-1,.cls-2{fill:#9592ad;stroke-width:0px;}</style></defs><path class="cls-2" d="M177,53.86l-5.77-19.89h3.58l4.38,16.71,4.58-16.71h3.58l4.57,16.71,4.38-16.71h3.58l-5.77,19.89h-4.18l-4.38-15.79-4.38,15.79h-4.18Z"/><path class="cls-2" d="M161.9,54.45c-6.56,0-9.75-4.77-9.75-10.54s3.18-10.54,9.75-10.54,9.75,4.77,9.75,10.54-3.18,10.54-9.75,10.54ZM155.73,43.91c0,5.77,2.78,8.16,6.17,8.16s6.17-2.39,6.17-8.16-2.79-8.16-6.17-8.16-6.17,2.39-6.17,8.16Z"/><path class="cls-2" d="M150.55,53.86h-3.38v-25.86h3.38v25.86Z"/><path class="cls-2" d="M145.17,53.86h-3.38v-25.86h3.38v25.86Z"/><path class="cls-2" d="M131.26,54.45c-6.56,0-9.75-4.77-9.75-10.54s3.18-10.54,9.55-10.54,9.15,4.97,9.15,9.75v1.59h-15.12c.24,5.21,2.94,7.36,6.17,7.36,2.59,0,4.77-1.39,5.37-4.18h3.38c-.8,3.78-3.78,6.56-8.75,6.56ZM131.07,35.76c-3.06,0-5.45,1.95-5.89,6.56h11.46c0-4.57-2.55-6.56-5.57-6.56Z"/><path class="cls-2" d="M92.88,53.86v-25.86h5.17l8.35,21.88,8.35-21.88h5.17v25.86h-3.38v-22.28l-8.55,22.28h-3.18l-8.55-22.28v22.28h-3.38Z"/><path class="cls-1" d="M41,79.95c21.51,0,38.95-17.44,38.95-38.95S62.51,2.05,41,2.05,2.05,19.49,2.05,41s17.44,38.95,38.95,38.95ZM41,82c22.64,0,41-18.36,41-41S63.64,0,41,0,0,18.36,0,41s18.36,41,41,41Z"/><path class="cls-1" d="M47.15,68.68c15.28,0,27.67-12.39,27.67-27.68s-12.39-27.68-27.67-27.68-27.68,12.39-27.68,27.68,12.39,27.68,27.68,27.68ZM47.15,70.72c16.42,0,29.72-13.31,29.72-29.72s-13.31-29.73-29.72-29.73-29.73,13.31-29.73,29.73,13.31,29.72,29.73,29.72Z"/><path class="cls-1" d="M39.97,56.38c8.49,0,15.38-6.88,15.38-15.38s-6.88-15.38-15.38-15.38-15.37,6.88-15.37,15.38,6.88,15.38,15.37,15.38ZM39.97,58.42c9.62,0,17.43-7.8,17.43-17.42s-7.8-17.42-17.43-17.42-17.42,7.8-17.42,17.42,7.8,17.42,17.42,17.42Z"/></svg>