<?xml version="1.0" encoding="utf-8"?>
<!-- Generator: Adobe Illustrator 28.2.0, SVG Export Plug-In . SVG Version: 6.00 Build 0)  -->
<svg version="1.1" id="Calque_1" xmlns="http://www.w3.org/2000/svg" xmlns:xlink="http://www.w3.org/1999/xlink" x="0px" y="0px"
	 viewBox="0 0 153.1 40.3" style="enable-background:new 0 0 153.1 40.3;" xml:space="preserve">
<style type="text/css">
	.st0{fill:#9592AD;}
	.st1{fill:#58566C;}
</style>
<g>
	<g>
		<g>
			<g>
				<g>
					<path class="st0" d="M59.5,20.7c-0.3,0-0.5-0.1-0.8-0.2l-7.6-4.4c-0.5-0.3-0.8-0.8-0.8-1.4V5.9c0-0.6,0.3-1.1,0.8-1.4l7.6-4.4
						c0.5-0.3,1.1-0.3,1.6,0l7.6,4.4c0.5,0.3,0.8,0.8,0.8,1.4v8.8c0,0.6-0.3,1.1-0.8,1.4l-7.6,4.4C60,20.6,59.7,20.7,59.5,20.7
						L59.5,20.7z M59.5,1.1c-0.1,0-0.2,0-0.3,0.1l-7.6,4.4c-0.2,0.1-0.3,0.3-0.3,0.4v8.8c0,0.2,0.1,0.4,0.3,0.4l7.6,4.4
						c0.2,0.1,0.4,0.1,0.5,0l7.6-4.4c0.2-0.1,0.3-0.3,0.3-0.4V5.9c0-0.2-0.1-0.4-0.3-0.4l-7.6-4.4C59.7,1.1,59.6,1.1,59.5,1.1z"/>
					<path class="st0" d="M59.5,16.1c-0.2,0-0.4,0-0.5-0.1l-4.1-2.4c-0.3-0.2-0.5-0.6-0.5-0.9V8c0-0.4,0.2-0.7,0.5-0.9L59,4.7
						c0.3-0.2,0.8-0.2,1.1,0l4,2.3c0.3,0.2,0.5,0.6,0.5,0.9v4.7c0,0.4-0.2,0.7-0.5,0.9L60,16C59.9,16.1,59.7,16.1,59.5,16.1z
						 M59.5,5.6L59.5,5.6L55.4,8l0,0v4.7l0,0l4.1,2.4l0,0l4.1-2.4l0,0V8l0,0L59.5,5.6L59.5,5.6L59.5,5.6z"/>
					<path class="st0" d="M58.6,10v0.7c0,0.1,0,0.2,0.1,0.2l0.6,0.4c0.1,0,0.2,0,0.2,0l0.6-0.4c0.1,0,0.1-0.1,0.1-0.2V10
						c0-0.1,0-0.2-0.1-0.2l-0.6-0.4c-0.1,0-0.2,0-0.2,0l-0.6,0.4C58.6,9.8,58.6,9.9,58.6,10z"/>
					<path class="st0" d="M67.7,5l-8.5,4.9l0.5,0.9l8.5-4.9L67.7,5z"/>
					<path class="st0" d="M9.3,1C4.2,1,0,5.2,0,10.4s4.2,9.3,9.3,9.3s9.3-4.2,9.3-9.3C18.7,5.2,14.5,1,9.3,1z M9.3,18.7
						C4.7,18.7,1,15,1,10.4s3.7-8.3,8.3-8.3s8.3,3.7,8.3,8.3C17.6,14.9,13.9,18.7,9.3,18.7z"/>
					<path class="st0" d="M103.2,1.3h-1.1v18.2h1.1V1.3z"/>
					<path class="st0" d="M122.7,1c-5.2,0-9.3,4.2-9.3,9.3s4.2,9.3,9.3,9.3c5.2,0,9.3-4.2,9.3-9.3S127.8,1,122.7,1z M122.7,18.7
						c-4.6,0-8.3-3.7-8.3-8.3s3.7-8.3,8.3-8.3c4.6,0,8.3,3.7,8.3,8.3C130.9,14.9,127.2,18.7,122.7,18.7z"/>
					<path class="st0" d="M34.6,10.4l8,9.1h-1.4l-7.3-8.3l-7.3,8.3h-1.4l8-9.1l-8-9.1h1.4l7.3,8.3l7.3-8.3h1.4L34.6,10.4z"/>
					<path class="st0" d="M87.1,10.9c1-0.1,2-0.6,2.8-1.4C90.4,9,90.8,8.3,91,7.7l0.1-0.2c0-0.1,0-0.1,0.1-0.2
						c0-0.1,0.1-0.3,0.1-0.4V6.8c0-0.1,0-0.2,0-0.2c0-0.1,0-0.2,0-0.2c0-0.1,0-0.1,0-0.2s0-0.2,0-0.2c-0.1-1-0.4-2-1.1-2.8l0,0
						c-0.9-1.1-2.3-1.7-3.7-1.7h-8.9v9.4h0.2V11h-0.2v8.8h1.1v-8.6h7.2l4.7,8.6h1.2L87.1,10.9z M78.6,2.3h7.8c1.1,0,2.1,0.4,2.8,1.2
						C89.6,4,89.9,4.4,90.1,5c0,0.1,0.1,0.3,0.1,0.4c0,0.2,0.1,0.4,0.1,0.7c0,0.1,0,0.1,0,0.2c0,0,0,0.1,0,0.2v0.1l0,0
						c0,0.1,0,0.2-0.1,0.4v0.1v0.1v0.1c0,0.1,0,0.1,0,0.2v0.1c0,0.1-0.1,0.1-0.1,0.2S90,7.9,90,8c0,0,0,0.1-0.1,0.1
						c0,0.1-0.1,0.1-0.1,0.2c0,0.1-0.1,0.1-0.1,0.2c-0.1,0.2-0.2,0.3-0.4,0.5c-0.7,0.7-1.7,1.1-2.7,1.1h-7.8V2.3H78.6z"/>
				</g>
			</g>
		</g>
		<path class="st1" d="M128.4,23.9h22.4c1.2,0,2.2,1,2.2,2.2v12c0,1.2-1,2.2-2.2,2.2h-22.4c-1.2,0-2.2-1-2.2-2.2v-12
			C126.2,24.9,127.2,23.9,128.4,23.9z"/>
		<path d="M133.3,35.2l-1.1-8.6h2l0.6,5.9l3.8-5.9h2.1l-5.7,8.6H133.3z M139.5,35.1l0.5-1.9h2l-0.5,1.9H139.5z M144.5,35.1l1.8-6.6
			l-1.5,0.4v-1.6l2.7-0.7h1.3l-2.3,8.6L144.5,35.1L144.5,35.1z"/>
	</g>
</g>
</svg>
