<?xml version="1.0" encoding="utf-8"?>
<!-- Generator: Adobe Illustrator 28.2.0, SVG Export Plug-In . SVG Version: 6.00 Build 0)  -->
<svg version="1.1" id="Calque_1" xmlns="http://www.w3.org/2000/svg" xmlns:xlink="http://www.w3.org/1999/xlink" x="0px" y="0px"
	 viewBox="0 0 193.9 25.1" style="enable-background:new 0 0 193.9 25.1;" xml:space="preserve">
<style type="text/css">
	.st0{fill:#FFFFFF;}
	.st1{fill:url(#Vector_13_00000012446336821780338560000014006978778808370076_);}
</style>
<g>
	<g id="logo__x28_1_x29__2">
		<path id="Vector" class="st0" d="M37.7,23.3v-5.8c0.6,0.8,1.7,1.2,3,1.2c3.2,0,5.4-2.4,5.4-6.1s-2-6.1-5.2-6.1
			c-1.5,0-2.6,0.6-3.2,1.5V6.8h-3.1v16.5L37.7,23.3z M40.3,15.9c-1.7,0-2.8-1.3-2.8-3.3s1.1-3.3,2.8-3.3c1.6,0,2.7,1.3,2.7,3.3
			C43,14.7,41.9,15.9,40.3,15.9z"/>
		<path id="Vector_2" class="st0" d="M53.4,18.8c3.6,0,6.1-2.6,6.1-6.1S57,6.6,53.4,6.6c-3.6,0-6.1,2.6-6.1,6.1S49.8,18.8,53.4,18.8
			z M53.4,16c-1.7,0-2.9-1.3-2.9-3.3s1.2-3.3,2.9-3.3c1.7,0,2.9,1.3,2.9,3.3S55.1,16,53.4,16z"/>
		<path id="Vector_3" class="st0" d="M64.3,18.4V1.7h-2.8v16.7H64.3z"/>
		<path id="Vector_4" class="st0" d="M74.1,7l-2.4,7.5L69.2,7h-3.3l4.2,11.5l-1.7,4.8h3.1l1.7-4.7L77.4,7L74.1,7z"/>
		<path id="Vector_5" class="st0" d="M86,8c-0.6-0.8-1.8-1.4-3.2-1.4c-3.4,0-5.4,2.4-5.4,6.1c0,3.7,2,6.1,5.5,6.1
			c1.4,0,2.6-0.5,3.2-1.4v1.5c0,1.1-0.7,1.9-1.7,1.9H79v2.5h5.9c2.6,0,4.4-1.6,4.4-4.1V6.8H86V8z M83.4,15.9c-1.7,0-2.8-1.3-2.8-3.3
			c0-2,1.1-3.3,2.8-3.3c1.7,0,2.9,1.3,2.9,3.3C86.2,14.7,85.1,15.9,83.4,15.9z"/>
		<path id="Vector_6" class="st0" d="M97.2,18.8c3.5,0,5.9-2.6,5.9-6.1s-2.5-6.1-5.9-6.1c-3.5,0-5.9,2.6-5.9,6.1
			S93.7,18.8,97.2,18.8z M97.2,16c-1.7,0-2.8-1.3-2.8-3.3s1.1-3.3,2.8-3.3c1.7,0,2.8,1.3,2.8,3.3S98.9,16,97.2,16z"/>
		<path id="Vector_7" class="st0" d="M107.9,18.4v-6.4c0-1.5,1-2.6,2.4-2.6c1.3,0,2.2,1,2.2,2.4v6.5h3.2v-7.2c0-2.7-1.7-4.6-4.3-4.6
			c-1.6,0-2.9,0.7-3.5,1.8V6.8h-3.2v11.6H107.9z"/>
		<path id="Vector_8" class="st0" d="M123.3,16.7l7.5-9h-7.2V6h9.4v1.8l-7.5,9h7.8v1.8h-10.1V16.7z"/>
		<path id="Vector_9" class="st0" d="M135.9,18.4V0.8h1.9v10.4l5.7-5.3h2.5l-5.2,4.9l5.7,7.6h-2.4l-4.7-6.2l-1.6,1.5v4.8H135.9z"/>
		<path id="Vector_10" class="st0" d="M148.7,1.1h10.5V3h-8.5v5.5h6.9v1.9h-6.9v6.1h8.8v1.9h-10.8V1.1z"/>
		<path id="Vector_11" class="st0" d="M160.7,1.1h2.1l5.3,14.9l5.3-14.9h2.1l-6.4,17.3H167L160.7,1.1z"/>
		<path id="Vector_12" class="st0" d="M177.5,1.1h2.7l5.6,14.5l5.5-14.5h2.7v17.3h-2V4.6l-5.3,13.8h-1.8l-5.3-13.8v13.8h-2V1.1z"/>
		
			<linearGradient id="Vector_13_00000095322217599767860340000010385971752733747090_" gradientUnits="userSpaceOnUse" x1="3.1827" y1="19.2131" x2="24.2632" y2="7.6003" gradientTransform="matrix(1 0 0 -1 0 25.9717)">
			<stop  offset="0" style="stop-color:#A128C5"/>
			<stop  offset="1" style="stop-color:#7C3FE3"/>
		</linearGradient>
		<path id="Vector_13" style="fill:url(#Vector_13_00000095322217599767860340000010385971752733747090_);" d="M13.2,3.9
			c-0.3,0.2-0.5,0.4-0.6,0.7c-0.2,0.3-0.2,0.6-0.2,0.9l0.1,4.8l0,3.2l0.1,4.8c0,0.3-0.1,0.6-0.2,0.9c-0.2,0.3-0.4,0.5-0.6,0.7
			l-3.2,1.9c-0.3,0.2-0.5,0.2-0.8,0.2c-0.3,0-0.6-0.1-0.9-0.2l-3.1-1.8c-0.3-0.1-0.5-0.4-0.6-0.6c-0.1-0.3-0.2-0.6-0.2-0.9l0-3.7
			c0-0.3,0.1-0.6,0.2-0.9c0.2-0.3,0.4-0.5,0.6-0.7l3.1-1.9c0.3-0.2,0.5-0.2,0.8-0.2c0.3,0,0.6,0.1,0.9,0.2l2,1.2l0-3.2l-2-1.2
			C8.1,7.8,7.8,7.7,7.5,7.7c-0.3,0-0.6,0.1-0.8,0.3l-5.8,3.5c-0.3,0.2-0.5,0.4-0.6,0.7C0.1,12.4,0,12.7,0,13l0,7
			c0,0.3,0.1,0.6,0.2,0.9c0.1,0.3,0.4,0.5,0.6,0.6l5.8,3.4c0.3,0.2,0.6,0.2,0.9,0.2c0.3,0,0.6-0.1,0.8-0.3l5.8-3.6
			c0.3-0.2,0.5-0.4,0.6-0.7c0.2-0.3,0.2-0.6,0.2-0.9l0-4.7l0-3.2L15,7c0-0.3,0.1-0.6,0.2-0.9c0.2-0.3,0.4-0.5,0.6-0.7L19,3.6
			c0.3-0.2,0.5-0.2,0.8-0.2c0.3,0,0.6,0.1,0.9,0.2l3.1,1.8c0.3,0.1,0.5,0.4,0.6,0.6c0.1,0.3,0.2,0.6,0.2,0.9l0,3.7
			c0,0.3-0.1,0.6-0.2,0.9c-0.2,0.3-0.4,0.5-0.6,0.7l-3.1,1.9c-0.3,0.2-0.5,0.2-0.8,0.2c-0.3,0-0.6-0.1-0.9-0.2l-2-1.2l0,3.2l2,1.2
			c0.3,0.2,0.6,0.2,0.9,0.2c0.3,0,0.6-0.1,0.8-0.3l5.8-3.6c0.3-0.2,0.5-0.4,0.6-0.7c0.2-0.3,0.2-0.6,0.2-0.9l0-7
			c0-0.3-0.1-0.6-0.2-0.9c-0.1-0.3-0.4-0.5-0.6-0.6l-5.8-3.4C20.5,0.1,20.2,0,19.9,0c-0.3,0-0.6,0.1-0.8,0.3L13.2,3.9z"/>
	</g>
</g>
</svg>
