<?xml version="1.0" encoding="utf-8"?>
<!-- Generator: Adobe Illustrator 28.2.0, SVG Export Plug-In . SVG Version: 6.00 Build 0)  -->
<svg version="1.1" id="Calque_1" xmlns="http://www.w3.org/2000/svg" xmlns:xlink="http://www.w3.org/1999/xlink" x="0px" y="0px"
	 viewBox="0 0 145.6 35" style="enable-background:new 0 0 145.6 35;" xml:space="preserve">
<style type="text/css">
	.st0{fill:#C4FF61;}
</style>
<g>
	<g id="logo-text_3">
		<path id="Vector" class="st0" d="M22.3,17.6c1.1-1.7,1.7-3.7,1.7-5.7c0-1.9-0.5-3.7-1.4-5.3c-1-1.6-2.2-2.9-3.8-3.8
			c-1.6-0.9-3.4-1.4-5.3-1.4H0v4.4h13.5c1.7,0,3.1,0.6,4.3,1.8c1.2,1.2,1.8,2.6,1.8,4.3S19,15,17.9,16.2c-1.2,1.2-2.6,1.8-4.3,1.8H0
			v15.5h4.4V22.4h9.1c0,0,0.1,0,0.2,0c0.1,0,0.1,0,0.2,0l5.8,11.1h4.4l-6.3-12C19.7,20.6,21.2,19.3,22.3,17.6z"/>
		<path id="Vector_2" class="st0" d="M28.8,15.2v4.4h22.6v-4.4H28.8z M28.8,29.2l-2.3,4.4h25v-4.4H28.8z M26.5,1.3l2.3,4.4h22.6V1.3
			H26.5z"/>
		<path id="Vector_3" class="st0" d="M78.6,1.3v23.2L54.8,0v33.6h4.4V10.7L83.1,35V1.3H78.6z"/>
		<path id="Vector_4" class="st0" d="M95.4,21.7l7.9-4.7c2-1.2,3.7-2.8,4.8-4.9c1.2-2.1,1.7-4.3,1.7-6.7V1.3H86.7v4.4h18.7v0.1
			c0,1.5-0.4,3-1.1,4.3c-0.8,1.3-1.8,2.4-3.1,3.1l-7.8,4.6c-2.1,1.2-3.7,2.8-4.9,4.9c-1.2,2.1-1.8,4.3-1.8,6.7v4.1h23.1v-4.4H91.2
			c0-1.5,0.4-3,1.1-4.3C93,23.5,94.1,22.4,95.4,21.7z"/>
		<path id="Vector_5" class="st0" d="M145.6,18.8C145.6,18.9,145.6,18.9,145.6,18.8c-0.7,7.8-6.9,13.9-14.4,14.7c-0.1,0-0.1,0-0.2,0
			L145.6,18.8z"/>
		<path id="Vector_6" class="st0" d="M136.5,2.8c-0.4-0.2-0.8-0.4-1.2-0.5c-0.8-0.3-1.7-0.6-2.6-0.8c-1.1-0.2-2.2-0.3-3.3-0.3
			c-0.5,0-1.1,0-1.6,0.1c-3.7,0.4-7.1,2-9.7,4.5c-0.2,0.2-0.3,0.3-0.5,0.5c-2.4,2.6-4,6-4.4,9.7c0,0.5-0.1,1-0.1,1.5
			c0,1.2,0.1,2.4,0.4,3.5c0.2,0.9,0.4,1.7,0.8,2.5c0.2,0.4,0.4,0.9,0.6,1.3c0.4,0.7,0.8,1.4,1.3,2.1l2.7-2.7L136,6.7l2.7-2.7
			C138,3.6,137.3,3.2,136.5,2.8z M117.3,20.4c0-0.1-0.1-0.2-0.1-0.3c-0.2-0.9-0.3-1.8-0.3-2.7c0-3.2,1.2-6.2,3.4-8.5l0.4-0.4
			c2.4-2.3,5.4-3.5,8.7-3.5c0.9,0,1.7,0.1,2.5,0.3c0.1,0,0.3,0.1,0.4,0.1L117.3,20.4z"/>
		<path id="Vector_7" class="st0" d="M123.8,32.6c-0.4-0.2-0.8-0.3-1.2-0.5c-0.8-0.4-1.6-0.8-2.3-1.3l22.4-22.6
			c0.5,0.7,0.9,1.4,1.3,2.2c0.2,0.4,0.4,0.8,0.5,1.2L123.8,32.6z"/>
	</g>
</g>
</svg>
