<svg width="41" height="41" viewBox="0 0 41 41" fill="none" xmlns="http://www.w3.org/2000/svg">
<g clip-path="url(#clip0_682_50151)">
<path d="M29.008 6.80756H11.3919C10.2046 6.80756 9.0659 7.27895 8.22635 8.11804C7.38679 8.95713 6.91513 10.0952 6.91513 11.2818V24.7046C6.91306 25.2928 7.02744 25.8755 7.25168 26.4193C7.47593 26.9631 7.80561 27.4572 8.22173 27.8731C8.63785 28.2889 9.13219 28.6184 9.67627 28.8426C10.2204 29.0667 10.8034 29.181 11.3919 29.1789H29.008C30.1953 29.1789 31.334 28.7075 32.1736 27.8684C33.0131 27.0293 33.4848 25.8913 33.4848 24.7046V11.2818C33.4813 10.0963 33.0085 8.96027 32.1697 8.12195C31.3309 7.28363 30.1942 6.8111 29.008 6.80756ZM31.2464 24.7046C31.2464 25.298 31.0106 25.867 30.5908 26.2865C30.171 26.7061 29.6017 26.9418 29.008 26.9418H11.3919C11.0971 26.9448 10.8047 26.889 10.5318 26.7776C10.2589 26.6662 10.0109 26.5015 9.80245 26.2932C9.594 26.0849 9.42924 25.8371 9.31781 25.5643C9.20638 25.2915 9.15052 24.9993 9.15352 24.7046V11.2818C9.15352 10.6885 9.38934 10.1195 9.80912 9.69993C10.2289 9.28039 10.7982 9.04469 11.3919 9.04469H29.008C29.6017 9.04469 30.171 9.28039 30.5908 9.69993C31.0106 10.1195 31.2464 10.6885 31.2464 11.2818V24.7046Z" fill="#CF7C01"/>
<path d="M25.2699 16.8747H23.9045C23.7355 16.2553 23.4083 15.6905 22.9551 15.2356C22.5019 14.7806 21.9381 14.4512 21.3192 14.2796V12.915C21.3127 12.6244 21.1913 12.3482 20.9815 12.147C20.7717 11.9457 20.4907 11.8357 20.2 11.8411C19.9107 11.8409 19.6327 11.9526 19.424 12.1528C19.2154 12.353 19.0924 12.6261 19.0808 12.915V14.2796C18.4597 14.4495 17.8937 14.7782 17.4384 15.2332C16.9831 15.6883 16.6543 16.254 16.4843 16.8747H15.1188C14.8298 16.8863 14.5565 17.0092 14.3562 17.2177C14.1559 17.4262 14.0442 17.7042 14.0444 17.9933C14.039 18.2838 14.149 18.5647 14.3504 18.7744C14.5518 18.984 14.8281 19.1054 15.1188 19.1118H16.4843C16.6543 19.7325 16.9831 20.2982 17.4384 20.7533C17.8937 21.2083 18.4597 21.537 19.0808 21.7069V23.0939C19.0919 23.3809 19.2155 23.6521 19.4249 23.8488C19.6343 24.0455 19.9127 24.1521 20.2 24.1454C20.3427 24.1505 20.485 24.1272 20.6187 24.077C20.7524 24.0268 20.8748 23.9506 20.9789 23.8528C21.083 23.7551 21.1666 23.6377 21.225 23.5074C21.2834 23.3772 21.3154 23.2366 21.3192 23.0939V21.7069C21.9437 21.5441 22.5135 21.2178 22.9699 20.7616C23.4263 20.3055 23.7528 19.736 23.9157 19.1118H25.2811C25.4256 19.1104 25.5684 19.0802 25.701 19.0229C25.8337 18.9656 25.9535 18.8825 26.0536 18.7783C26.1537 18.6741 26.2319 18.551 26.2838 18.4162C26.3356 18.2814 26.36 18.1376 26.3555 17.9933C26.3582 17.8484 26.3322 17.7045 26.279 17.5698C26.2258 17.4351 26.1465 17.3122 26.0456 17.2082C25.9447 17.1043 25.8242 17.0213 25.6911 16.964C25.558 16.9068 25.4148 16.8764 25.2699 16.8747ZM20.2 19.6711C19.8679 19.6711 19.5434 19.5727 19.2673 19.3883C18.9912 19.204 18.776 18.9419 18.649 18.6353C18.5219 18.3288 18.4887 17.9914 18.5534 17.6659C18.6182 17.3405 18.7781 17.0415 19.0129 16.8068C19.2477 16.5722 19.5468 16.4124 19.8725 16.3476C20.1981 16.2829 20.5357 16.3161 20.8424 16.4431C21.1492 16.5701 21.4114 16.7852 21.5958 17.0611C21.7803 17.337 21.8788 17.6614 21.8788 17.9933C21.8791 18.2137 21.8358 18.432 21.7516 18.6357C21.6673 18.8394 21.5437 19.0245 21.3877 19.1803C21.2318 19.3362 21.0466 19.4598 20.8428 19.544C20.639 19.6282 20.4205 19.6714 20.2 19.6711Z" fill="#CF7C01"/>
<path fill-rule="evenodd" clip-rule="evenodd" d="M5.79595 0.0961914H34.604C36.0869 0.100324 37.5078 0.690895 38.5564 1.73886C39.6049 2.78683 40.1958 4.20699 40.2 5.68903V30.2975C40.2 30.3029 40.2 30.3082 40.2 30.3135V25.2797H37.9616V5.68903C37.9616 4.79904 37.6079 3.94551 36.9782 3.31619C36.3485 2.68687 35.4945 2.33333 34.604 2.33333H5.79595C4.90547 2.33333 4.05145 2.68687 3.42178 3.31619C2.79211 3.94551 2.43837 4.79904 2.43837 5.68903V30.2975C2.43837 31.1875 2.79211 32.0411 3.42178 32.6704C4.05145 33.2997 4.90547 33.6532 5.79595 33.6532H16.6718V35.8904H15.712V36.7405C15.712 37.6305 15.3583 38.484 14.7286 39.1133C14.0989 39.7426 13.2449 40.0962 12.3544 40.0962H9.15354C8.26305 40.0962 7.40903 39.7426 6.77937 39.1133C6.1497 38.484 5.79595 37.6305 5.79595 36.7405V35.8904C4.31181 35.8904 2.88845 35.3011 1.839 34.2523C0.789556 33.2034 0.199982 31.7808 0.199982 30.2975V5.68903C0.204116 4.20699 0.795018 2.78683 1.84357 1.73886C2.89212 0.690895 4.31308 0.100324 5.79595 0.0961914ZM13.1458 37.5314C13.3557 37.3217 13.4736 37.0372 13.4736 36.7405V35.8904H8.03434V36.7405C8.03434 37.0372 8.15226 37.3217 8.36215 37.5314C8.57204 37.7412 8.85671 37.8591 9.15354 37.8591H12.3544C12.6513 37.8591 12.9359 37.7412 13.1458 37.5314Z" fill="#CF7C01"/>
<path d="M39.0865 26.912C39.0865 36.5084 30.2717 34.8012 20.3064 34.8012" stroke="#CF7C01" stroke-width="2.25"/>
<path d="M23.2699 38.5701L19.6271 34.9273L23.2699 31.2845" stroke="#CF7C01" stroke-width="2.5"/>
</g>
<defs>
<clipPath id="clip0_682_50151">
<rect width="40" height="40" fill="white" transform="translate(0.199982 0.0961914)"/>
</clipPath>
</defs>
</svg>
