<?xml version="1.0" encoding="utf-8"?>
<!-- Generator: Adobe Illustrator 28.2.0, SVG Export Plug-In . SVG Version: 6.00 Build 0)  -->
<svg version="1.1" id="Calque_1" xmlns="http://www.w3.org/2000/svg" xmlns:xlink="http://www.w3.org/1999/xlink" x="0px" y="0px"
	 viewBox="0 0 147.4 46.4" style="enable-background:new 0 0 147.4 46.4;" xml:space="preserve">
<style type="text/css">
	.st0{fill:#9592AD;}
	.st1{fill:#58566C;}
</style>
<g>
	<g>
		<g>
			<g>
				<g>
					<path class="st0" d="M19.1,0.2C9.3,0.2,4.5,2.7,1.4,5.9C-1,8.3,0,13.8,2.1,16.8c2.2,3.1,6.3,7.9,17,10c3.6,0.7,5.6,1.1,6.8,1.4
						c-0.2,1.4-1.4,3-4.2,4.5c-3.8,2-11.4-0.2-16.6-7c-1.9-2.4-3.4-6.3-3.4-6.3S3.3,27.5,8,33.1c4.8,5.8,8.4,6.5,11.2,6.5
						c3.8,0,7.2-1.8,9.9-4.5l0,0c0,0,6.4-5.7,3.4-10C29.6,20.9,22,21.7,14,18.4c-6.3-2.4-7.7-8-5.4-9.6c2.6-1.8,5.3-2.1,10.5-2.1
						c6.1,0,10.1,1.2,12.3,2.6c0.7,0.6,1.9,3.1,0.1,3.9c-1,0.4-2.5-0.8-2.5-0.8c-1-0.9-1.9-1.6-2.8-2c-1.1-0.6-1.9-0.8-3.1-0.7
						c-0.7,0-1.5,0.2-2.1,0.4c-1,0.4-1.6,0.4-2.2,0.1c-0.6-0.3-3-1-5.1-0.3c-1.7,0.6-1,1.2-0.8,1.4c0.1,0.3,0,0.7,0.4,1.2
						c0,0-0.1-1.2,0.3-1c0,0,2,1.2,3.2,1.5c1.2,0.4,1.7-0.2,1.8,0.4c0,0.5-0.3,2.8-2,3.3c0,0,0.6,1,3.4-1.2c2.3-1.8,2.3-1.9,3.5-1.9
						c2.3,0.1,3.3,4.3,6.5,4.4c0.1,0,0.1,0,0.2,0c0.3,0,6.4,0.1,8-6.4C38.9,8.1,36.1,0.2,19.1,0.2L19.1,0.2z M16.6,10.7
						c-0.1,0.1-0.6,0.5-1.1,0s-0.8-0.3-0.5-0.5c0,0,0.4-0.2,0.8-0.1c0.5,0,0.7,0.3,1.2,0.3C17.6,10.4,16.7,10.5,16.6,10.7z"/>
					<path class="st0" d="M13.5,15.6c3.3,0.6,4.6-1.9,4.6-1.9c-2.9,2-6.2-0.6-6.2-0.6c0.7,1.4,2.5,2,2.5,2
						C14.3,15.5,13.5,15.6,13.5,15.6z"/>
					<path class="st0" d="M47.6,15.5c0-0.7,0.7-1.9,2.8-1.9c1.5,0,2.9,0.7,4.1,1.8l2-2.7c-1.2-1.1-3.1-2.4-6.1-2.4
						c-4.5,0-6.5,3.1-6.5,5.3c0,5.6,7.6,5.1,7.6,8.2c0,1.5-1.5,2.5-3.2,2.5c-1.5,0-3.6-0.8-4.9-1.7l-1.9,3c1.9,1.5,4.7,2.1,6.5,2.1
						c4.7,0,7.1-3.3,7.1-6.2C55.1,18.5,47.6,18.2,47.6,15.5L47.6,15.5z"/>
					<path class="st0" d="M81.3,10.6h-3.6l-3.1,18.7h10.9l0.6-3.3h-7.3L81.3,10.6z"/>
					<path class="st0" d="M102,10.6l-1.8,10.7c-0.5,2.9-1.9,4.9-4.9,4.9s-3.7-2.1-3.3-4.9l1.8-10.7h-3.6l-1.9,11.1
						c-0.9,5.3,2.2,7.9,6.6,7.9s7.8-2.3,8.7-7.6l1.9-11.4H102z"/>
					<path class="st0" d="M111.3,15.5c0-0.7,0.7-1.9,2.8-1.9c1.5,0,2.9,0.7,4.1,1.8l2-2.7c-1.2-1.1-3.1-2.4-6.1-2.4
						c-4.5,0-6.5,3.1-6.5,5.3c0,5.6,7.6,5.1,7.6,8.2c0,1.5-1.5,2.5-3.2,2.5c-1.5,0-3.6-0.8-4.9-1.7l-1.9,3c1.9,1.5,4.7,2.1,6.5,2.1
						c4.7,0,7.1-3.3,7.1-6.2C118.9,18.5,111.3,18.2,111.3,15.5L111.3,15.5z"/>
					<path class="st0" d="M65.5,10.5L55.3,29.3h3.8l7.4-14.4l1.3,7.1h-1.9l-1.7,3.3h4.2l0.7,3.9h3.7l-3.9-18.8h-3.4V10.5z"/>
				</g>
			</g>
		</g>
		<path class="st1" d="M118.7,30h26.4c1.2,0,2.2,1,2.2,2.2v12c0,1.2-1,2.2-2.2,2.2h-26.4c-1.2,0-2.2-1-2.2-2.2v-12
			C116.5,30.9,117.5,30,118.7,30z"/>
		<path d="M123.8,41.2l-1.1-8.6h2l0.6,5.9l3.8-5.9h2.1l-5.7,8.6C125.5,41.2,123.8,41.2,123.8,41.2z M130.1,41.2l0.5-1.9h2l-0.5,1.9
			H130.1z M137.9,41.3c-0.5,0-1-0.1-1.4-0.2c-0.4-0.2-0.8-0.4-1-0.7c-0.3-0.3-0.5-0.7-0.7-1.1c-0.2-0.4-0.2-0.9-0.2-1.5
			s0.1-1.2,0.3-1.9c0.2-0.6,0.5-1.2,0.9-1.7s0.9-0.9,1.4-1.2c0.6-0.3,1.2-0.5,1.9-0.5c0.5,0,0.9,0.1,1.3,0.3
			c0.4,0.2,0.8,0.4,1.1,0.7s0.5,0.7,0.7,1.1c0.2,0.4,0.2,0.9,0.2,1.4c0,0.6-0.1,1.2-0.3,1.9c-0.2,0.6-0.5,1.2-0.9,1.7
			s-0.9,0.9-1.4,1.2C139.3,41.2,138.6,41.3,137.9,41.3z M138.1,39.6c0.4,0,0.7-0.1,1-0.3s0.6-0.5,0.8-0.9c0.2-0.3,0.4-0.7,0.5-1.2
			c0.1-0.4,0.2-0.8,0.2-1.2c0-0.6-0.1-1.1-0.4-1.4c-0.3-0.3-0.6-0.5-1.1-0.5c-0.4,0-0.7,0.1-1,0.3s-0.6,0.5-0.8,0.9
			c-0.2,0.3-0.4,0.7-0.5,1.2c-0.1,0.4-0.2,0.8-0.2,1.2c0,0.6,0.1,1.1,0.4,1.4C137.2,39.5,137.6,39.6,138.1,39.6z"/>
	</g>
</g>
</svg>
