<?xml version="1.0" encoding="utf-8"?>
<!-- Generator: Adobe Illustrator 28.2.0, SVG Export Plug-In . SVG Version: 6.00 Build 0)  -->
<svg version="1.1" id="Calque_1" xmlns="http://www.w3.org/2000/svg" xmlns:xlink="http://www.w3.org/1999/xlink" x="0px" y="0px"
	 viewBox="0 0 214.9 67.1" style="enable-background:new 0 0 214.9 67.1;" xml:space="preserve">
<style type="text/css">
	.st0{fill:#9592AD;}
	.st1{fill:#58566C;}
</style>
<g>
	<g>
		<path class="st0" d="M44.4,0H0v44h44.4V0z"/>
		<path d="M39.2,10.9L34.1,11h-0.2c-1.1,0.1-2,0.5-2.8,1.1L27.3,15c0,0-0.1,0-0.1,0.1L16.9,23v-4.3c0-0.5-0.4-1-1-1L5.2,17.8
			c-0.5,0-1,0.4-1,1l0.1,7.1v1.6c0,0.1,0,0.2,0,0.4c0,0.1,0,0.1,0,0.1c0,0.1,0,0.1,0,0.1c0,0.2,0.1,0.4,0.1,0.4
			c0,0.2,0.1,0.3,0.1,0.5c0.1,0.4,0.2,0.8,0.4,1c0.1,0.2,0.2,0.4,0.4,0.7c0.4,0.5,0.8,0.9,1.1,1.1c1,0.8,2.6,1.3,4.3,1.3
			s3.4-0.5,4.3-1.4c0.1-0.1,0.2-0.2,0.4-0.2c0.3-0.2,0.8-0.7,1.3-1.2c0.4-0.4,0.7-0.8,1-1l9.6-10c0.1-0.1,0.1-0.1,0.1-0.2l2-2.1
			l2.4-2.4l0.5-0.5c0.8-0.8,1.9-1.2,3.2-1.2h3.7c0.5,0,0.8-0.4,0.8-0.9C40.1,11.4,39.7,10.9,39.2,10.9z"/>
		<path class="st0" d="M68.9,21.3c0.6,0.2,1,0.5,1.3,0.9s0.6,0.8,0.6,1.1c0.2,0.5,0.2,0.9,0.2,1.4c0,0.9-0.2,1.6-0.6,2.2
			c-0.4,0.5-1,1-1.8,1.3s-1.7,0.5-2.8,0.5c-1.2,0-2.1-0.2-3-0.5s-1.5-0.9-2-1.6C60.3,25.9,60,25.1,60,24h3.4c0,0.4,0.2,0.8,0.3,1
			c0.2,0.3,0.5,0.5,0.8,0.6c0.3,0.2,0.7,0.2,1.2,0.2c0.4,0,0.7-0.1,0.9-0.2c0.2-0.1,0.4-0.2,0.6-0.4c0.2-0.2,0.2-0.3,0.2-0.5
			s0-0.4-0.2-0.5C67.1,24,67,24,66.7,23.8c-0.1,0-0.2-0.1-0.4-0.1c-0.2-0.1-0.5-0.2-0.8-0.2l-1.3-0.3c-1.2-0.2-2.1-0.6-2.8-1.3
			c-0.7-0.6-1-1.4-1-2.4c-0.1-0.9,0.2-1.6,0.6-2.2c0.5-0.6,1.1-1.2,1.9-1.5c0.8-0.4,1.7-0.5,2.8-0.5s2,0.2,2.8,0.5
			c0.8,0.3,1.4,0.9,1.8,1.5c0.4,0.7,0.6,1.4,0.6,2.3h-3.4c0-0.5-0.2-0.8-0.5-1c-0.2-0.2-0.7-0.4-1.3-0.4c-0.3,0-0.6,0.1-0.9,0.2
			c-0.1,0.1-0.2,0.1-0.2,0.1c-0.2,0.1-0.3,0.2-0.3,0.3c-0.1,0.2-0.2,0.4-0.2,0.5c0,0.2,0,0.2,0.1,0.4c0,0,0,0.1,0.1,0.1
			c0.1,0.1,0.1,0.2,0.2,0.2c0.2,0.1,0.3,0.2,0.6,0.2c0.2,0.1,0.5,0.2,0.8,0.2l1.1,0.2C67.8,20.8,68.3,21.1,68.9,21.3z"/>
		<path class="st0" d="M79.8,20.4h4.7v-5.1h3.6v13.1h-3.6v-5.1h-4.7v5.1h-3.6V15.3h3.6V20.4z"/>
		<path class="st0" d="M93.3,28.4h9.4v-2.9h-5.9v-2.2h5.4v-2.9h-5.4v-2.3h5.9v-2.8h-9.5L93.3,28.4L93.3,28.4z"/>
		<path class="st0" d="M118.5,19.8c0,0.9-0.2,1.7-0.6,2.4c-0.4,0.5-1,1-1.6,1.3l2.7,4.9h-3.9l-2.3-4.3h-1.3v4.3H108V15.3h5.6
			c0.9,0,1.8,0.2,2.5,0.5c0.8,0.4,1.3,0.9,1.7,1.6C118.3,18.1,118.5,18.9,118.5,19.8z M112.8,18.2h-1.3v3.1h1.3
			c0.5,0,0.8-0.1,1.1-0.2c0.3-0.1,0.6-0.2,0.7-0.5c0.2-0.2,0.2-0.5,0.2-0.9s-0.1-0.7-0.2-0.9c-0.2-0.2-0.4-0.5-0.7-0.5
			C113.6,18.2,113.2,18.2,112.8,18.2z"/>
		<path class="st0" d="M127.8,15.3h-3.6v13.1h8.9v-2.9h-5.3V15.3z"/>
		<path class="st0" d="M144.7,15.3c1.2,0,2.3,0.2,3.2,0.8c0.9,0.5,1.7,1.3,2.3,2.3s0.9,2.2,0.9,3.7s-0.3,2.7-0.9,3.7
			c-0.6,1-1.3,1.7-2.3,2.3c-0.9,0.5-2.1,0.8-3.2,0.8s-2.3-0.2-3.2-0.8c-1-0.5-1.7-1.3-2.3-2.3s-0.9-2.2-0.9-3.7s0.3-2.7,0.9-3.7
			c0.6-1,1.3-1.7,2.3-2.3C142.4,15.5,143.5,15.3,144.7,15.3z M146.2,25.3c0.5-0.3,0.7-0.7,0.9-1.3c0.2-0.5,0.3-1.3,0.3-2
			c0-0.8-0.1-1.4-0.3-2c-0.2-0.5-0.6-0.9-0.9-1.3c-0.4-0.2-1-0.4-1.5-0.4c-0.6,0-1.1,0.1-1.5,0.4c-0.5,0.3-0.7,0.7-1,1.3
			s-0.3,1.2-0.3,2s0.1,1.4,0.3,2c0.2,0.5,0.6,0.9,1,1.3c0.4,0.2,0.9,0.4,1.5,0.4C145.3,25.7,145.8,25.6,146.2,25.3z"/>
		<path class="st0" d="M161.2,18.9c0.4-0.3,1-0.5,1.5-0.5c0.3,0,0.6,0.1,1,0.2c0.2,0.1,0.5,0.2,0.7,0.4c0.2,0.2,0.3,0.4,0.5,0.6
			c0,0.1,0.1,0.3,0.1,0.4s0.1,0.3,0.1,0.4h3.6c-0.1-0.8-0.2-1.6-0.6-2.2c-0.3-0.6-0.7-1.2-1.3-1.6c-0.6-0.5-1.1-0.8-1.8-1
			s-1.4-0.3-2.3-0.3c-1.2,0-2.2,0.2-3.2,0.8c-0.9,0.5-1.7,1.3-2.3,2.3s-0.9,2.2-0.9,3.7s0.2,2.7,0.8,3.7s1.3,1.7,2.3,2.3
			c0.9,0.5,2.1,0.8,3.2,0.8c1,0,1.8-0.2,2.5-0.5s1.3-0.7,1.8-1.2s0.9-1,1.1-1.6c0.2-0.5,0.4-1.2,0.5-1.7H165
			c-0.1,0.3-0.2,0.5-0.2,0.8c0,0,0,0,0,0.1l0,0c-0.1,0.2-0.2,0.3-0.4,0.4c-0.2,0.2-0.4,0.3-0.7,0.4c-0.2,0.1-0.6,0.2-0.9,0.2
			c-0.6,0-1.1-0.2-1.5-0.4c-0.4-0.2-0.7-0.7-0.9-1.3c-0.2-0.5-0.3-1.2-0.3-2s0.1-1.4,0.3-2C160.4,19.6,160.8,19.1,161.2,18.9z"/>
		<path class="st0" d="M185.7,15.3l-4.4,5.8l4.6,7.3h-4.3l-2.9-4.9l-1.2,1.6v3.4h-3.6V15.3h3.6v5.3h0.2l4-5.3H185.7z"/>
		<path class="st1" d="M167.9,40.8h43.3c2,0,3.7,1.6,3.7,3.7v19c0,2-1.6,3.7-3.7,3.7h-43.3c-2,0-3.7-1.6-3.7-3.7v-19
			C164.3,42.4,165.9,40.8,167.9,40.8z"/>
		<path d="M182.1,59.5l-1.8-14.2h3.3l1,9.8l6.3-9.8h3.5l-9.5,14.2H182.1z M192.5,59.4l0.9-3.2h3.3l-0.9,3.2H192.5z M200.7,59.4
			l2.9-10.9l-2.6,0.6v-2.6l4.4-1.2h2.1l-3.8,14.2L200.7,59.4L200.7,59.4z"/>
	</g>
</g>
</svg>
