<svg width="41" height="41" viewBox="0 0 41 41" fill="none" xmlns="http://www.w3.org/2000/svg">
<path d="M29.2081 6.80756H11.592C10.4047 6.80756 9.26598 7.27895 8.42642 8.11804C7.58686 8.95713 7.1152 10.0952 7.1152 11.2818V24.7046C7.11313 25.2928 7.22751 25.8755 7.45176 26.4193C7.676 26.9631 8.00568 27.4572 8.4218 27.8731C8.83792 28.2889 9.33226 28.6184 9.87634 28.8426C10.4204 29.0667 11.0035 29.181 11.592 29.1789H29.2081C30.3954 29.1789 31.5341 28.7075 32.3737 27.8684C33.2132 27.0293 33.6849 25.8913 33.6849 24.7046V11.2818C33.6813 10.0963 33.2085 8.96027 32.3697 8.12195C31.531 7.28363 30.3943 6.8111 29.2081 6.80756ZM31.4465 24.7046C31.4465 25.298 31.2107 25.867 30.7909 26.2865C30.3711 26.7061 29.8018 26.9418 29.2081 26.9418H11.592C11.2972 26.9448 11.0048 26.889 10.7319 26.7776C10.4589 26.6662 10.211 26.5015 10.0025 26.2932C9.79408 26.0849 9.62931 25.8371 9.51788 25.5643C9.40645 25.2915 9.3506 24.9993 9.35359 24.7046V11.2818C9.35359 10.6885 9.58942 10.1195 10.0092 9.69993C10.429 9.28039 10.9983 9.04469 11.592 9.04469H29.2081C29.8018 9.04469 30.3711 9.28039 30.7909 9.69993C31.2107 10.1195 31.4465 10.6885 31.4465 11.2818V24.7046Z" fill="#CF7C01"/>
<path d="M34.8041 0.0961914H5.996C4.51312 0.100324 3.09217 0.690895 2.04361 1.73886C0.99506 2.78683 0.404159 4.20699 0.400024 5.68903V30.2975C0.400024 31.7808 0.989598 33.2034 2.03905 34.2523C3.08849 35.3011 4.51185 35.8904 5.996 35.8904V36.7405C5.996 37.6305 6.34974 38.484 6.97941 39.1133C7.60908 39.7426 8.46309 40.0962 9.35358 40.0962H12.5545C13.445 40.0962 14.299 39.7426 14.9286 39.1133C15.5583 38.484 15.9121 37.6305 15.9121 36.7405V35.8904H24.8656V36.7405C24.8656 37.6305 25.2194 38.484 25.849 39.1133C26.4787 39.7426 27.3327 40.0962 28.2232 40.0962H31.4465C32.337 40.0962 33.191 39.7426 33.8206 39.1133C34.4503 38.484 34.8041 37.6305 34.8041 36.7405V35.8904C36.2882 35.8904 37.7116 35.3011 38.761 34.2523C39.8105 33.2034 40.4 31.7808 40.4 30.2975V5.68903C40.3959 4.20699 39.805 2.78683 38.7564 1.73886C37.7079 0.690895 36.2869 0.100324 34.8041 0.0961914ZM13.6737 36.7405C13.6737 37.0372 13.5558 37.3217 13.3459 37.5314C13.136 37.7412 12.8513 37.8591 12.5545 37.8591H9.35358C9.05675 37.8591 8.77208 37.7412 8.56219 37.5314C8.3523 37.3217 8.23438 37.0372 8.23438 36.7405V35.8904H13.6737V36.7405ZM32.5657 36.7405C32.5657 37.0372 32.4478 37.3217 32.2379 37.5314C32.028 37.7412 31.7433 37.8591 31.4465 37.8591H28.2344C27.939 37.8544 27.657 37.7351 27.4481 37.5263C27.2392 37.3176 27.1198 37.0357 27.1152 36.7405V35.8904H32.5769L32.5657 36.7405ZM38.1616 30.2975C38.1616 31.1875 37.8079 32.0411 37.1782 32.6704C36.5486 33.2997 35.6945 33.6532 34.8041 33.6532H5.996C5.10551 33.6532 4.25149 33.2997 3.62183 32.6704C2.99216 32.0411 2.63841 31.1875 2.63841 30.2975V5.68903C2.63841 4.79904 2.99216 3.94551 3.62183 3.31619C4.25149 2.68687 5.10551 2.33333 5.996 2.33333H34.8041C35.6945 2.33333 36.5486 2.68687 37.1782 3.31619C37.8079 3.94551 38.1616 4.79904 38.1616 5.68903V30.2975Z" fill="#CF7C01"/>
<path d="M25.47 16.8747H24.1046C23.9355 16.2553 23.6084 15.6905 23.1551 15.2356C22.7019 14.7806 22.1382 14.4512 21.5192 14.2796V12.915C21.5128 12.6244 21.3913 12.3482 21.1816 12.147C20.9718 11.9457 20.6908 11.8357 20.4 11.8411C20.1108 11.8409 19.8327 11.9526 19.624 12.1528C19.4154 12.353 19.2924 12.6261 19.2808 12.915V14.2796C18.6598 14.4495 18.0937 14.7782 17.6384 15.2332C17.1831 15.6883 16.8543 16.254 16.6843 16.8747H15.3189C15.0299 16.8863 14.7566 17.0092 14.5563 17.2177C14.356 17.4262 14.2442 17.7042 14.2445 17.9933C14.2391 18.2838 14.3491 18.5647 14.5505 18.7744C14.7519 18.984 15.0282 19.1054 15.3189 19.1118H16.6843C16.8543 19.7325 17.1831 20.2982 17.6384 20.7533C18.0937 21.2083 18.6598 21.537 19.2808 21.7069V23.0939C19.2919 23.3809 19.4155 23.6521 19.6249 23.8488C19.8343 24.0455 20.1127 24.1521 20.4 24.1454C20.5428 24.1505 20.6851 24.1272 20.8188 24.077C20.9525 24.0268 21.0749 23.9506 21.1789 23.8528C21.283 23.7551 21.3666 23.6377 21.4251 23.5074C21.4835 23.3772 21.5155 23.2366 21.5192 23.0939V21.7069C22.1437 21.5441 22.7135 21.2178 23.1699 20.7616C23.6263 20.3055 23.9528 19.736 24.1157 19.1118H25.4812C25.6257 19.1104 25.7684 19.0802 25.9011 19.0229C26.0337 18.9656 26.1536 18.8825 26.2536 18.7783C26.3537 18.6741 26.432 18.551 26.4838 18.4162C26.5357 18.2814 26.5601 18.1376 26.5556 17.9933C26.5583 17.8484 26.5322 17.7045 26.479 17.5698C26.4258 17.4351 26.3465 17.3122 26.2456 17.2082C26.1447 17.1043 26.0242 17.0213 25.8911 16.964C25.758 16.9068 25.6149 16.8764 25.47 16.8747ZM20.4 19.6711C20.068 19.6711 19.7434 19.5727 19.4673 19.3883C19.1913 19.204 18.9761 18.9419 18.849 18.6353C18.722 18.3288 18.6887 17.9914 18.7535 17.6659C18.8183 17.3405 18.9782 17.0415 19.2129 16.8068C19.4477 16.5722 19.7469 16.4124 20.0725 16.3476C20.3982 16.2829 20.7357 16.3161 21.0425 16.4431C21.3492 16.5701 21.6114 16.7852 21.7959 17.0611C21.9804 17.337 22.0788 17.6614 22.0788 17.9933C22.0791 18.2137 22.0359 18.432 21.9516 18.6357C21.8674 18.8394 21.7437 19.0245 21.5878 19.1803C21.4318 19.3362 21.2466 19.4598 21.0428 19.544C20.839 19.6282 20.6206 19.6714 20.4 19.6711Z" fill="#CF7C01"/>
</svg>
