<?xml version="1.0" encoding="UTF-8"?><svg id="Calque_1" xmlns="http://www.w3.org/2000/svg" viewBox="0 0 360 46"><defs><style>.cls-1{fill:#9592ad;fill-rule:evenodd;stroke-width:0px;}</style></defs><path class="cls-1" d="M.01,0h39.78v6.44H6.44v7.94h33.2v31.62H0v-6.44h33.21v-7.27H.01V0ZM33.21,25.86v-5.04H6.44v5.04h26.77ZM48.2,0h6.43v21.78h29.21V0h6.43v28.21h-17.82v17.79h-6.43v-17.79h-17.82V0ZM99.09,0h42.07v46h-6.43V6.44h-11.08v20.65h-6.43V6.44h-11.69v39.56h-6.43V0ZM149.7,0h40.73v46h-40.73V0ZM156.13,6.44v13.56h27.87V6.44h-27.87ZM184,26.43h-27.87v13.13h27.87v-13.13ZM200.68,46V0h6.43v46h-6.43ZM217.35,0h40.73v46h-40.73V0ZM223.79,6.44v33.13h27.87V6.44h-27.87ZM279.42,6.44h-14.91V0h35.64v6.44h-14.3v39.56h-6.43V6.44ZM308.22,46V0h6.43v46h-6.43ZM322.49,0h37.51v6.44h-31.08v33.13h31.08v6.44h-37.51V0Z"/></svg>