<?xml version="1.0" encoding="utf-8"?>
<!-- Generator: Adobe Illustrator 28.2.0, SVG Export Plug-In . SVG Version: 6.00 Build 0)  -->
<svg version="1.1" id="Calque_1" xmlns="http://www.w3.org/2000/svg" xmlns:xlink="http://www.w3.org/1999/xlink" x="0px" y="0px"
	 viewBox="0 0 87.3 25.7" style="enable-background:new 0 0 87.3 25.7;" xml:space="preserve">
<style type="text/css">
	.st0{fill:#9592AD;}
</style>
<g>
	<g id="_x36_56f446e4fb8cebb8dbf78f0_x5F_XBTO_x5F_Brand-Logo_1">
		<path id="Vector" class="st0" d="M78.4,16.7c0,1.1,0.6,1.9,1.9,1.9h2.1c1.3,0,1.9-0.8,1.9-1.9v-7c0-1.1-0.6-1.9-1.9-1.9h-2.1
			c-1.3,0-1.9,0.8-1.9,1.9V16.7z M75.5,9.9c0-2.6,1.9-4.7,4.8-4.7h2.3c2.9,0,4.8,2.1,4.8,4.7v6.7c0,2.6-1.9,4.7-4.8,4.7h-2.3
			c-2.9,0-4.8-2.1-4.8-4.7V9.9z M66.7,7.9v13.5h3V7.9h4.2V5.2H62.5v2.7C62.5,7.9,66.7,7.9,66.7,7.9z M58.2,16.7
			c0,1.1-0.7,1.9-1.9,1.9h-3.6v-4.3h3.6c1.2,0,1.9,0.8,1.9,1.8V16.7z M56.2,7.8c1.1,0,1.6,0.7,1.6,1.6V10c0,0.9-0.5,1.7-1.6,1.7
			h-3.5V7.8H56.2z M58.6,12.9c1.6-0.5,2.3-1.8,2.3-3.2V9.3c0-2.4-1.7-4.1-4.5-4.1h-6.7v16.2h6.6c2.9,0,4.9-1.7,4.9-4.2v-0.6
			c0-1.6-0.7-2.9-2.6-3.4V12.9z M42.6,13.2l3.8-4.7c0.3-0.4,0.4-0.7,0.4-1.1V5.2h-3v1.5c0,0.3-0.1,0.5-0.2,0.7l-2.8,3.8L38,7.4
			c-0.2-0.2-0.2-0.4-0.2-0.7V5.2h-3v2.1c0,0.5,0.1,0.8,0.4,1.1l3.7,4.7L35.1,18c-0.3,0.3-0.4,0.7-0.4,1.1v2.1h3v-1.5
			c0-0.3,0.1-0.5,0.2-0.7l2.9-3.8l2.9,3.8c0.2,0.2,0.2,0.4,0.2,0.7v1.5h3v-2.1c0-0.5-0.1-0.8-0.4-1.1L42.6,13.2z M12.7,19.3l4.2-2.4
			v-2.4H8.5v2.4L12.7,19.3z M12.7,22.5l-7-4v-4H2.8v5.6l9.8,5.6l9.8-5.6v-5.6h-2.8v4L12.7,22.5z M12.7,9.7l4.2,2.4v2.4h2.8v-4l-7-4
			l-7,4v4h2.8v-2.4L12.7,9.7z M0,14.5h2.8V8.9l9.8-5.6l9.8,5.6v5.6h2.8V7.3L12.7,0L0,7.3V14.5z"/>
	</g>
</g>
</svg>
