<?xml version="1.0" encoding="utf-8"?>
<!-- Generator: Adobe Illustrator 28.2.0, SVG Export Plug-In . SVG Version: 6.00 Build 0)  -->
<svg version="1.1" id="Calque_1" xmlns="http://www.w3.org/2000/svg" xmlns:xlink="http://www.w3.org/1999/xlink" x="0px" y="0px"
	 viewBox="0 0 166 47" style="enable-background:new 0 0 166 47;" xml:space="preserve">
<style type="text/css">
	.st0{fill:#2F3E2C;}
	.st1{fill:#2B7E21;}
</style>
<g>
	<g id="_x36_537d33f7861de1f2f5e4741_x5F_Group_6065_1">
		<g id="Group_6065">
			<path id="Vector" class="st0" d="M58.4,34.2l15.9-21.7H58.6V8.3h21.6v3.8L64.3,33.8h16.1v4.3H58.4V34.2z"/>
			<path id="Vector_2" class="st0" d="M82.6,8.3h4.7v4.5h-4.7V8.3z M82.8,16.8H87v21.3h-4.2V16.8z"/>
			<path id="Vector_3" class="st0" d="M89.5,16.8h3.6l0.4,1.9h0.2c0.7-0.8,1.4-1.9,4-1.9h3.8v3.8h-3.4c-3,0-4.5,1.5-4.5,4.4v13h-4.2
				L89.5,16.8L89.5,16.8z"/>
			<path id="Vector_4" class="st0" d="M121.8,30.6c-0.7,3.2-3.4,7.9-9.8,7.9c-6.4,0-10.6-4.5-10.6-11.1c0-6.6,4.5-11.1,10.6-11.1
				c6.2,0,9.1,4.7,9.8,7.7h-4.2c-0.7-1.9-2.3-3.8-5.5-3.8c-3.6,0-6.4,2.8-6.4,7.2c0,4.4,2.8,7.2,6.4,7.2c3.4,0,5-2.3,5.5-4H121.8z"
				/>
			<path id="Vector_5" class="st0" d="M123.9,16.8h4.2v12.8c0,2.8,2.2,5.1,5.1,5.1c3.2,0,5.5-2.3,5.5-5.1V16.8h4.2v21.3h-3.8
				l-0.4-2.1h-0.2c-0.5,0.5-1,0.9-1.6,1.3c-1,0.6-2.6,1.3-4.6,1.3c-5.1,0-8.5-3.4-8.5-8.9L123.9,16.8z"/>
			<path id="Vector_6" class="st0" d="M145.8,8.3h4.7v4.5h-4.7V8.3z M146,16.8h4.2v21.3H146V16.8z"/>
			<path id="Vector_7" class="st0" d="M155.7,20.8h-3.4v-4h3.4v-6h4.2v6h4.9v4H160V33c0,0.9,0.4,1.3,1.3,1.3h3.6v3.8h-4.5
				c-3,0-4.7-1.7-4.7-4.5V20.8z"/>
			<path id="Vector_8" class="st1" d="M37.7,40.2c-3.9,3.4-9,5.4-14.6,5.4c-5.6,0-10.6-2-14.5-5.4l14.6-14.6L37.7,40.2z"/>
			<path id="Vector_9" class="st1" d="M23.1,0.8c-12.3,0-22.3,10-22.3,22.4c0,4.4,1.3,8.5,3.4,12c0.6,1,1.3,1.9,2,2.7l2.4-2.4
				l14.5-14.6l16.9,17c0.7-0.8,1.4-1.8,2-2.7c2.2-3.5,3.4-7.5,3.4-11.9C45.5,10.8,35.5,0.8,23.1,0.8z M39.7,31.5l-0.2,0.4L23.1,15.5
				L6.8,31.9l-0.2-0.4c-1.3-2.6-2-5.5-2-8.4c0-10.2,8.3-18.6,18.5-18.6s18.5,8.3,18.5,18.6C41.6,26.1,41,28.9,39.7,31.5z"/>
		</g>
	</g>
</g>
</svg>
